G04 EAGLE Gerber RS-274X export*
G75*
%MOMM*%
%FSLAX34Y34*%
%LPD*%
%INMilling*%
%IPPOS*%
%AMOC8*
5,1,8,0,0,1.08239X$1,22.5*%
G01*
%ADD10C,0.001000*%


D10*
X-39880Y-146130D02*
X-39892Y-145163D01*
X-39927Y-144197D01*
X-39985Y-143233D01*
X-40067Y-142269D01*
X-40172Y-141309D01*
X-40300Y-140350D01*
X-40451Y-139396D01*
X-40625Y-138445D01*
X-40822Y-137499D01*
X-41042Y-136557D01*
X-41285Y-135622D01*
X-41550Y-134692D01*
X-41838Y-133769D01*
X-42148Y-132854D01*
X-42479Y-131946D01*
X-42833Y-131046D01*
X-43208Y-130155D01*
X-43605Y-129274D01*
X-44023Y-128402D01*
X-44462Y-127541D01*
X-44921Y-126691D01*
X-45401Y-125852D01*
X-45901Y-125024D01*
X-46421Y-124209D01*
X-46961Y-123407D01*
X-47519Y-122619D01*
X-48097Y-121843D01*
X-48693Y-121083D01*
X-49307Y-120336D01*
X-49940Y-119605D01*
X-50589Y-118889D01*
X-51256Y-118190D01*
X-51940Y-117506D01*
X-52639Y-116839D01*
X-53355Y-116190D01*
X-54086Y-115557D01*
X-54833Y-114943D01*
X-55593Y-114347D01*
X-56369Y-113769D01*
X-57157Y-113211D01*
X-57959Y-112671D01*
X-58774Y-112151D01*
X-59602Y-111651D01*
X-60441Y-111171D01*
X-61291Y-110712D01*
X-62152Y-110273D01*
X-63024Y-109855D01*
X-63905Y-109458D01*
X-64796Y-109083D01*
X-65696Y-108729D01*
X-66604Y-108398D01*
X-67519Y-108088D01*
X-68442Y-107800D01*
X-69372Y-107535D01*
X-70307Y-107292D01*
X-71249Y-107072D01*
X-72195Y-106875D01*
X-73146Y-106701D01*
X-74100Y-106550D01*
X-75059Y-106422D01*
X-76019Y-106317D01*
X-76983Y-106235D01*
X-77947Y-106177D01*
X-78913Y-106142D01*
X-79880Y-106130D01*
X-39880Y-146130D02*
X-39880Y-161530D01*
X-39877Y-161772D01*
X-39868Y-162013D01*
X-39854Y-162254D01*
X-39833Y-162495D01*
X-39807Y-162735D01*
X-39775Y-162975D01*
X-39737Y-163214D01*
X-39694Y-163451D01*
X-39644Y-163688D01*
X-39589Y-163923D01*
X-39529Y-164157D01*
X-39462Y-164389D01*
X-39391Y-164620D01*
X-39313Y-164849D01*
X-39230Y-165076D01*
X-39142Y-165301D01*
X-39048Y-165524D01*
X-38949Y-165744D01*
X-38844Y-165962D01*
X-38735Y-166177D01*
X-38620Y-166390D01*
X-38500Y-166600D01*
X-38375Y-166806D01*
X-38245Y-167010D01*
X-38110Y-167211D01*
X-37970Y-167408D01*
X-37826Y-167602D01*
X-37677Y-167792D01*
X-37523Y-167978D01*
X-37365Y-168161D01*
X-37203Y-168340D01*
X-37036Y-168515D01*
X-36865Y-168686D01*
X-36690Y-168853D01*
X-36511Y-169015D01*
X-36328Y-169173D01*
X-36142Y-169327D01*
X-35952Y-169476D01*
X-35758Y-169620D01*
X-35561Y-169760D01*
X-35360Y-169895D01*
X-35156Y-170025D01*
X-34950Y-170150D01*
X-34740Y-170270D01*
X-34527Y-170385D01*
X-34312Y-170494D01*
X-34094Y-170599D01*
X-33874Y-170698D01*
X-33651Y-170792D01*
X-33426Y-170880D01*
X-33199Y-170963D01*
X-32970Y-171041D01*
X-32739Y-171112D01*
X-32507Y-171179D01*
X-32273Y-171239D01*
X-32038Y-171294D01*
X-31801Y-171344D01*
X-31564Y-171387D01*
X-31325Y-171425D01*
X-31085Y-171457D01*
X-30845Y-171483D01*
X-30604Y-171504D01*
X-30363Y-171518D01*
X-30122Y-171527D01*
X-29880Y-171530D01*
X119670Y-171530D01*
X119912Y-171527D01*
X120153Y-171518D01*
X120394Y-171504D01*
X120635Y-171483D01*
X120875Y-171457D01*
X121115Y-171425D01*
X121354Y-171387D01*
X121591Y-171344D01*
X121828Y-171294D01*
X122063Y-171239D01*
X122297Y-171179D01*
X122529Y-171112D01*
X122760Y-171041D01*
X122989Y-170963D01*
X123216Y-170880D01*
X123441Y-170792D01*
X123664Y-170698D01*
X123884Y-170599D01*
X124102Y-170494D01*
X124317Y-170385D01*
X124530Y-170270D01*
X124740Y-170150D01*
X124946Y-170025D01*
X125150Y-169895D01*
X125351Y-169760D01*
X125548Y-169620D01*
X125742Y-169476D01*
X125932Y-169327D01*
X126118Y-169173D01*
X126301Y-169015D01*
X126480Y-168853D01*
X126655Y-168686D01*
X126826Y-168515D01*
X126993Y-168340D01*
X127155Y-168161D01*
X127313Y-167978D01*
X127467Y-167792D01*
X127616Y-167602D01*
X127760Y-167408D01*
X127900Y-167211D01*
X128035Y-167010D01*
X128165Y-166806D01*
X128290Y-166600D01*
X128410Y-166390D01*
X128525Y-166177D01*
X128634Y-165962D01*
X128739Y-165744D01*
X128838Y-165524D01*
X128932Y-165301D01*
X129020Y-165076D01*
X129103Y-164849D01*
X129181Y-164620D01*
X129252Y-164389D01*
X129319Y-164157D01*
X129379Y-163923D01*
X129434Y-163688D01*
X129484Y-163451D01*
X129527Y-163214D01*
X129565Y-162975D01*
X129597Y-162735D01*
X129623Y-162495D01*
X129644Y-162254D01*
X129658Y-162013D01*
X129667Y-161772D01*
X129670Y-161530D01*
X129670Y95970D01*
X129667Y96212D01*
X129658Y96453D01*
X129644Y96694D01*
X129623Y96935D01*
X129597Y97175D01*
X129565Y97415D01*
X129527Y97654D01*
X129484Y97891D01*
X129434Y98128D01*
X129379Y98363D01*
X129319Y98597D01*
X129252Y98829D01*
X129181Y99060D01*
X129103Y99289D01*
X129020Y99516D01*
X128932Y99741D01*
X128838Y99964D01*
X128739Y100184D01*
X128634Y100402D01*
X128525Y100617D01*
X128410Y100830D01*
X128290Y101040D01*
X128165Y101246D01*
X128035Y101450D01*
X127900Y101651D01*
X127760Y101848D01*
X127616Y102042D01*
X127467Y102232D01*
X127313Y102418D01*
X127155Y102601D01*
X126993Y102780D01*
X126826Y102955D01*
X126655Y103126D01*
X126480Y103293D01*
X126301Y103455D01*
X126118Y103613D01*
X125932Y103767D01*
X125742Y103916D01*
X125548Y104060D01*
X125351Y104200D01*
X125150Y104335D01*
X124946Y104465D01*
X124740Y104590D01*
X124530Y104710D01*
X124317Y104825D01*
X124102Y104934D01*
X123884Y105039D01*
X123664Y105138D01*
X123441Y105232D01*
X123216Y105320D01*
X122989Y105403D01*
X122760Y105481D01*
X122529Y105552D01*
X122297Y105619D01*
X122063Y105679D01*
X121828Y105734D01*
X121591Y105784D01*
X121354Y105827D01*
X121115Y105865D01*
X120875Y105897D01*
X120635Y105923D01*
X120394Y105944D01*
X120153Y105958D01*
X119912Y105967D01*
X119670Y105970D01*
X97920Y105970D01*
X96953Y105982D01*
X95987Y106017D01*
X95023Y106075D01*
X94059Y106157D01*
X93099Y106262D01*
X92140Y106390D01*
X91186Y106541D01*
X90235Y106715D01*
X89289Y106912D01*
X88347Y107132D01*
X87412Y107375D01*
X86482Y107640D01*
X85559Y107928D01*
X84644Y108238D01*
X83736Y108569D01*
X82836Y108923D01*
X81945Y109298D01*
X81064Y109695D01*
X80192Y110113D01*
X79331Y110552D01*
X78481Y111011D01*
X77642Y111491D01*
X76814Y111991D01*
X75999Y112511D01*
X75197Y113051D01*
X74409Y113609D01*
X73633Y114187D01*
X72873Y114783D01*
X72126Y115397D01*
X71395Y116030D01*
X70679Y116679D01*
X69980Y117346D01*
X69296Y118030D01*
X68629Y118729D01*
X67980Y119445D01*
X67347Y120176D01*
X66733Y120923D01*
X66137Y121683D01*
X65559Y122459D01*
X65001Y123247D01*
X64461Y124049D01*
X63941Y124864D01*
X63441Y125692D01*
X62961Y126531D01*
X62502Y127381D01*
X62063Y128242D01*
X61645Y129114D01*
X61248Y129995D01*
X60873Y130886D01*
X60519Y131786D01*
X60188Y132694D01*
X59878Y133609D01*
X59590Y134532D01*
X59325Y135462D01*
X59082Y136397D01*
X58862Y137339D01*
X58665Y138285D01*
X58491Y139236D01*
X58340Y140190D01*
X58212Y141149D01*
X58107Y142109D01*
X58025Y143073D01*
X57967Y144037D01*
X57932Y145003D01*
X57920Y145970D01*
X57920Y164470D01*
X57917Y164712D01*
X57908Y164953D01*
X57894Y165194D01*
X57873Y165435D01*
X57847Y165675D01*
X57815Y165915D01*
X57777Y166154D01*
X57734Y166391D01*
X57684Y166628D01*
X57629Y166863D01*
X57569Y167097D01*
X57502Y167329D01*
X57431Y167560D01*
X57353Y167789D01*
X57270Y168016D01*
X57182Y168241D01*
X57088Y168464D01*
X56989Y168684D01*
X56884Y168902D01*
X56775Y169117D01*
X56660Y169330D01*
X56540Y169540D01*
X56415Y169746D01*
X56285Y169950D01*
X56150Y170151D01*
X56010Y170348D01*
X55866Y170542D01*
X55717Y170732D01*
X55563Y170918D01*
X55405Y171101D01*
X55243Y171280D01*
X55076Y171455D01*
X54905Y171626D01*
X54730Y171793D01*
X54551Y171955D01*
X54368Y172113D01*
X54182Y172267D01*
X53992Y172416D01*
X53798Y172560D01*
X53601Y172700D01*
X53400Y172835D01*
X53196Y172965D01*
X52990Y173090D01*
X52780Y173210D01*
X52567Y173325D01*
X52352Y173434D01*
X52134Y173539D01*
X51914Y173638D01*
X51691Y173732D01*
X51466Y173820D01*
X51239Y173903D01*
X51010Y173981D01*
X50779Y174052D01*
X50547Y174119D01*
X50313Y174179D01*
X50078Y174234D01*
X49841Y174284D01*
X49604Y174327D01*
X49365Y174365D01*
X49125Y174397D01*
X48885Y174423D01*
X48644Y174444D01*
X48403Y174458D01*
X48162Y174467D01*
X47920Y174470D01*
X-29880Y174470D01*
X-30122Y174467D01*
X-30363Y174458D01*
X-30604Y174444D01*
X-30845Y174423D01*
X-31085Y174397D01*
X-31325Y174365D01*
X-31564Y174327D01*
X-31801Y174284D01*
X-32038Y174234D01*
X-32273Y174179D01*
X-32507Y174119D01*
X-32739Y174052D01*
X-32970Y173981D01*
X-33199Y173903D01*
X-33426Y173820D01*
X-33651Y173732D01*
X-33874Y173638D01*
X-34094Y173539D01*
X-34312Y173434D01*
X-34527Y173325D01*
X-34740Y173210D01*
X-34950Y173090D01*
X-35156Y172965D01*
X-35360Y172835D01*
X-35561Y172700D01*
X-35758Y172560D01*
X-35952Y172416D01*
X-36142Y172267D01*
X-36328Y172113D01*
X-36511Y171955D01*
X-36690Y171793D01*
X-36865Y171626D01*
X-37036Y171455D01*
X-37203Y171280D01*
X-37365Y171101D01*
X-37523Y170918D01*
X-37677Y170732D01*
X-37826Y170542D01*
X-37970Y170348D01*
X-38110Y170151D01*
X-38245Y169950D01*
X-38375Y169746D01*
X-38500Y169540D01*
X-38620Y169330D01*
X-38735Y169117D01*
X-38844Y168902D01*
X-38949Y168684D01*
X-39048Y168464D01*
X-39142Y168241D01*
X-39230Y168016D01*
X-39313Y167789D01*
X-39391Y167560D01*
X-39462Y167329D01*
X-39529Y167097D01*
X-39589Y166863D01*
X-39644Y166628D01*
X-39694Y166391D01*
X-39737Y166154D01*
X-39775Y165915D01*
X-39807Y165675D01*
X-39833Y165435D01*
X-39854Y165194D01*
X-39868Y164953D01*
X-39877Y164712D01*
X-39880Y164470D01*
X-39880Y145970D01*
X-39892Y145003D01*
X-39927Y144037D01*
X-39985Y143073D01*
X-40067Y142109D01*
X-40172Y141149D01*
X-40300Y140190D01*
X-40451Y139236D01*
X-40625Y138285D01*
X-40822Y137339D01*
X-41042Y136397D01*
X-41285Y135462D01*
X-41550Y134532D01*
X-41838Y133609D01*
X-42148Y132694D01*
X-42479Y131786D01*
X-42833Y130886D01*
X-43208Y129995D01*
X-43605Y129114D01*
X-44023Y128242D01*
X-44462Y127381D01*
X-44921Y126531D01*
X-45401Y125692D01*
X-45901Y124864D01*
X-46421Y124049D01*
X-46961Y123247D01*
X-47519Y122459D01*
X-48097Y121683D01*
X-48693Y120923D01*
X-49307Y120176D01*
X-49940Y119445D01*
X-50589Y118729D01*
X-51256Y118030D01*
X-51940Y117346D01*
X-52639Y116679D01*
X-53355Y116030D01*
X-54086Y115397D01*
X-54833Y114783D01*
X-55593Y114187D01*
X-56369Y113609D01*
X-57157Y113051D01*
X-57959Y112511D01*
X-58774Y111991D01*
X-59602Y111491D01*
X-60441Y111011D01*
X-61291Y110552D01*
X-62152Y110113D01*
X-63024Y109695D01*
X-63905Y109298D01*
X-64796Y108923D01*
X-65696Y108569D01*
X-66604Y108238D01*
X-67519Y107928D01*
X-68442Y107640D01*
X-69372Y107375D01*
X-70307Y107132D01*
X-71249Y106912D01*
X-72195Y106715D01*
X-73146Y106541D01*
X-74100Y106390D01*
X-75059Y106262D01*
X-76019Y106157D01*
X-76983Y106075D01*
X-77947Y106017D01*
X-78913Y105982D01*
X-79880Y105970D01*
X-100330Y105970D01*
X-100572Y105967D01*
X-100813Y105958D01*
X-101054Y105944D01*
X-101295Y105923D01*
X-101535Y105897D01*
X-101775Y105865D01*
X-102014Y105827D01*
X-102251Y105784D01*
X-102488Y105734D01*
X-102723Y105679D01*
X-102957Y105619D01*
X-103189Y105552D01*
X-103420Y105481D01*
X-103649Y105403D01*
X-103876Y105320D01*
X-104101Y105232D01*
X-104324Y105138D01*
X-104544Y105039D01*
X-104762Y104934D01*
X-104977Y104825D01*
X-105190Y104710D01*
X-105400Y104590D01*
X-105606Y104465D01*
X-105810Y104335D01*
X-106011Y104200D01*
X-106208Y104060D01*
X-106402Y103916D01*
X-106592Y103767D01*
X-106778Y103613D01*
X-106961Y103455D01*
X-107140Y103293D01*
X-107315Y103126D01*
X-107486Y102955D01*
X-107653Y102780D01*
X-107815Y102601D01*
X-107973Y102418D01*
X-108127Y102232D01*
X-108276Y102042D01*
X-108420Y101848D01*
X-108560Y101651D01*
X-108695Y101450D01*
X-108825Y101246D01*
X-108950Y101040D01*
X-109070Y100830D01*
X-109185Y100617D01*
X-109294Y100402D01*
X-109399Y100184D01*
X-109498Y99964D01*
X-109592Y99741D01*
X-109680Y99516D01*
X-109763Y99289D01*
X-109841Y99060D01*
X-109912Y98829D01*
X-109979Y98597D01*
X-110039Y98363D01*
X-110094Y98128D01*
X-110144Y97891D01*
X-110187Y97654D01*
X-110225Y97415D01*
X-110257Y97175D01*
X-110283Y96935D01*
X-110304Y96694D01*
X-110318Y96453D01*
X-110327Y96212D01*
X-110330Y95970D01*
X-110330Y-96130D01*
X-110327Y-96372D01*
X-110318Y-96613D01*
X-110304Y-96854D01*
X-110283Y-97095D01*
X-110257Y-97335D01*
X-110225Y-97575D01*
X-110187Y-97814D01*
X-110144Y-98051D01*
X-110094Y-98288D01*
X-110039Y-98523D01*
X-109979Y-98757D01*
X-109912Y-98989D01*
X-109841Y-99220D01*
X-109763Y-99449D01*
X-109680Y-99676D01*
X-109592Y-99901D01*
X-109498Y-100124D01*
X-109399Y-100344D01*
X-109294Y-100562D01*
X-109185Y-100777D01*
X-109070Y-100990D01*
X-108950Y-101200D01*
X-108825Y-101406D01*
X-108695Y-101610D01*
X-108560Y-101811D01*
X-108420Y-102008D01*
X-108276Y-102202D01*
X-108127Y-102392D01*
X-107973Y-102578D01*
X-107815Y-102761D01*
X-107653Y-102940D01*
X-107486Y-103115D01*
X-107315Y-103286D01*
X-107140Y-103453D01*
X-106961Y-103615D01*
X-106778Y-103773D01*
X-106592Y-103927D01*
X-106402Y-104076D01*
X-106208Y-104220D01*
X-106011Y-104360D01*
X-105810Y-104495D01*
X-105606Y-104625D01*
X-105400Y-104750D01*
X-105190Y-104870D01*
X-104977Y-104985D01*
X-104762Y-105094D01*
X-104544Y-105199D01*
X-104324Y-105298D01*
X-104101Y-105392D01*
X-103876Y-105480D01*
X-103649Y-105563D01*
X-103420Y-105641D01*
X-103189Y-105712D01*
X-102957Y-105779D01*
X-102723Y-105839D01*
X-102488Y-105894D01*
X-102251Y-105944D01*
X-102014Y-105987D01*
X-101775Y-106025D01*
X-101535Y-106057D01*
X-101295Y-106083D01*
X-101054Y-106104D01*
X-100813Y-106118D01*
X-100572Y-106127D01*
X-100330Y-106130D01*
X-79880Y-106130D01*
M02*
