G04 EAGLE Gerber RS-274X export*
G75*
%MOMM*%
%FSLAX34Y34*%
%LPD*%
%IN*%
%IPPOS*%
%AMOC8*
5,1,8,0,0,1.08239X$1,22.5*%
G01*
%ADD10C,0.254000*%


D10*
X-866020Y-458690D02*
X-822751Y-532425D01*
X-804940Y-558990D01*
X-803883Y-560379D01*
X-802710Y-561670D01*
X-801428Y-562854D01*
X-800048Y-563922D01*
X-798580Y-564865D01*
X-797036Y-565677D01*
X-795427Y-566351D01*
X-793765Y-566883D01*
X-792063Y-567267D01*
X-790334Y-567502D01*
X-788591Y-567585D01*
X-786847Y-567516D01*
X-785116Y-567295D01*
X-783411Y-566925D01*
X-781745Y-566407D01*
X-780131Y-565745D01*
X-778580Y-564946D01*
X-777104Y-564014D01*
X-775716Y-562958D01*
X-774424Y-561784D01*
X-774370Y-561730D01*
X-593960Y-381320D01*
X-592673Y-380141D01*
X-591289Y-379079D01*
X-589817Y-378141D01*
X-588269Y-377335D01*
X-586657Y-376667D01*
X-584992Y-376143D01*
X-583289Y-375765D01*
X-581558Y-375537D01*
X-579815Y-375461D01*
X-578072Y-375537D01*
X-576341Y-375765D01*
X-574638Y-376143D01*
X-572973Y-376667D01*
X-571361Y-377335D01*
X-569813Y-378141D01*
X-568341Y-379079D01*
X-566957Y-380141D01*
X-565670Y-381320D01*
X-240400Y-706580D01*
X-239221Y-707867D01*
X-238159Y-709251D01*
X-237221Y-710723D01*
X-236415Y-712271D01*
X-235747Y-713883D01*
X-235223Y-715548D01*
X-234845Y-717251D01*
X-234617Y-718982D01*
X-234541Y-720725D01*
X-234617Y-722468D01*
X-234845Y-724199D01*
X-235223Y-725902D01*
X-235747Y-727567D01*
X-236415Y-729179D01*
X-237221Y-730727D01*
X-238159Y-732199D01*
X-239221Y-733583D01*
X-240400Y-734870D01*
X-379250Y-873720D01*
X-380429Y-875006D01*
X-381491Y-876390D01*
X-382429Y-877861D01*
X-383235Y-879409D01*
X-383903Y-881021D01*
X-384428Y-882684D01*
X-384806Y-884388D01*
X-385034Y-886117D01*
X-385111Y-887861D01*
X-385035Y-889604D01*
X-384807Y-891333D01*
X-384430Y-893037D01*
X-383906Y-894701D01*
X-383239Y-896313D01*
X-382433Y-897861D01*
X-381496Y-899332D01*
X-380434Y-900717D01*
X-379256Y-902003D01*
X-377970Y-903182D01*
X-376586Y-904245D01*
X-375114Y-905183D01*
X-373567Y-905988D01*
X-372720Y-906360D01*
X-292312Y-935396D01*
X-209679Y-957313D01*
X-125451Y-971945D01*
X-40267Y-979181D01*
X45223Y-978964D01*
X130368Y-971298D01*
X214522Y-956240D01*
X297042Y-933904D01*
X372720Y-906360D01*
X374303Y-905626D01*
X375816Y-904758D01*
X377248Y-903760D01*
X378587Y-902642D01*
X379824Y-901412D01*
X380948Y-900078D01*
X381953Y-898651D01*
X382829Y-897142D01*
X383570Y-895563D01*
X384170Y-893925D01*
X384626Y-892240D01*
X384933Y-890523D01*
X385089Y-888785D01*
X385094Y-887040D01*
X384946Y-885302D01*
X384647Y-883583D01*
X384199Y-881897D01*
X383607Y-880256D01*
X382873Y-878673D01*
X382004Y-877160D01*
X381007Y-875728D01*
X379889Y-874389D01*
X379250Y-873720D01*
X240400Y-734870D01*
X239221Y-733583D01*
X238159Y-732199D01*
X237221Y-730727D01*
X236415Y-729179D01*
X235747Y-727567D01*
X235223Y-725902D01*
X234845Y-724199D01*
X234617Y-722468D01*
X234541Y-720725D01*
X234617Y-718982D01*
X234845Y-717251D01*
X235223Y-715548D01*
X235747Y-713883D01*
X236415Y-712271D01*
X237221Y-710723D01*
X238159Y-709251D01*
X239221Y-707867D01*
X240400Y-706580D01*
X565670Y-381320D01*
X566957Y-380141D01*
X568341Y-379079D01*
X569813Y-378141D01*
X571361Y-377335D01*
X572973Y-376667D01*
X574638Y-376143D01*
X576341Y-375765D01*
X578072Y-375537D01*
X579815Y-375461D01*
X581558Y-375537D01*
X583289Y-375765D01*
X584992Y-376143D01*
X586657Y-376667D01*
X588269Y-377335D01*
X589817Y-378141D01*
X591289Y-379079D01*
X592673Y-380141D01*
X593960Y-381320D01*
X774370Y-561730D01*
X775657Y-562909D01*
X777041Y-563970D01*
X778513Y-564908D01*
X780061Y-565713D01*
X781673Y-566380D01*
X783337Y-566905D01*
X785041Y-567282D01*
X786771Y-567510D01*
X788514Y-567585D01*
X790257Y-567509D01*
X791987Y-567281D01*
X793691Y-566903D01*
X795355Y-566378D01*
X796966Y-565710D01*
X798514Y-564904D01*
X799985Y-563966D01*
X801369Y-562903D01*
X802656Y-561724D01*
X803834Y-560438D01*
X804896Y-559053D01*
X804940Y-558990D01*
X850592Y-486706D01*
X866020Y-458690D01*
X867143Y-456326D01*
X868055Y-453873D01*
X868751Y-451350D01*
X869224Y-448776D01*
X869470Y-446170D01*
X869489Y-443553D01*
X869279Y-440944D01*
X868843Y-438363D01*
X868183Y-435831D01*
X867306Y-433365D01*
X866217Y-430985D01*
X864924Y-428709D01*
X863438Y-426555D01*
X861770Y-424538D01*
X859933Y-422674D01*
X857940Y-420978D01*
X855807Y-419462D01*
X855070Y-419000D01*
X697430Y-323360D01*
X691626Y-319484D01*
X686183Y-315116D01*
X681141Y-310291D01*
X676538Y-305045D01*
X672410Y-299417D01*
X668789Y-293451D01*
X665701Y-287192D01*
X663170Y-280688D01*
X661216Y-273988D01*
X659853Y-267144D01*
X659092Y-260206D01*
X658920Y-254960D01*
X658920Y254960D01*
X659224Y261932D01*
X660135Y268852D01*
X661646Y275665D01*
X663745Y282322D01*
X666415Y288769D01*
X669638Y294960D01*
X673388Y300846D01*
X677636Y306383D01*
X682351Y311528D01*
X687497Y316243D01*
X693034Y320492D01*
X697430Y323360D01*
X855070Y419000D01*
X857246Y420454D01*
X859287Y422092D01*
X861178Y423902D01*
X862904Y425869D01*
X864452Y427980D01*
X865810Y430217D01*
X866967Y432565D01*
X867916Y435004D01*
X868648Y437516D01*
X869159Y440083D01*
X869444Y442685D01*
X869502Y445301D01*
X869331Y447913D01*
X868933Y450500D01*
X868311Y453042D01*
X867470Y455520D01*
X866416Y457916D01*
X866020Y458690D01*
X822751Y532425D01*
X804940Y558990D01*
X803883Y560379D01*
X802710Y561670D01*
X801428Y562854D01*
X800048Y563922D01*
X798580Y564865D01*
X797036Y565677D01*
X795427Y566351D01*
X793765Y566883D01*
X792063Y567267D01*
X790334Y567502D01*
X788591Y567585D01*
X786847Y567516D01*
X785116Y567295D01*
X783411Y566925D01*
X781745Y566407D01*
X780131Y565745D01*
X778580Y564946D01*
X777104Y564014D01*
X775716Y562958D01*
X774424Y561784D01*
X774370Y561730D01*
X593960Y381320D01*
X592673Y380141D01*
X591289Y379079D01*
X589817Y378141D01*
X588269Y377335D01*
X586657Y376667D01*
X584992Y376143D01*
X583289Y375765D01*
X581558Y375537D01*
X579815Y375461D01*
X578072Y375537D01*
X576341Y375765D01*
X574638Y376143D01*
X572973Y376667D01*
X571361Y377335D01*
X569813Y378141D01*
X568341Y379079D01*
X566957Y380141D01*
X565670Y381320D01*
X240400Y706580D01*
X239221Y707867D01*
X238159Y709251D01*
X237221Y710723D01*
X236415Y712271D01*
X235747Y713883D01*
X235223Y715548D01*
X234845Y717251D01*
X234617Y718982D01*
X234541Y720725D01*
X234617Y722468D01*
X234845Y724199D01*
X235223Y725902D01*
X235747Y727567D01*
X236415Y729179D01*
X237221Y730727D01*
X238159Y732199D01*
X239221Y733583D01*
X240400Y734870D01*
X379250Y873720D01*
X380429Y875006D01*
X381491Y876390D01*
X382429Y877861D01*
X383235Y879409D01*
X383903Y881021D01*
X384428Y882684D01*
X384806Y884388D01*
X385034Y886117D01*
X385111Y887861D01*
X385035Y889604D01*
X384807Y891333D01*
X384430Y893037D01*
X383906Y894701D01*
X383239Y896313D01*
X382433Y897861D01*
X381496Y899332D01*
X380434Y900717D01*
X379256Y902003D01*
X377970Y903182D01*
X376586Y904245D01*
X375114Y905183D01*
X373567Y905988D01*
X372720Y906360D01*
X292312Y935396D01*
X209679Y957313D01*
X125451Y971945D01*
X40267Y979181D01*
X-45223Y978964D01*
X-130368Y971298D01*
X-214522Y956240D01*
X-297042Y933904D01*
X-372720Y906360D01*
X-374303Y905626D01*
X-375816Y904758D01*
X-377248Y903760D01*
X-378587Y902642D01*
X-379824Y901412D01*
X-380948Y900078D01*
X-381953Y898651D01*
X-382829Y897142D01*
X-383570Y895563D01*
X-384170Y893925D01*
X-384626Y892240D01*
X-384933Y890523D01*
X-385089Y888785D01*
X-385094Y887040D01*
X-384946Y885302D01*
X-384647Y883583D01*
X-384199Y881897D01*
X-383607Y880256D01*
X-382873Y878673D01*
X-382004Y877160D01*
X-381007Y875728D01*
X-379889Y874389D01*
X-379250Y873720D01*
X-240400Y734870D01*
X-239221Y733583D01*
X-238159Y732199D01*
X-237221Y730727D01*
X-236415Y729179D01*
X-235747Y727567D01*
X-235223Y725902D01*
X-234845Y724199D01*
X-234617Y722468D01*
X-234541Y720725D01*
X-234617Y718982D01*
X-234845Y717251D01*
X-235223Y715548D01*
X-235747Y713883D01*
X-236415Y712271D01*
X-237221Y710723D01*
X-238159Y709251D01*
X-239221Y707867D01*
X-240400Y706580D01*
X-565670Y381320D01*
X-566957Y380141D01*
X-568341Y379079D01*
X-569813Y378141D01*
X-571361Y377335D01*
X-572973Y376667D01*
X-574638Y376143D01*
X-576341Y375765D01*
X-578072Y375537D01*
X-579815Y375461D01*
X-581558Y375537D01*
X-583289Y375765D01*
X-584992Y376143D01*
X-586657Y376667D01*
X-588269Y377335D01*
X-589817Y378141D01*
X-591289Y379079D01*
X-592673Y380141D01*
X-593960Y381320D01*
X-774370Y561730D01*
X-775657Y562909D01*
X-777041Y563970D01*
X-778513Y564908D01*
X-780061Y565713D01*
X-781673Y566380D01*
X-783337Y566905D01*
X-785041Y567282D01*
X-786771Y567510D01*
X-788514Y567585D01*
X-790257Y567509D01*
X-791987Y567281D01*
X-793691Y566903D01*
X-795355Y566378D01*
X-796966Y565710D01*
X-798514Y564904D01*
X-799985Y563966D01*
X-801369Y562903D01*
X-802656Y561724D01*
X-803834Y560438D01*
X-804896Y559053D01*
X-804940Y558990D01*
X-850592Y486706D01*
X-866020Y458690D01*
X-867143Y456326D01*
X-868055Y453873D01*
X-868751Y451350D01*
X-869224Y448776D01*
X-869470Y446170D01*
X-869489Y443553D01*
X-869279Y440944D01*
X-868843Y438363D01*
X-868183Y435831D01*
X-867306Y433365D01*
X-866217Y430985D01*
X-864924Y428709D01*
X-863438Y426555D01*
X-861770Y424538D01*
X-859933Y422674D01*
X-857940Y420978D01*
X-855807Y419462D01*
X-855070Y419000D01*
X-697430Y323360D01*
X-691626Y319484D01*
X-686183Y315116D01*
X-681141Y310291D01*
X-676538Y305045D01*
X-672410Y299417D01*
X-668789Y293451D01*
X-665701Y287192D01*
X-663170Y280688D01*
X-661216Y273988D01*
X-659853Y267144D01*
X-659092Y260206D01*
X-658920Y254960D01*
X-658920Y-254960D01*
X-659224Y-261932D01*
X-660135Y-268852D01*
X-661646Y-275665D01*
X-663745Y-282322D01*
X-666415Y-288769D01*
X-669638Y-294960D01*
X-673388Y-300846D01*
X-677636Y-306383D01*
X-682351Y-311528D01*
X-687497Y-316243D01*
X-693034Y-320492D01*
X-697430Y-323360D01*
X-855070Y-419000D01*
X-857246Y-420454D01*
X-859287Y-422092D01*
X-861178Y-423902D01*
X-862904Y-425869D01*
X-864452Y-427980D01*
X-865810Y-430217D01*
X-866967Y-432565D01*
X-867916Y-435004D01*
X-868648Y-437516D01*
X-869159Y-440083D01*
X-869444Y-442685D01*
X-869502Y-445301D01*
X-869331Y-447913D01*
X-868933Y-450500D01*
X-868311Y-453042D01*
X-867470Y-455520D01*
X-866416Y-457916D01*
X-866020Y-458690D01*
X-110330Y-96130D02*
X-110292Y-97002D01*
X-110178Y-97866D01*
X-109989Y-98718D01*
X-109727Y-99550D01*
X-109393Y-100356D01*
X-108990Y-101130D01*
X-108522Y-101866D01*
X-107990Y-102558D01*
X-107401Y-103201D01*
X-106758Y-103790D01*
X-106066Y-104322D01*
X-105330Y-104790D01*
X-104556Y-105193D01*
X-103750Y-105527D01*
X-102918Y-105789D01*
X-102066Y-105978D01*
X-101202Y-106092D01*
X-100330Y-106130D01*
X-79880Y-106130D01*
X-76394Y-106282D01*
X-72934Y-106738D01*
X-69527Y-107493D01*
X-66199Y-108542D01*
X-62975Y-109878D01*
X-59880Y-111489D01*
X-56937Y-113364D01*
X-54169Y-115488D01*
X-51596Y-117846D01*
X-49238Y-120419D01*
X-47114Y-123187D01*
X-45239Y-126130D01*
X-43628Y-129225D01*
X-42292Y-132449D01*
X-41243Y-135777D01*
X-40488Y-139184D01*
X-40032Y-142644D01*
X-39880Y-146130D01*
X-39880Y-161530D01*
X-39842Y-162402D01*
X-39728Y-163266D01*
X-39539Y-164118D01*
X-39277Y-164950D01*
X-38943Y-165756D01*
X-38540Y-166530D01*
X-38072Y-167266D01*
X-37540Y-167958D01*
X-36951Y-168601D01*
X-36308Y-169190D01*
X-35616Y-169722D01*
X-34880Y-170190D01*
X-34106Y-170593D01*
X-33300Y-170927D01*
X-32468Y-171189D01*
X-31616Y-171378D01*
X-30752Y-171492D01*
X-29880Y-171530D01*
X119670Y-171530D01*
X120542Y-171492D01*
X121406Y-171378D01*
X122258Y-171189D01*
X123090Y-170927D01*
X123896Y-170593D01*
X124670Y-170190D01*
X125406Y-169722D01*
X126098Y-169190D01*
X126741Y-168601D01*
X127330Y-167958D01*
X127862Y-167266D01*
X128330Y-166530D01*
X128733Y-165756D01*
X129067Y-164950D01*
X129329Y-164118D01*
X129518Y-163266D01*
X129632Y-162402D01*
X129670Y-161530D01*
X129670Y95970D01*
X129632Y96842D01*
X129518Y97706D01*
X129329Y98558D01*
X129067Y99390D01*
X128733Y100196D01*
X128330Y100970D01*
X127862Y101706D01*
X127330Y102398D01*
X126741Y103041D01*
X126098Y103630D01*
X125406Y104162D01*
X124670Y104630D01*
X123896Y105033D01*
X123090Y105367D01*
X122258Y105629D01*
X121406Y105818D01*
X120542Y105932D01*
X119670Y105970D01*
X97920Y105970D01*
X94434Y106122D01*
X90974Y106578D01*
X87567Y107333D01*
X84239Y108382D01*
X81015Y109718D01*
X77920Y111329D01*
X74977Y113204D01*
X72209Y115328D01*
X69636Y117686D01*
X67278Y120259D01*
X65154Y123027D01*
X63279Y125970D01*
X61668Y129065D01*
X60332Y132289D01*
X59283Y135617D01*
X58528Y139024D01*
X58072Y142484D01*
X57920Y145970D01*
X57920Y164470D01*
X57882Y165342D01*
X57768Y166206D01*
X57579Y167058D01*
X57317Y167890D01*
X56983Y168696D01*
X56580Y169470D01*
X56112Y170206D01*
X55580Y170898D01*
X54991Y171541D01*
X54348Y172130D01*
X53656Y172662D01*
X52920Y173130D01*
X52146Y173533D01*
X51340Y173867D01*
X50508Y174129D01*
X49656Y174318D01*
X48792Y174432D01*
X47920Y174470D01*
X-29880Y174470D01*
X-30752Y174432D01*
X-31616Y174318D01*
X-32468Y174129D01*
X-33300Y173867D01*
X-34106Y173533D01*
X-34880Y173130D01*
X-35616Y172662D01*
X-36308Y172130D01*
X-36951Y171541D01*
X-37540Y170898D01*
X-38072Y170206D01*
X-38540Y169470D01*
X-38943Y168696D01*
X-39277Y167890D01*
X-39539Y167058D01*
X-39728Y166206D01*
X-39842Y165342D01*
X-39880Y164470D01*
X-39880Y145970D01*
X-40032Y142484D01*
X-40488Y139024D01*
X-41243Y135617D01*
X-42292Y132289D01*
X-43628Y129065D01*
X-45239Y125970D01*
X-47114Y123027D01*
X-49238Y120259D01*
X-51596Y117686D01*
X-54169Y115328D01*
X-56937Y113204D01*
X-59880Y111329D01*
X-62975Y109718D01*
X-66199Y108382D01*
X-69527Y107333D01*
X-72934Y106578D01*
X-76394Y106122D01*
X-79880Y105970D01*
X-100330Y105970D01*
X-101202Y105932D01*
X-102066Y105818D01*
X-102918Y105629D01*
X-103750Y105367D01*
X-104556Y105033D01*
X-105330Y104630D01*
X-106066Y104162D01*
X-106758Y103630D01*
X-107401Y103041D01*
X-107990Y102398D01*
X-108522Y101706D01*
X-108990Y100970D01*
X-109393Y100196D01*
X-109727Y99390D01*
X-109989Y98558D01*
X-110178Y97706D01*
X-110292Y96842D01*
X-110330Y95970D01*
X-110330Y-96130D01*
X-110330Y-96130D02*
X-110292Y-97002D01*
X-110178Y-97866D01*
X-109989Y-98718D01*
X-109727Y-99550D01*
X-109393Y-100356D01*
X-108990Y-101130D01*
X-108522Y-101866D01*
X-107990Y-102558D01*
X-107401Y-103201D01*
X-106758Y-103790D01*
X-106066Y-104322D01*
X-105330Y-104790D01*
X-104556Y-105193D01*
X-103750Y-105527D01*
X-102918Y-105789D01*
X-102066Y-105978D01*
X-101202Y-106092D01*
X-100330Y-106130D01*
X-79880Y-106130D01*
X-76394Y-106282D01*
X-72934Y-106738D01*
X-69527Y-107493D01*
X-66199Y-108542D01*
X-62975Y-109878D01*
X-59880Y-111489D01*
X-56937Y-113364D01*
X-54169Y-115488D01*
X-51596Y-117846D01*
X-49238Y-120419D01*
X-47114Y-123187D01*
X-45239Y-126130D01*
X-43628Y-129225D01*
X-42292Y-132449D01*
X-41243Y-135777D01*
X-40488Y-139184D01*
X-40032Y-142644D01*
X-39880Y-146130D01*
X-39880Y-161530D01*
X-39842Y-162402D01*
X-39728Y-163266D01*
X-39539Y-164118D01*
X-39277Y-164950D01*
X-38943Y-165756D01*
X-38540Y-166530D01*
X-38072Y-167266D01*
X-37540Y-167958D01*
X-36951Y-168601D01*
X-36308Y-169190D01*
X-35616Y-169722D01*
X-34880Y-170190D01*
X-34106Y-170593D01*
X-33300Y-170927D01*
X-32468Y-171189D01*
X-31616Y-171378D01*
X-30752Y-171492D01*
X-29880Y-171530D01*
X119670Y-171530D01*
X120542Y-171492D01*
X121406Y-171378D01*
X122258Y-171189D01*
X123090Y-170927D01*
X123896Y-170593D01*
X124670Y-170190D01*
X125406Y-169722D01*
X126098Y-169190D01*
X126741Y-168601D01*
X127330Y-167958D01*
X127862Y-167266D01*
X128330Y-166530D01*
X128733Y-165756D01*
X129067Y-164950D01*
X129329Y-164118D01*
X129518Y-163266D01*
X129632Y-162402D01*
X129670Y-161530D01*
X129670Y95970D01*
X129632Y96842D01*
X129518Y97706D01*
X129329Y98558D01*
X129067Y99390D01*
X128733Y100196D01*
X128330Y100970D01*
X127862Y101706D01*
X127330Y102398D01*
X126741Y103041D01*
X126098Y103630D01*
X125406Y104162D01*
X124670Y104630D01*
X123896Y105033D01*
X123090Y105367D01*
X122258Y105629D01*
X121406Y105818D01*
X120542Y105932D01*
X119670Y105970D01*
X97920Y105970D01*
X94434Y106122D01*
X90974Y106578D01*
X87567Y107333D01*
X84239Y108382D01*
X81015Y109718D01*
X77920Y111329D01*
X74977Y113204D01*
X72209Y115328D01*
X69636Y117686D01*
X67278Y120259D01*
X65154Y123027D01*
X63279Y125970D01*
X61668Y129065D01*
X60332Y132289D01*
X59283Y135617D01*
X58528Y139024D01*
X58072Y142484D01*
X57920Y145970D01*
X57920Y164470D01*
X57882Y165342D01*
X57768Y166206D01*
X57579Y167058D01*
X57317Y167890D01*
X56983Y168696D01*
X56580Y169470D01*
X56112Y170206D01*
X55580Y170898D01*
X54991Y171541D01*
X54348Y172130D01*
X53656Y172662D01*
X52920Y173130D01*
X52146Y173533D01*
X51340Y173867D01*
X50508Y174129D01*
X49656Y174318D01*
X48792Y174432D01*
X47920Y174470D01*
X-29880Y174470D01*
X-30752Y174432D01*
X-31616Y174318D01*
X-32468Y174129D01*
X-33300Y173867D01*
X-34106Y173533D01*
X-34880Y173130D01*
X-35616Y172662D01*
X-36308Y172130D01*
X-36951Y171541D01*
X-37540Y170898D01*
X-38072Y170206D01*
X-38540Y169470D01*
X-38943Y168696D01*
X-39277Y167890D01*
X-39539Y167058D01*
X-39728Y166206D01*
X-39842Y165342D01*
X-39880Y164470D01*
X-39880Y145970D01*
X-40032Y142484D01*
X-40488Y139024D01*
X-41243Y135617D01*
X-42292Y132289D01*
X-43628Y129065D01*
X-45239Y125970D01*
X-47114Y123027D01*
X-49238Y120259D01*
X-51596Y117686D01*
X-54169Y115328D01*
X-56937Y113204D01*
X-59880Y111329D01*
X-62975Y109718D01*
X-66199Y108382D01*
X-69527Y107333D01*
X-72934Y106578D01*
X-76394Y106122D01*
X-79880Y105970D01*
X-100330Y105970D01*
X-101202Y105932D01*
X-102066Y105818D01*
X-102918Y105629D01*
X-103750Y105367D01*
X-104556Y105033D01*
X-105330Y104630D01*
X-106066Y104162D01*
X-106758Y103630D01*
X-107401Y103041D01*
X-107990Y102398D01*
X-108522Y101706D01*
X-108990Y100970D01*
X-109393Y100196D01*
X-109727Y99390D01*
X-109989Y98558D01*
X-110178Y97706D01*
X-110292Y96842D01*
X-110330Y95970D01*
X-110330Y-96130D01*
X824070Y458044D02*
X824070Y459116D01*
X823994Y460184D01*
X823841Y461245D01*
X823613Y462292D01*
X823311Y463320D01*
X822937Y464324D01*
X822492Y465299D01*
X821978Y466239D01*
X821399Y467140D01*
X820757Y467998D01*
X820055Y468808D01*
X819298Y469565D01*
X818488Y470267D01*
X817630Y470909D01*
X816729Y471488D01*
X815789Y472002D01*
X814814Y472447D01*
X813810Y472821D01*
X812782Y473123D01*
X811735Y473351D01*
X810674Y473504D01*
X809606Y473580D01*
X808534Y473580D01*
X807466Y473504D01*
X806405Y473351D01*
X805358Y473123D01*
X804330Y472821D01*
X803326Y472447D01*
X802351Y472002D01*
X801411Y471488D01*
X800510Y470909D01*
X799652Y470267D01*
X798842Y469565D01*
X798085Y468808D01*
X797383Y467998D01*
X796741Y467140D01*
X796162Y466239D01*
X795648Y465299D01*
X795203Y464324D01*
X794829Y463320D01*
X794527Y462292D01*
X794299Y461245D01*
X794146Y460184D01*
X794070Y459116D01*
X794070Y458044D01*
X794146Y456976D01*
X794299Y455915D01*
X794527Y454868D01*
X794829Y453840D01*
X795203Y452836D01*
X795648Y451861D01*
X796162Y450921D01*
X796741Y450020D01*
X797383Y449162D01*
X798085Y448352D01*
X798842Y447595D01*
X799652Y446893D01*
X800510Y446251D01*
X801411Y445672D01*
X802351Y445158D01*
X803326Y444713D01*
X804330Y444339D01*
X805358Y444037D01*
X806405Y443809D01*
X807466Y443656D01*
X808534Y443580D01*
X809606Y443580D01*
X810674Y443656D01*
X811735Y443809D01*
X812782Y444037D01*
X813810Y444339D01*
X814814Y444713D01*
X815789Y445158D01*
X816729Y445672D01*
X817630Y446251D01*
X818488Y446893D01*
X819298Y447595D01*
X820055Y448352D01*
X820757Y449162D01*
X821399Y450020D01*
X821978Y450921D01*
X822492Y451861D01*
X822937Y452836D01*
X823311Y453840D01*
X823613Y454868D01*
X823841Y455915D01*
X823994Y456976D01*
X824070Y458044D01*
X-794070Y458044D02*
X-794146Y456976D01*
X-794299Y455915D01*
X-794527Y454868D01*
X-794829Y453840D01*
X-795203Y452836D01*
X-795648Y451861D01*
X-796162Y450921D01*
X-796741Y450020D01*
X-797383Y449162D01*
X-798085Y448352D01*
X-798842Y447595D01*
X-799652Y446893D01*
X-800510Y446251D01*
X-801411Y445672D01*
X-802351Y445158D01*
X-803326Y444713D01*
X-804330Y444339D01*
X-805358Y444037D01*
X-806405Y443809D01*
X-807466Y443656D01*
X-808534Y443580D01*
X-809606Y443580D01*
X-810674Y443656D01*
X-811735Y443809D01*
X-812782Y444037D01*
X-813810Y444339D01*
X-814814Y444713D01*
X-815789Y445158D01*
X-816729Y445672D01*
X-817630Y446251D01*
X-818488Y446893D01*
X-819298Y447595D01*
X-820055Y448352D01*
X-820757Y449162D01*
X-821399Y450020D01*
X-821978Y450921D01*
X-822492Y451861D01*
X-822937Y452836D01*
X-823311Y453840D01*
X-823613Y454868D01*
X-823841Y455915D01*
X-823994Y456976D01*
X-824070Y458044D01*
X-824070Y459116D01*
X-823994Y460184D01*
X-823841Y461245D01*
X-823613Y462292D01*
X-823311Y463320D01*
X-822937Y464324D01*
X-822492Y465299D01*
X-821978Y466239D01*
X-821399Y467140D01*
X-820757Y467998D01*
X-820055Y468808D01*
X-819298Y469565D01*
X-818488Y470267D01*
X-817630Y470909D01*
X-816729Y471488D01*
X-815789Y472002D01*
X-814814Y472447D01*
X-813810Y472821D01*
X-812782Y473123D01*
X-811735Y473351D01*
X-810674Y473504D01*
X-809606Y473580D01*
X-808534Y473580D01*
X-807466Y473504D01*
X-806405Y473351D01*
X-805358Y473123D01*
X-804330Y472821D01*
X-803326Y472447D01*
X-802351Y472002D01*
X-801411Y471488D01*
X-800510Y470909D01*
X-799652Y470267D01*
X-798842Y469565D01*
X-798085Y468808D01*
X-797383Y467998D01*
X-796741Y467140D01*
X-796162Y466239D01*
X-795648Y465299D01*
X-795203Y464324D01*
X-794829Y463320D01*
X-794527Y462292D01*
X-794299Y461245D01*
X-794146Y460184D01*
X-794070Y459116D01*
X-794070Y458044D01*
X-794070Y-459116D02*
X-794146Y-460184D01*
X-794299Y-461245D01*
X-794527Y-462292D01*
X-794829Y-463320D01*
X-795203Y-464324D01*
X-795648Y-465299D01*
X-796162Y-466239D01*
X-796741Y-467140D01*
X-797383Y-467998D01*
X-798085Y-468808D01*
X-798842Y-469565D01*
X-799652Y-470267D01*
X-800510Y-470909D01*
X-801411Y-471488D01*
X-802351Y-472002D01*
X-803326Y-472447D01*
X-804330Y-472821D01*
X-805358Y-473123D01*
X-806405Y-473351D01*
X-807466Y-473504D01*
X-808534Y-473580D01*
X-809606Y-473580D01*
X-810674Y-473504D01*
X-811735Y-473351D01*
X-812782Y-473123D01*
X-813810Y-472821D01*
X-814814Y-472447D01*
X-815789Y-472002D01*
X-816729Y-471488D01*
X-817630Y-470909D01*
X-818488Y-470267D01*
X-819298Y-469565D01*
X-820055Y-468808D01*
X-820757Y-467998D01*
X-821399Y-467140D01*
X-821978Y-466239D01*
X-822492Y-465299D01*
X-822937Y-464324D01*
X-823311Y-463320D01*
X-823613Y-462292D01*
X-823841Y-461245D01*
X-823994Y-460184D01*
X-824070Y-459116D01*
X-824070Y-458044D01*
X-823994Y-456976D01*
X-823841Y-455915D01*
X-823613Y-454868D01*
X-823311Y-453840D01*
X-822937Y-452836D01*
X-822492Y-451861D01*
X-821978Y-450921D01*
X-821399Y-450020D01*
X-820757Y-449162D01*
X-820055Y-448352D01*
X-819298Y-447595D01*
X-818488Y-446893D01*
X-817630Y-446251D01*
X-816729Y-445672D01*
X-815789Y-445158D01*
X-814814Y-444713D01*
X-813810Y-444339D01*
X-812782Y-444037D01*
X-811735Y-443809D01*
X-810674Y-443656D01*
X-809606Y-443580D01*
X-808534Y-443580D01*
X-807466Y-443656D01*
X-806405Y-443809D01*
X-805358Y-444037D01*
X-804330Y-444339D01*
X-803326Y-444713D01*
X-802351Y-445158D01*
X-801411Y-445672D01*
X-800510Y-446251D01*
X-799652Y-446893D01*
X-798842Y-447595D01*
X-798085Y-448352D01*
X-797383Y-449162D01*
X-796741Y-450020D01*
X-796162Y-450921D01*
X-795648Y-451861D01*
X-795203Y-452836D01*
X-794829Y-453840D01*
X-794527Y-454868D01*
X-794299Y-455915D01*
X-794146Y-456976D01*
X-794070Y-458044D01*
X-794070Y-459116D01*
X-388040Y-346496D02*
X-388116Y-347564D01*
X-388269Y-348625D01*
X-388497Y-349672D01*
X-388799Y-350700D01*
X-389173Y-351704D01*
X-389618Y-352679D01*
X-390132Y-353619D01*
X-390711Y-354520D01*
X-391353Y-355378D01*
X-392055Y-356188D01*
X-392812Y-356945D01*
X-393622Y-357647D01*
X-394480Y-358289D01*
X-395381Y-358868D01*
X-396321Y-359382D01*
X-397296Y-359827D01*
X-398300Y-360201D01*
X-399328Y-360503D01*
X-400375Y-360731D01*
X-401436Y-360884D01*
X-402504Y-360960D01*
X-403576Y-360960D01*
X-404644Y-360884D01*
X-405705Y-360731D01*
X-406752Y-360503D01*
X-407780Y-360201D01*
X-408784Y-359827D01*
X-409759Y-359382D01*
X-410699Y-358868D01*
X-411600Y-358289D01*
X-412458Y-357647D01*
X-413268Y-356945D01*
X-414025Y-356188D01*
X-414727Y-355378D01*
X-415369Y-354520D01*
X-415948Y-353619D01*
X-416462Y-352679D01*
X-416907Y-351704D01*
X-417281Y-350700D01*
X-417583Y-349672D01*
X-417811Y-348625D01*
X-417964Y-347564D01*
X-418040Y-346496D01*
X-418040Y-345424D01*
X-417964Y-344356D01*
X-417811Y-343295D01*
X-417583Y-342248D01*
X-417281Y-341220D01*
X-416907Y-340216D01*
X-416462Y-339241D01*
X-415948Y-338301D01*
X-415369Y-337400D01*
X-414727Y-336542D01*
X-414025Y-335732D01*
X-413268Y-334975D01*
X-412458Y-334273D01*
X-411600Y-333631D01*
X-410699Y-333052D01*
X-409759Y-332538D01*
X-408784Y-332093D01*
X-407780Y-331719D01*
X-406752Y-331417D01*
X-405705Y-331189D01*
X-404644Y-331036D01*
X-403576Y-330960D01*
X-402504Y-330960D01*
X-401436Y-331036D01*
X-400375Y-331189D01*
X-399328Y-331417D01*
X-398300Y-331719D01*
X-397296Y-332093D01*
X-396321Y-332538D01*
X-395381Y-333052D01*
X-394480Y-333631D01*
X-393622Y-334273D01*
X-392812Y-334975D01*
X-392055Y-335732D01*
X-391353Y-336542D01*
X-390711Y-337400D01*
X-390132Y-338301D01*
X-389618Y-339241D01*
X-389173Y-340216D01*
X-388799Y-341220D01*
X-388497Y-342248D01*
X-388269Y-343295D01*
X-388116Y-344356D01*
X-388040Y-345424D01*
X-388040Y-346496D01*
X-456920Y-95536D02*
X-456996Y-96604D01*
X-457149Y-97665D01*
X-457377Y-98712D01*
X-457679Y-99740D01*
X-458053Y-100744D01*
X-458498Y-101719D01*
X-459012Y-102659D01*
X-459591Y-103560D01*
X-460233Y-104418D01*
X-460935Y-105228D01*
X-461692Y-105985D01*
X-462502Y-106687D01*
X-463360Y-107329D01*
X-464261Y-107908D01*
X-465201Y-108422D01*
X-466176Y-108867D01*
X-467180Y-109241D01*
X-468208Y-109543D01*
X-469255Y-109771D01*
X-470316Y-109924D01*
X-471384Y-110000D01*
X-472456Y-110000D01*
X-473524Y-109924D01*
X-474585Y-109771D01*
X-475632Y-109543D01*
X-476660Y-109241D01*
X-477664Y-108867D01*
X-478639Y-108422D01*
X-479579Y-107908D01*
X-480480Y-107329D01*
X-481338Y-106687D01*
X-482148Y-105985D01*
X-482905Y-105228D01*
X-483607Y-104418D01*
X-484249Y-103560D01*
X-484828Y-102659D01*
X-485342Y-101719D01*
X-485787Y-100744D01*
X-486161Y-99740D01*
X-486463Y-98712D01*
X-486691Y-97665D01*
X-486844Y-96604D01*
X-486920Y-95536D01*
X-486920Y-94464D01*
X-486844Y-93396D01*
X-486691Y-92335D01*
X-486463Y-91288D01*
X-486161Y-90260D01*
X-485787Y-89256D01*
X-485342Y-88281D01*
X-484828Y-87341D01*
X-484249Y-86440D01*
X-483607Y-85582D01*
X-482905Y-84772D01*
X-482148Y-84015D01*
X-481338Y-83313D01*
X-480480Y-82671D01*
X-479579Y-82092D01*
X-478639Y-81578D01*
X-477664Y-81133D01*
X-476660Y-80759D01*
X-475632Y-80457D01*
X-474585Y-80229D01*
X-473524Y-80076D01*
X-472456Y-80000D01*
X-471384Y-80000D01*
X-470316Y-80076D01*
X-469255Y-80229D01*
X-468208Y-80457D01*
X-467180Y-80759D01*
X-466176Y-81133D01*
X-465201Y-81578D01*
X-464261Y-82092D01*
X-463360Y-82671D01*
X-462502Y-83313D01*
X-461692Y-84015D01*
X-460935Y-84772D01*
X-460233Y-85582D01*
X-459591Y-86440D01*
X-459012Y-87341D01*
X-458498Y-88281D01*
X-458053Y-89256D01*
X-457679Y-90260D01*
X-457377Y-91288D01*
X-457149Y-92335D01*
X-456996Y-93396D01*
X-456920Y-94464D01*
X-456920Y-95536D01*
X-276920Y-95536D02*
X-276996Y-96604D01*
X-277149Y-97665D01*
X-277377Y-98712D01*
X-277679Y-99740D01*
X-278053Y-100744D01*
X-278498Y-101719D01*
X-279012Y-102659D01*
X-279591Y-103560D01*
X-280233Y-104418D01*
X-280935Y-105228D01*
X-281692Y-105985D01*
X-282502Y-106687D01*
X-283360Y-107329D01*
X-284261Y-107908D01*
X-285201Y-108422D01*
X-286176Y-108867D01*
X-287180Y-109241D01*
X-288208Y-109543D01*
X-289255Y-109771D01*
X-290316Y-109924D01*
X-291384Y-110000D01*
X-292456Y-110000D01*
X-293524Y-109924D01*
X-294585Y-109771D01*
X-295632Y-109543D01*
X-296660Y-109241D01*
X-297664Y-108867D01*
X-298639Y-108422D01*
X-299579Y-107908D01*
X-300480Y-107329D01*
X-301338Y-106687D01*
X-302148Y-105985D01*
X-302905Y-105228D01*
X-303607Y-104418D01*
X-304249Y-103560D01*
X-304828Y-102659D01*
X-305342Y-101719D01*
X-305787Y-100744D01*
X-306161Y-99740D01*
X-306463Y-98712D01*
X-306691Y-97665D01*
X-306844Y-96604D01*
X-306920Y-95536D01*
X-306920Y-94464D01*
X-306844Y-93396D01*
X-306691Y-92335D01*
X-306463Y-91288D01*
X-306161Y-90260D01*
X-305787Y-89256D01*
X-305342Y-88281D01*
X-304828Y-87341D01*
X-304249Y-86440D01*
X-303607Y-85582D01*
X-302905Y-84772D01*
X-302148Y-84015D01*
X-301338Y-83313D01*
X-300480Y-82671D01*
X-299579Y-82092D01*
X-298639Y-81578D01*
X-297664Y-81133D01*
X-296660Y-80759D01*
X-295632Y-80457D01*
X-294585Y-80229D01*
X-293524Y-80076D01*
X-292456Y-80000D01*
X-291384Y-80000D01*
X-290316Y-80076D01*
X-289255Y-80229D01*
X-288208Y-80457D01*
X-287180Y-80759D01*
X-286176Y-81133D01*
X-285201Y-81578D01*
X-284261Y-82092D01*
X-283360Y-82671D01*
X-282502Y-83313D01*
X-281692Y-84015D01*
X-280935Y-84772D01*
X-280233Y-85582D01*
X-279591Y-86440D01*
X-279012Y-87341D01*
X-278498Y-88281D01*
X-278053Y-89256D01*
X-277679Y-90260D01*
X-277377Y-91288D01*
X-277149Y-92335D01*
X-276996Y-93396D01*
X-276920Y-94464D01*
X-276920Y-95536D01*
X-276920Y94464D02*
X-276996Y93396D01*
X-277149Y92335D01*
X-277377Y91288D01*
X-277679Y90260D01*
X-278053Y89256D01*
X-278498Y88281D01*
X-279012Y87341D01*
X-279591Y86440D01*
X-280233Y85582D01*
X-280935Y84772D01*
X-281692Y84015D01*
X-282502Y83313D01*
X-283360Y82671D01*
X-284261Y82092D01*
X-285201Y81578D01*
X-286176Y81133D01*
X-287180Y80759D01*
X-288208Y80457D01*
X-289255Y80229D01*
X-290316Y80076D01*
X-291384Y80000D01*
X-292456Y80000D01*
X-293524Y80076D01*
X-294585Y80229D01*
X-295632Y80457D01*
X-296660Y80759D01*
X-297664Y81133D01*
X-298639Y81578D01*
X-299579Y82092D01*
X-300480Y82671D01*
X-301338Y83313D01*
X-302148Y84015D01*
X-302905Y84772D01*
X-303607Y85582D01*
X-304249Y86440D01*
X-304828Y87341D01*
X-305342Y88281D01*
X-305787Y89256D01*
X-306161Y90260D01*
X-306463Y91288D01*
X-306691Y92335D01*
X-306844Y93396D01*
X-306920Y94464D01*
X-306920Y95536D01*
X-306844Y96604D01*
X-306691Y97665D01*
X-306463Y98712D01*
X-306161Y99740D01*
X-305787Y100744D01*
X-305342Y101719D01*
X-304828Y102659D01*
X-304249Y103560D01*
X-303607Y104418D01*
X-302905Y105228D01*
X-302148Y105985D01*
X-301338Y106687D01*
X-300480Y107329D01*
X-299579Y107908D01*
X-298639Y108422D01*
X-297664Y108867D01*
X-296660Y109241D01*
X-295632Y109543D01*
X-294585Y109771D01*
X-293524Y109924D01*
X-292456Y110000D01*
X-291384Y110000D01*
X-290316Y109924D01*
X-289255Y109771D01*
X-288208Y109543D01*
X-287180Y109241D01*
X-286176Y108867D01*
X-285201Y108422D01*
X-284261Y107908D01*
X-283360Y107329D01*
X-282502Y106687D01*
X-281692Y105985D01*
X-280935Y105228D01*
X-280233Y104418D01*
X-279591Y103560D01*
X-279012Y102659D01*
X-278498Y101719D01*
X-278053Y100744D01*
X-277679Y99740D01*
X-277377Y98712D01*
X-277149Y97665D01*
X-276996Y96604D01*
X-276920Y95536D01*
X-276920Y94464D01*
X-456920Y94464D02*
X-456996Y93396D01*
X-457149Y92335D01*
X-457377Y91288D01*
X-457679Y90260D01*
X-458053Y89256D01*
X-458498Y88281D01*
X-459012Y87341D01*
X-459591Y86440D01*
X-460233Y85582D01*
X-460935Y84772D01*
X-461692Y84015D01*
X-462502Y83313D01*
X-463360Y82671D01*
X-464261Y82092D01*
X-465201Y81578D01*
X-466176Y81133D01*
X-467180Y80759D01*
X-468208Y80457D01*
X-469255Y80229D01*
X-470316Y80076D01*
X-471384Y80000D01*
X-472456Y80000D01*
X-473524Y80076D01*
X-474585Y80229D01*
X-475632Y80457D01*
X-476660Y80759D01*
X-477664Y81133D01*
X-478639Y81578D01*
X-479579Y82092D01*
X-480480Y82671D01*
X-481338Y83313D01*
X-482148Y84015D01*
X-482905Y84772D01*
X-483607Y85582D01*
X-484249Y86440D01*
X-484828Y87341D01*
X-485342Y88281D01*
X-485787Y89256D01*
X-486161Y90260D01*
X-486463Y91288D01*
X-486691Y92335D01*
X-486844Y93396D01*
X-486920Y94464D01*
X-486920Y95536D01*
X-486844Y96604D01*
X-486691Y97665D01*
X-486463Y98712D01*
X-486161Y99740D01*
X-485787Y100744D01*
X-485342Y101719D01*
X-484828Y102659D01*
X-484249Y103560D01*
X-483607Y104418D01*
X-482905Y105228D01*
X-482148Y105985D01*
X-481338Y106687D01*
X-480480Y107329D01*
X-479579Y107908D01*
X-478639Y108422D01*
X-477664Y108867D01*
X-476660Y109241D01*
X-475632Y109543D01*
X-474585Y109771D01*
X-473524Y109924D01*
X-472456Y110000D01*
X-471384Y110000D01*
X-470316Y109924D01*
X-469255Y109771D01*
X-468208Y109543D01*
X-467180Y109241D01*
X-466176Y108867D01*
X-465201Y108422D01*
X-464261Y107908D01*
X-463360Y107329D01*
X-462502Y106687D01*
X-461692Y105985D01*
X-460935Y105228D01*
X-460233Y104418D01*
X-459591Y103560D01*
X-459012Y102659D01*
X-458498Y101719D01*
X-458053Y100744D01*
X-457679Y99740D01*
X-457377Y98712D01*
X-457149Y97665D01*
X-456996Y96604D01*
X-456920Y95536D01*
X-456920Y94464D01*
X-64880Y145434D02*
X-64956Y144366D01*
X-65109Y143305D01*
X-65337Y142258D01*
X-65639Y141230D01*
X-66013Y140226D01*
X-66458Y139251D01*
X-66972Y138311D01*
X-67551Y137410D01*
X-68193Y136552D01*
X-68895Y135742D01*
X-69652Y134985D01*
X-70462Y134283D01*
X-71320Y133641D01*
X-72221Y133062D01*
X-73161Y132548D01*
X-74136Y132103D01*
X-75140Y131729D01*
X-76168Y131427D01*
X-77215Y131199D01*
X-78276Y131046D01*
X-79344Y130970D01*
X-80416Y130970D01*
X-81484Y131046D01*
X-82545Y131199D01*
X-83592Y131427D01*
X-84620Y131729D01*
X-85624Y132103D01*
X-86599Y132548D01*
X-87539Y133062D01*
X-88440Y133641D01*
X-89298Y134283D01*
X-90108Y134985D01*
X-90865Y135742D01*
X-91567Y136552D01*
X-92209Y137410D01*
X-92788Y138311D01*
X-93302Y139251D01*
X-93747Y140226D01*
X-94121Y141230D01*
X-94423Y142258D01*
X-94651Y143305D01*
X-94804Y144366D01*
X-94880Y145434D01*
X-94880Y146506D01*
X-94804Y147574D01*
X-94651Y148635D01*
X-94423Y149682D01*
X-94121Y150710D01*
X-93747Y151714D01*
X-93302Y152689D01*
X-92788Y153629D01*
X-92209Y154530D01*
X-91567Y155388D01*
X-90865Y156198D01*
X-90108Y156955D01*
X-89298Y157657D01*
X-88440Y158299D01*
X-87539Y158878D01*
X-86599Y159392D01*
X-85624Y159837D01*
X-84620Y160211D01*
X-83592Y160513D01*
X-82545Y160741D01*
X-81484Y160894D01*
X-80416Y160970D01*
X-79344Y160970D01*
X-78276Y160894D01*
X-77215Y160741D01*
X-76168Y160513D01*
X-75140Y160211D01*
X-74136Y159837D01*
X-73161Y159392D01*
X-72221Y158878D01*
X-71320Y158299D01*
X-70462Y157657D01*
X-69652Y156955D01*
X-68895Y156198D01*
X-68193Y155388D01*
X-67551Y154530D01*
X-66972Y153629D01*
X-66458Y152689D01*
X-66013Y151714D01*
X-65639Y150710D01*
X-65337Y149682D01*
X-65109Y148635D01*
X-64956Y147574D01*
X-64880Y146506D01*
X-64880Y145434D01*
X-64880Y-146666D02*
X-64956Y-147734D01*
X-65109Y-148795D01*
X-65337Y-149842D01*
X-65639Y-150870D01*
X-66013Y-151874D01*
X-66458Y-152849D01*
X-66972Y-153789D01*
X-67551Y-154690D01*
X-68193Y-155548D01*
X-68895Y-156358D01*
X-69652Y-157115D01*
X-70462Y-157817D01*
X-71320Y-158459D01*
X-72221Y-159038D01*
X-73161Y-159552D01*
X-74136Y-159997D01*
X-75140Y-160371D01*
X-76168Y-160673D01*
X-77215Y-160901D01*
X-78276Y-161054D01*
X-79344Y-161130D01*
X-80416Y-161130D01*
X-81484Y-161054D01*
X-82545Y-160901D01*
X-83592Y-160673D01*
X-84620Y-160371D01*
X-85624Y-159997D01*
X-86599Y-159552D01*
X-87539Y-159038D01*
X-88440Y-158459D01*
X-89298Y-157817D01*
X-90108Y-157115D01*
X-90865Y-156358D01*
X-91567Y-155548D01*
X-92209Y-154690D01*
X-92788Y-153789D01*
X-93302Y-152849D01*
X-93747Y-151874D01*
X-94121Y-150870D01*
X-94423Y-149842D01*
X-94651Y-148795D01*
X-94804Y-147734D01*
X-94880Y-146666D01*
X-94880Y-145594D01*
X-94804Y-144526D01*
X-94651Y-143465D01*
X-94423Y-142418D01*
X-94121Y-141390D01*
X-93747Y-140386D01*
X-93302Y-139411D01*
X-92788Y-138471D01*
X-92209Y-137570D01*
X-91567Y-136712D01*
X-90865Y-135902D01*
X-90108Y-135145D01*
X-89298Y-134443D01*
X-88440Y-133801D01*
X-87539Y-133222D01*
X-86599Y-132708D01*
X-85624Y-132263D01*
X-84620Y-131889D01*
X-83592Y-131587D01*
X-82545Y-131359D01*
X-81484Y-131206D01*
X-80416Y-131130D01*
X-79344Y-131130D01*
X-78276Y-131206D01*
X-77215Y-131359D01*
X-76168Y-131587D01*
X-75140Y-131889D01*
X-74136Y-132263D01*
X-73161Y-132708D01*
X-72221Y-133222D01*
X-71320Y-133801D01*
X-70462Y-134443D01*
X-69652Y-135145D01*
X-68895Y-135902D01*
X-68193Y-136712D01*
X-67551Y-137570D01*
X-66972Y-138471D01*
X-66458Y-139411D01*
X-66013Y-140386D01*
X-65639Y-141390D01*
X-65337Y-142418D01*
X-65109Y-143465D01*
X-64956Y-144526D01*
X-64880Y-145594D01*
X-64880Y-146666D01*
X112920Y145434D02*
X112844Y144366D01*
X112691Y143305D01*
X112463Y142258D01*
X112161Y141230D01*
X111787Y140226D01*
X111342Y139251D01*
X110828Y138311D01*
X110249Y137410D01*
X109607Y136552D01*
X108905Y135742D01*
X108148Y134985D01*
X107338Y134283D01*
X106480Y133641D01*
X105579Y133062D01*
X104639Y132548D01*
X103664Y132103D01*
X102660Y131729D01*
X101632Y131427D01*
X100585Y131199D01*
X99524Y131046D01*
X98456Y130970D01*
X97384Y130970D01*
X96316Y131046D01*
X95255Y131199D01*
X94208Y131427D01*
X93180Y131729D01*
X92176Y132103D01*
X91201Y132548D01*
X90261Y133062D01*
X89360Y133641D01*
X88502Y134283D01*
X87692Y134985D01*
X86935Y135742D01*
X86233Y136552D01*
X85591Y137410D01*
X85012Y138311D01*
X84498Y139251D01*
X84053Y140226D01*
X83679Y141230D01*
X83377Y142258D01*
X83149Y143305D01*
X82996Y144366D01*
X82920Y145434D01*
X82920Y146506D01*
X82996Y147574D01*
X83149Y148635D01*
X83377Y149682D01*
X83679Y150710D01*
X84053Y151714D01*
X84498Y152689D01*
X85012Y153629D01*
X85591Y154530D01*
X86233Y155388D01*
X86935Y156198D01*
X87692Y156955D01*
X88502Y157657D01*
X89360Y158299D01*
X90261Y158878D01*
X91201Y159392D01*
X92176Y159837D01*
X93180Y160211D01*
X94208Y160513D01*
X95255Y160741D01*
X96316Y160894D01*
X97384Y160970D01*
X98456Y160970D01*
X99524Y160894D01*
X100585Y160741D01*
X101632Y160513D01*
X102660Y160211D01*
X103664Y159837D01*
X104639Y159392D01*
X105579Y158878D01*
X106480Y158299D01*
X107338Y157657D01*
X108148Y156955D01*
X108905Y156198D01*
X109607Y155388D01*
X110249Y154530D01*
X110828Y153629D01*
X111342Y152689D01*
X111787Y151714D01*
X112161Y150710D01*
X112463Y149682D01*
X112691Y148635D01*
X112844Y147574D01*
X112920Y146506D01*
X112920Y145434D01*
X-388040Y345424D02*
X-388116Y344356D01*
X-388269Y343295D01*
X-388497Y342248D01*
X-388799Y341220D01*
X-389173Y340216D01*
X-389618Y339241D01*
X-390132Y338301D01*
X-390711Y337400D01*
X-391353Y336542D01*
X-392055Y335732D01*
X-392812Y334975D01*
X-393622Y334273D01*
X-394480Y333631D01*
X-395381Y333052D01*
X-396321Y332538D01*
X-397296Y332093D01*
X-398300Y331719D01*
X-399328Y331417D01*
X-400375Y331189D01*
X-401436Y331036D01*
X-402504Y330960D01*
X-403576Y330960D01*
X-404644Y331036D01*
X-405705Y331189D01*
X-406752Y331417D01*
X-407780Y331719D01*
X-408784Y332093D01*
X-409759Y332538D01*
X-410699Y333052D01*
X-411600Y333631D01*
X-412458Y334273D01*
X-413268Y334975D01*
X-414025Y335732D01*
X-414727Y336542D01*
X-415369Y337400D01*
X-415948Y338301D01*
X-416462Y339241D01*
X-416907Y340216D01*
X-417281Y341220D01*
X-417583Y342248D01*
X-417811Y343295D01*
X-417964Y344356D01*
X-418040Y345424D01*
X-418040Y346496D01*
X-417964Y347564D01*
X-417811Y348625D01*
X-417583Y349672D01*
X-417281Y350700D01*
X-416907Y351704D01*
X-416462Y352679D01*
X-415948Y353619D01*
X-415369Y354520D01*
X-414727Y355378D01*
X-414025Y356188D01*
X-413268Y356945D01*
X-412458Y357647D01*
X-411600Y358289D01*
X-410699Y358868D01*
X-409759Y359382D01*
X-408784Y359827D01*
X-407780Y360201D01*
X-406752Y360503D01*
X-405705Y360731D01*
X-404644Y360884D01*
X-403576Y360960D01*
X-402504Y360960D01*
X-401436Y360884D01*
X-400375Y360731D01*
X-399328Y360503D01*
X-398300Y360201D01*
X-397296Y359827D01*
X-396321Y359382D01*
X-395381Y358868D01*
X-394480Y358289D01*
X-393622Y357647D01*
X-392812Y356945D01*
X-392055Y356188D01*
X-391353Y355378D01*
X-390711Y354520D01*
X-390132Y353619D01*
X-389618Y352679D01*
X-389173Y351704D01*
X-388799Y350700D01*
X-388497Y349672D01*
X-388269Y348625D01*
X-388116Y347564D01*
X-388040Y346496D01*
X-388040Y345424D01*
X-190050Y543414D02*
X-190126Y542346D01*
X-190279Y541285D01*
X-190507Y540238D01*
X-190809Y539210D01*
X-191183Y538206D01*
X-191628Y537231D01*
X-192142Y536291D01*
X-192721Y535390D01*
X-193363Y534532D01*
X-194065Y533722D01*
X-194822Y532965D01*
X-195632Y532263D01*
X-196490Y531621D01*
X-197391Y531042D01*
X-198331Y530528D01*
X-199306Y530083D01*
X-200310Y529709D01*
X-201338Y529407D01*
X-202385Y529179D01*
X-203446Y529026D01*
X-204514Y528950D01*
X-205586Y528950D01*
X-206654Y529026D01*
X-207715Y529179D01*
X-208762Y529407D01*
X-209790Y529709D01*
X-210794Y530083D01*
X-211769Y530528D01*
X-212709Y531042D01*
X-213610Y531621D01*
X-214468Y532263D01*
X-215278Y532965D01*
X-216035Y533722D01*
X-216737Y534532D01*
X-217379Y535390D01*
X-217958Y536291D01*
X-218472Y537231D01*
X-218917Y538206D01*
X-219291Y539210D01*
X-219593Y540238D01*
X-219821Y541285D01*
X-219974Y542346D01*
X-220050Y543414D01*
X-220050Y544486D01*
X-219974Y545554D01*
X-219821Y546615D01*
X-219593Y547662D01*
X-219291Y548690D01*
X-218917Y549694D01*
X-218472Y550669D01*
X-217958Y551609D01*
X-217379Y552510D01*
X-216737Y553368D01*
X-216035Y554178D01*
X-215278Y554935D01*
X-214468Y555637D01*
X-213610Y556279D01*
X-212709Y556858D01*
X-211769Y557372D01*
X-210794Y557817D01*
X-209790Y558191D01*
X-208762Y558493D01*
X-207715Y558721D01*
X-206654Y558874D01*
X-205586Y558950D01*
X-204514Y558950D01*
X-203446Y558874D01*
X-202385Y558721D01*
X-201338Y558493D01*
X-200310Y558191D01*
X-199306Y557817D01*
X-198331Y557372D01*
X-197391Y556858D01*
X-196490Y556279D01*
X-195632Y555637D01*
X-194822Y554935D01*
X-194065Y554178D01*
X-193363Y553368D01*
X-192721Y552510D01*
X-192142Y551609D01*
X-191628Y550669D01*
X-191183Y549694D01*
X-190809Y548690D01*
X-190507Y547662D01*
X-190279Y546615D01*
X-190126Y545554D01*
X-190050Y544486D01*
X-190050Y543414D01*
X220050Y543414D02*
X219974Y542346D01*
X219821Y541285D01*
X219593Y540238D01*
X219291Y539210D01*
X218917Y538206D01*
X218472Y537231D01*
X217958Y536291D01*
X217379Y535390D01*
X216737Y534532D01*
X216035Y533722D01*
X215278Y532965D01*
X214468Y532263D01*
X213610Y531621D01*
X212709Y531042D01*
X211769Y530528D01*
X210794Y530083D01*
X209790Y529709D01*
X208762Y529407D01*
X207715Y529179D01*
X206654Y529026D01*
X205586Y528950D01*
X204514Y528950D01*
X203446Y529026D01*
X202385Y529179D01*
X201338Y529407D01*
X200310Y529709D01*
X199306Y530083D01*
X198331Y530528D01*
X197391Y531042D01*
X196490Y531621D01*
X195632Y532263D01*
X194822Y532965D01*
X194065Y533722D01*
X193363Y534532D01*
X192721Y535390D01*
X192142Y536291D01*
X191628Y537231D01*
X191183Y538206D01*
X190809Y539210D01*
X190507Y540238D01*
X190279Y541285D01*
X190126Y542346D01*
X190050Y543414D01*
X190050Y544486D01*
X190126Y545554D01*
X190279Y546615D01*
X190507Y547662D01*
X190809Y548690D01*
X191183Y549694D01*
X191628Y550669D01*
X192142Y551609D01*
X192721Y552510D01*
X193363Y553368D01*
X194065Y554178D01*
X194822Y554935D01*
X195632Y555637D01*
X196490Y556279D01*
X197391Y556858D01*
X198331Y557372D01*
X199306Y557817D01*
X200310Y558191D01*
X201338Y558493D01*
X202385Y558721D01*
X203446Y558874D01*
X204514Y558950D01*
X205586Y558950D01*
X206654Y558874D01*
X207715Y558721D01*
X208762Y558493D01*
X209790Y558191D01*
X210794Y557817D01*
X211769Y557372D01*
X212709Y556858D01*
X213610Y556279D01*
X214468Y555637D01*
X215278Y554935D01*
X216035Y554178D01*
X216737Y553368D01*
X217379Y552510D01*
X217958Y551609D01*
X218472Y550669D01*
X218917Y549694D01*
X219291Y548690D01*
X219593Y547662D01*
X219821Y546615D01*
X219974Y545554D01*
X220050Y544486D01*
X220050Y543414D01*
X418040Y345424D02*
X417964Y344356D01*
X417811Y343295D01*
X417583Y342248D01*
X417281Y341220D01*
X416907Y340216D01*
X416462Y339241D01*
X415948Y338301D01*
X415369Y337400D01*
X414727Y336542D01*
X414025Y335732D01*
X413268Y334975D01*
X412458Y334273D01*
X411600Y333631D01*
X410699Y333052D01*
X409759Y332538D01*
X408784Y332093D01*
X407780Y331719D01*
X406752Y331417D01*
X405705Y331189D01*
X404644Y331036D01*
X403576Y330960D01*
X402504Y330960D01*
X401436Y331036D01*
X400375Y331189D01*
X399328Y331417D01*
X398300Y331719D01*
X397296Y332093D01*
X396321Y332538D01*
X395381Y333052D01*
X394480Y333631D01*
X393622Y334273D01*
X392812Y334975D01*
X392055Y335732D01*
X391353Y336542D01*
X390711Y337400D01*
X390132Y338301D01*
X389618Y339241D01*
X389173Y340216D01*
X388799Y341220D01*
X388497Y342248D01*
X388269Y343295D01*
X388116Y344356D01*
X388040Y345424D01*
X388040Y346496D01*
X388116Y347564D01*
X388269Y348625D01*
X388497Y349672D01*
X388799Y350700D01*
X389173Y351704D01*
X389618Y352679D01*
X390132Y353619D01*
X390711Y354520D01*
X391353Y355378D01*
X392055Y356188D01*
X392812Y356945D01*
X393622Y357647D01*
X394480Y358289D01*
X395381Y358868D01*
X396321Y359382D01*
X397296Y359827D01*
X398300Y360201D01*
X399328Y360503D01*
X400375Y360731D01*
X401436Y360884D01*
X402504Y360960D01*
X403576Y360960D01*
X404644Y360884D01*
X405705Y360731D01*
X406752Y360503D01*
X407780Y360201D01*
X408784Y359827D01*
X409759Y359382D01*
X410699Y358868D01*
X411600Y358289D01*
X412458Y357647D01*
X413268Y356945D01*
X414025Y356188D01*
X414727Y355378D01*
X415369Y354520D01*
X415948Y353619D01*
X416462Y352679D01*
X416907Y351704D01*
X417281Y350700D01*
X417583Y349672D01*
X417811Y348625D01*
X417964Y347564D01*
X418040Y346496D01*
X418040Y345424D01*
X824070Y458044D02*
X823994Y456976D01*
X823841Y455915D01*
X823613Y454868D01*
X823311Y453840D01*
X822937Y452836D01*
X822492Y451861D01*
X821978Y450921D01*
X821399Y450020D01*
X820757Y449162D01*
X820055Y448352D01*
X819298Y447595D01*
X818488Y446893D01*
X817630Y446251D01*
X816729Y445672D01*
X815789Y445158D01*
X814814Y444713D01*
X813810Y444339D01*
X812782Y444037D01*
X811735Y443809D01*
X810674Y443656D01*
X809606Y443580D01*
X808534Y443580D01*
X807466Y443656D01*
X806405Y443809D01*
X805358Y444037D01*
X804330Y444339D01*
X803326Y444713D01*
X802351Y445158D01*
X801411Y445672D01*
X800510Y446251D01*
X799652Y446893D01*
X798842Y447595D01*
X798085Y448352D01*
X797383Y449162D01*
X796741Y450020D01*
X796162Y450921D01*
X795648Y451861D01*
X795203Y452836D01*
X794829Y453840D01*
X794527Y454868D01*
X794299Y455915D01*
X794146Y456976D01*
X794070Y458044D01*
X794070Y459116D01*
X794146Y460184D01*
X794299Y461245D01*
X794527Y462292D01*
X794829Y463320D01*
X795203Y464324D01*
X795648Y465299D01*
X796162Y466239D01*
X796741Y467140D01*
X797383Y467998D01*
X798085Y468808D01*
X798842Y469565D01*
X799652Y470267D01*
X800510Y470909D01*
X801411Y471488D01*
X802351Y472002D01*
X803326Y472447D01*
X804330Y472821D01*
X805358Y473123D01*
X806405Y473351D01*
X807466Y473504D01*
X808534Y473580D01*
X809606Y473580D01*
X810674Y473504D01*
X811735Y473351D01*
X812782Y473123D01*
X813810Y472821D01*
X814814Y472447D01*
X815789Y472002D01*
X816729Y471488D01*
X817630Y470909D01*
X818488Y470267D01*
X819298Y469565D01*
X820055Y468808D01*
X820757Y467998D01*
X821399Y467140D01*
X821978Y466239D01*
X822492Y465299D01*
X822937Y464324D01*
X823311Y463320D01*
X823613Y462292D01*
X823841Y461245D01*
X823994Y460184D01*
X824070Y459116D01*
X824070Y458044D01*
X287450Y888664D02*
X287374Y887596D01*
X287221Y886535D01*
X286993Y885488D01*
X286691Y884460D01*
X286317Y883456D01*
X285872Y882481D01*
X285358Y881541D01*
X284779Y880640D01*
X284137Y879782D01*
X283435Y878972D01*
X282678Y878215D01*
X281868Y877513D01*
X281010Y876871D01*
X280109Y876292D01*
X279169Y875778D01*
X278194Y875333D01*
X277190Y874959D01*
X276162Y874657D01*
X275115Y874429D01*
X274054Y874276D01*
X272986Y874200D01*
X271914Y874200D01*
X270846Y874276D01*
X269785Y874429D01*
X268738Y874657D01*
X267710Y874959D01*
X266706Y875333D01*
X265731Y875778D01*
X264791Y876292D01*
X263890Y876871D01*
X263032Y877513D01*
X262222Y878215D01*
X261465Y878972D01*
X260763Y879782D01*
X260121Y880640D01*
X259542Y881541D01*
X259028Y882481D01*
X258583Y883456D01*
X258209Y884460D01*
X257907Y885488D01*
X257679Y886535D01*
X257526Y887596D01*
X257450Y888664D01*
X257450Y889736D01*
X257526Y890804D01*
X257679Y891865D01*
X257907Y892912D01*
X258209Y893940D01*
X258583Y894944D01*
X259028Y895919D01*
X259542Y896859D01*
X260121Y897760D01*
X260763Y898618D01*
X261465Y899428D01*
X262222Y900185D01*
X263032Y900887D01*
X263890Y901529D01*
X264791Y902108D01*
X265731Y902622D01*
X266706Y903067D01*
X267710Y903441D01*
X268738Y903743D01*
X269785Y903971D01*
X270846Y904124D01*
X271914Y904200D01*
X272986Y904200D01*
X274054Y904124D01*
X275115Y903971D01*
X276162Y903743D01*
X277190Y903441D01*
X278194Y903067D01*
X279169Y902622D01*
X280109Y902108D01*
X281010Y901529D01*
X281868Y900887D01*
X282678Y900185D01*
X283435Y899428D01*
X284137Y898618D01*
X284779Y897760D01*
X285358Y896859D01*
X285872Y895919D01*
X286317Y894944D01*
X286691Y893940D01*
X286993Y892912D01*
X287221Y891865D01*
X287374Y890804D01*
X287450Y889736D01*
X287450Y888664D01*
X-257450Y888664D02*
X-257526Y887596D01*
X-257679Y886535D01*
X-257907Y885488D01*
X-258209Y884460D01*
X-258583Y883456D01*
X-259028Y882481D01*
X-259542Y881541D01*
X-260121Y880640D01*
X-260763Y879782D01*
X-261465Y878972D01*
X-262222Y878215D01*
X-263032Y877513D01*
X-263890Y876871D01*
X-264791Y876292D01*
X-265731Y875778D01*
X-266706Y875333D01*
X-267710Y874959D01*
X-268738Y874657D01*
X-269785Y874429D01*
X-270846Y874276D01*
X-271914Y874200D01*
X-272986Y874200D01*
X-274054Y874276D01*
X-275115Y874429D01*
X-276162Y874657D01*
X-277190Y874959D01*
X-278194Y875333D01*
X-279169Y875778D01*
X-280109Y876292D01*
X-281010Y876871D01*
X-281868Y877513D01*
X-282678Y878215D01*
X-283435Y878972D01*
X-284137Y879782D01*
X-284779Y880640D01*
X-285358Y881541D01*
X-285872Y882481D01*
X-286317Y883456D01*
X-286691Y884460D01*
X-286993Y885488D01*
X-287221Y886535D01*
X-287374Y887596D01*
X-287450Y888664D01*
X-287450Y889736D01*
X-287374Y890804D01*
X-287221Y891865D01*
X-286993Y892912D01*
X-286691Y893940D01*
X-286317Y894944D01*
X-285872Y895919D01*
X-285358Y896859D01*
X-284779Y897760D01*
X-284137Y898618D01*
X-283435Y899428D01*
X-282678Y900185D01*
X-281868Y900887D01*
X-281010Y901529D01*
X-280109Y902108D01*
X-279169Y902622D01*
X-278194Y903067D01*
X-277190Y903441D01*
X-276162Y903743D01*
X-275115Y903971D01*
X-274054Y904124D01*
X-272986Y904200D01*
X-271914Y904200D01*
X-270846Y904124D01*
X-269785Y903971D01*
X-268738Y903743D01*
X-267710Y903441D01*
X-266706Y903067D01*
X-265731Y902622D01*
X-264791Y902108D01*
X-263890Y901529D01*
X-263032Y900887D01*
X-262222Y900185D01*
X-261465Y899428D01*
X-260763Y898618D01*
X-260121Y897760D01*
X-259542Y896859D01*
X-259028Y895919D01*
X-258583Y894944D01*
X-258209Y893940D01*
X-257907Y892912D01*
X-257679Y891865D01*
X-257526Y890804D01*
X-257450Y889736D01*
X-257450Y888664D01*
X-257450Y-889736D02*
X-257526Y-890804D01*
X-257679Y-891865D01*
X-257907Y-892912D01*
X-258209Y-893940D01*
X-258583Y-894944D01*
X-259028Y-895919D01*
X-259542Y-896859D01*
X-260121Y-897760D01*
X-260763Y-898618D01*
X-261465Y-899428D01*
X-262222Y-900185D01*
X-263032Y-900887D01*
X-263890Y-901529D01*
X-264791Y-902108D01*
X-265731Y-902622D01*
X-266706Y-903067D01*
X-267710Y-903441D01*
X-268738Y-903743D01*
X-269785Y-903971D01*
X-270846Y-904124D01*
X-271914Y-904200D01*
X-272986Y-904200D01*
X-274054Y-904124D01*
X-275115Y-903971D01*
X-276162Y-903743D01*
X-277190Y-903441D01*
X-278194Y-903067D01*
X-279169Y-902622D01*
X-280109Y-902108D01*
X-281010Y-901529D01*
X-281868Y-900887D01*
X-282678Y-900185D01*
X-283435Y-899428D01*
X-284137Y-898618D01*
X-284779Y-897760D01*
X-285358Y-896859D01*
X-285872Y-895919D01*
X-286317Y-894944D01*
X-286691Y-893940D01*
X-286993Y-892912D01*
X-287221Y-891865D01*
X-287374Y-890804D01*
X-287450Y-889736D01*
X-287450Y-888664D01*
X-287374Y-887596D01*
X-287221Y-886535D01*
X-286993Y-885488D01*
X-286691Y-884460D01*
X-286317Y-883456D01*
X-285872Y-882481D01*
X-285358Y-881541D01*
X-284779Y-880640D01*
X-284137Y-879782D01*
X-283435Y-878972D01*
X-282678Y-878215D01*
X-281868Y-877513D01*
X-281010Y-876871D01*
X-280109Y-876292D01*
X-279169Y-875778D01*
X-278194Y-875333D01*
X-277190Y-874959D01*
X-276162Y-874657D01*
X-275115Y-874429D01*
X-274054Y-874276D01*
X-272986Y-874200D01*
X-271914Y-874200D01*
X-270846Y-874276D01*
X-269785Y-874429D01*
X-268738Y-874657D01*
X-267710Y-874959D01*
X-266706Y-875333D01*
X-265731Y-875778D01*
X-264791Y-876292D01*
X-263890Y-876871D01*
X-263032Y-877513D01*
X-262222Y-878215D01*
X-261465Y-878972D01*
X-260763Y-879782D01*
X-260121Y-880640D01*
X-259542Y-881541D01*
X-259028Y-882481D01*
X-258583Y-883456D01*
X-258209Y-884460D01*
X-257907Y-885488D01*
X-257679Y-886535D01*
X-257526Y-887596D01*
X-257450Y-888664D01*
X-257450Y-889736D01*
X287450Y-889736D02*
X287374Y-890804D01*
X287221Y-891865D01*
X286993Y-892912D01*
X286691Y-893940D01*
X286317Y-894944D01*
X285872Y-895919D01*
X285358Y-896859D01*
X284779Y-897760D01*
X284137Y-898618D01*
X283435Y-899428D01*
X282678Y-900185D01*
X281868Y-900887D01*
X281010Y-901529D01*
X280109Y-902108D01*
X279169Y-902622D01*
X278194Y-903067D01*
X277190Y-903441D01*
X276162Y-903743D01*
X275115Y-903971D01*
X274054Y-904124D01*
X272986Y-904200D01*
X271914Y-904200D01*
X270846Y-904124D01*
X269785Y-903971D01*
X268738Y-903743D01*
X267710Y-903441D01*
X266706Y-903067D01*
X265731Y-902622D01*
X264791Y-902108D01*
X263890Y-901529D01*
X263032Y-900887D01*
X262222Y-900185D01*
X261465Y-899428D01*
X260763Y-898618D01*
X260121Y-897760D01*
X259542Y-896859D01*
X259028Y-895919D01*
X258583Y-894944D01*
X258209Y-893940D01*
X257907Y-892912D01*
X257679Y-891865D01*
X257526Y-890804D01*
X257450Y-889736D01*
X257450Y-888664D01*
X257526Y-887596D01*
X257679Y-886535D01*
X257907Y-885488D01*
X258209Y-884460D01*
X258583Y-883456D01*
X259028Y-882481D01*
X259542Y-881541D01*
X260121Y-880640D01*
X260763Y-879782D01*
X261465Y-878972D01*
X262222Y-878215D01*
X263032Y-877513D01*
X263890Y-876871D01*
X264791Y-876292D01*
X265731Y-875778D01*
X266706Y-875333D01*
X267710Y-874959D01*
X268738Y-874657D01*
X269785Y-874429D01*
X270846Y-874276D01*
X271914Y-874200D01*
X272986Y-874200D01*
X274054Y-874276D01*
X275115Y-874429D01*
X276162Y-874657D01*
X277190Y-874959D01*
X278194Y-875333D01*
X279169Y-875778D01*
X280109Y-876292D01*
X281010Y-876871D01*
X281868Y-877513D01*
X282678Y-878215D01*
X283435Y-878972D01*
X284137Y-879782D01*
X284779Y-880640D01*
X285358Y-881541D01*
X285872Y-882481D01*
X286317Y-883456D01*
X286691Y-884460D01*
X286993Y-885488D01*
X287221Y-886535D01*
X287374Y-887596D01*
X287450Y-888664D01*
X287450Y-889736D01*
X220050Y-544486D02*
X219974Y-545554D01*
X219821Y-546615D01*
X219593Y-547662D01*
X219291Y-548690D01*
X218917Y-549694D01*
X218472Y-550669D01*
X217958Y-551609D01*
X217379Y-552510D01*
X216737Y-553368D01*
X216035Y-554178D01*
X215278Y-554935D01*
X214468Y-555637D01*
X213610Y-556279D01*
X212709Y-556858D01*
X211769Y-557372D01*
X210794Y-557817D01*
X209790Y-558191D01*
X208762Y-558493D01*
X207715Y-558721D01*
X206654Y-558874D01*
X205586Y-558950D01*
X204514Y-558950D01*
X203446Y-558874D01*
X202385Y-558721D01*
X201338Y-558493D01*
X200310Y-558191D01*
X199306Y-557817D01*
X198331Y-557372D01*
X197391Y-556858D01*
X196490Y-556279D01*
X195632Y-555637D01*
X194822Y-554935D01*
X194065Y-554178D01*
X193363Y-553368D01*
X192721Y-552510D01*
X192142Y-551609D01*
X191628Y-550669D01*
X191183Y-549694D01*
X190809Y-548690D01*
X190507Y-547662D01*
X190279Y-546615D01*
X190126Y-545554D01*
X190050Y-544486D01*
X190050Y-543414D01*
X190126Y-542346D01*
X190279Y-541285D01*
X190507Y-540238D01*
X190809Y-539210D01*
X191183Y-538206D01*
X191628Y-537231D01*
X192142Y-536291D01*
X192721Y-535390D01*
X193363Y-534532D01*
X194065Y-533722D01*
X194822Y-532965D01*
X195632Y-532263D01*
X196490Y-531621D01*
X197391Y-531042D01*
X198331Y-530528D01*
X199306Y-530083D01*
X200310Y-529709D01*
X201338Y-529407D01*
X202385Y-529179D01*
X203446Y-529026D01*
X204514Y-528950D01*
X205586Y-528950D01*
X206654Y-529026D01*
X207715Y-529179D01*
X208762Y-529407D01*
X209790Y-529709D01*
X210794Y-530083D01*
X211769Y-530528D01*
X212709Y-531042D01*
X213610Y-531621D01*
X214468Y-532263D01*
X215278Y-532965D01*
X216035Y-533722D01*
X216737Y-534532D01*
X217379Y-535390D01*
X217958Y-536291D01*
X218472Y-537231D01*
X218917Y-538206D01*
X219291Y-539210D01*
X219593Y-540238D01*
X219821Y-541285D01*
X219974Y-542346D01*
X220050Y-543414D01*
X220050Y-544486D01*
X418040Y-346496D02*
X417964Y-347564D01*
X417811Y-348625D01*
X417583Y-349672D01*
X417281Y-350700D01*
X416907Y-351704D01*
X416462Y-352679D01*
X415948Y-353619D01*
X415369Y-354520D01*
X414727Y-355378D01*
X414025Y-356188D01*
X413268Y-356945D01*
X412458Y-357647D01*
X411600Y-358289D01*
X410699Y-358868D01*
X409759Y-359382D01*
X408784Y-359827D01*
X407780Y-360201D01*
X406752Y-360503D01*
X405705Y-360731D01*
X404644Y-360884D01*
X403576Y-360960D01*
X402504Y-360960D01*
X401436Y-360884D01*
X400375Y-360731D01*
X399328Y-360503D01*
X398300Y-360201D01*
X397296Y-359827D01*
X396321Y-359382D01*
X395381Y-358868D01*
X394480Y-358289D01*
X393622Y-357647D01*
X392812Y-356945D01*
X392055Y-356188D01*
X391353Y-355378D01*
X390711Y-354520D01*
X390132Y-353619D01*
X389618Y-352679D01*
X389173Y-351704D01*
X388799Y-350700D01*
X388497Y-349672D01*
X388269Y-348625D01*
X388116Y-347564D01*
X388040Y-346496D01*
X388040Y-345424D01*
X388116Y-344356D01*
X388269Y-343295D01*
X388497Y-342248D01*
X388799Y-341220D01*
X389173Y-340216D01*
X389618Y-339241D01*
X390132Y-338301D01*
X390711Y-337400D01*
X391353Y-336542D01*
X392055Y-335732D01*
X392812Y-334975D01*
X393622Y-334273D01*
X394480Y-333631D01*
X395381Y-333052D01*
X396321Y-332538D01*
X397296Y-332093D01*
X398300Y-331719D01*
X399328Y-331417D01*
X400375Y-331189D01*
X401436Y-331036D01*
X402504Y-330960D01*
X403576Y-330960D01*
X404644Y-331036D01*
X405705Y-331189D01*
X406752Y-331417D01*
X407780Y-331719D01*
X408784Y-332093D01*
X409759Y-332538D01*
X410699Y-333052D01*
X411600Y-333631D01*
X412458Y-334273D01*
X413268Y-334975D01*
X414025Y-335732D01*
X414727Y-336542D01*
X415369Y-337400D01*
X415948Y-338301D01*
X416462Y-339241D01*
X416907Y-340216D01*
X417281Y-341220D01*
X417583Y-342248D01*
X417811Y-343295D01*
X417964Y-344356D01*
X418040Y-345424D01*
X418040Y-346496D01*
X-190050Y-544486D02*
X-190126Y-545554D01*
X-190279Y-546615D01*
X-190507Y-547662D01*
X-190809Y-548690D01*
X-191183Y-549694D01*
X-191628Y-550669D01*
X-192142Y-551609D01*
X-192721Y-552510D01*
X-193363Y-553368D01*
X-194065Y-554178D01*
X-194822Y-554935D01*
X-195632Y-555637D01*
X-196490Y-556279D01*
X-197391Y-556858D01*
X-198331Y-557372D01*
X-199306Y-557817D01*
X-200310Y-558191D01*
X-201338Y-558493D01*
X-202385Y-558721D01*
X-203446Y-558874D01*
X-204514Y-558950D01*
X-205586Y-558950D01*
X-206654Y-558874D01*
X-207715Y-558721D01*
X-208762Y-558493D01*
X-209790Y-558191D01*
X-210794Y-557817D01*
X-211769Y-557372D01*
X-212709Y-556858D01*
X-213610Y-556279D01*
X-214468Y-555637D01*
X-215278Y-554935D01*
X-216035Y-554178D01*
X-216737Y-553368D01*
X-217379Y-552510D01*
X-217958Y-551609D01*
X-218472Y-550669D01*
X-218917Y-549694D01*
X-219291Y-548690D01*
X-219593Y-547662D01*
X-219821Y-546615D01*
X-219974Y-545554D01*
X-220050Y-544486D01*
X-220050Y-543414D01*
X-219974Y-542346D01*
X-219821Y-541285D01*
X-219593Y-540238D01*
X-219291Y-539210D01*
X-218917Y-538206D01*
X-218472Y-537231D01*
X-217958Y-536291D01*
X-217379Y-535390D01*
X-216737Y-534532D01*
X-216035Y-533722D01*
X-215278Y-532965D01*
X-214468Y-532263D01*
X-213610Y-531621D01*
X-212709Y-531042D01*
X-211769Y-530528D01*
X-210794Y-530083D01*
X-209790Y-529709D01*
X-208762Y-529407D01*
X-207715Y-529179D01*
X-206654Y-529026D01*
X-205586Y-528950D01*
X-204514Y-528950D01*
X-203446Y-529026D01*
X-202385Y-529179D01*
X-201338Y-529407D01*
X-200310Y-529709D01*
X-199306Y-530083D01*
X-198331Y-530528D01*
X-197391Y-531042D01*
X-196490Y-531621D01*
X-195632Y-532263D01*
X-194822Y-532965D01*
X-194065Y-533722D01*
X-193363Y-534532D01*
X-192721Y-535390D01*
X-192142Y-536291D01*
X-191628Y-537231D01*
X-191183Y-538206D01*
X-190809Y-539210D01*
X-190507Y-540238D01*
X-190279Y-541285D01*
X-190126Y-542346D01*
X-190050Y-543414D01*
X-190050Y-544486D01*
X824070Y-459116D02*
X823994Y-460184D01*
X823841Y-461245D01*
X823613Y-462292D01*
X823311Y-463320D01*
X822937Y-464324D01*
X822492Y-465299D01*
X821978Y-466239D01*
X821399Y-467140D01*
X820757Y-467998D01*
X820055Y-468808D01*
X819298Y-469565D01*
X818488Y-470267D01*
X817630Y-470909D01*
X816729Y-471488D01*
X815789Y-472002D01*
X814814Y-472447D01*
X813810Y-472821D01*
X812782Y-473123D01*
X811735Y-473351D01*
X810674Y-473504D01*
X809606Y-473580D01*
X808534Y-473580D01*
X807466Y-473504D01*
X806405Y-473351D01*
X805358Y-473123D01*
X804330Y-472821D01*
X803326Y-472447D01*
X802351Y-472002D01*
X801411Y-471488D01*
X800510Y-470909D01*
X799652Y-470267D01*
X798842Y-469565D01*
X798085Y-468808D01*
X797383Y-467998D01*
X796741Y-467140D01*
X796162Y-466239D01*
X795648Y-465299D01*
X795203Y-464324D01*
X794829Y-463320D01*
X794527Y-462292D01*
X794299Y-461245D01*
X794146Y-460184D01*
X794070Y-459116D01*
X794070Y-458044D01*
X794146Y-456976D01*
X794299Y-455915D01*
X794527Y-454868D01*
X794829Y-453840D01*
X795203Y-452836D01*
X795648Y-451861D01*
X796162Y-450921D01*
X796741Y-450020D01*
X797383Y-449162D01*
X798085Y-448352D01*
X798842Y-447595D01*
X799652Y-446893D01*
X800510Y-446251D01*
X801411Y-445672D01*
X802351Y-445158D01*
X803326Y-444713D01*
X804330Y-444339D01*
X805358Y-444037D01*
X806405Y-443809D01*
X807466Y-443656D01*
X808534Y-443580D01*
X809606Y-443580D01*
X810674Y-443656D01*
X811735Y-443809D01*
X812782Y-444037D01*
X813810Y-444339D01*
X814814Y-444713D01*
X815789Y-445158D01*
X816729Y-445672D01*
X817630Y-446251D01*
X818488Y-446893D01*
X819298Y-447595D01*
X820055Y-448352D01*
X820757Y-449162D01*
X821399Y-450020D01*
X821978Y-450921D01*
X822492Y-451861D01*
X822937Y-452836D01*
X823311Y-453840D01*
X823613Y-454868D01*
X823841Y-455915D01*
X823994Y-456976D01*
X824070Y-458044D01*
X824070Y-459116D01*
M02*
