G04 EAGLE Gerber RS-274X export*
G75*
%MOMM*%
%FSLAX34Y34*%
%LPD*%
%INSoldermask Bottom*%
%IPPOS*%
%AMOC8*
5,1,8,0,0,1.08239X$1,22.5*%
G01*
%ADD10C,3.203200*%
%ADD11R,1.703200X2.803200*%
%ADD12R,1.203200X1.303200*%
%ADD13C,2.082800*%
%ADD14R,0.603200X1.453200*%
%ADD15R,1.003200X1.003200*%
%ADD16R,1.003200X1.003200*%
%ADD17R,1.303200X1.203200*%
%ADD18P,1.951982X8X337.500000*%
%ADD19C,1.803400*%
%ADD20P,1.951982X8X247.500000*%
%ADD21C,1.193800*%
%ADD22C,1.828800*%
%ADD23C,1.930400*%
%ADD24C,2.451100*%
%ADD25C,2.153200*%
%ADD26C,3.269200*%
%ADD27C,5.619200*%


D10*
X-809070Y458580D03*
X-809070Y-458580D03*
X-403040Y-345960D03*
X-471920Y-95000D03*
X-291920Y-95000D03*
X-291920Y95000D03*
X-471920Y95000D03*
X-79880Y145970D03*
X-79880Y-146130D03*
X97920Y145970D03*
X-403040Y345960D03*
X-205050Y543950D03*
X205050Y543950D03*
X403040Y345960D03*
X809070Y458580D03*
X272450Y889200D03*
X-272450Y889200D03*
X-272450Y-889200D03*
X272450Y-889200D03*
X205050Y-543950D03*
X403040Y-345960D03*
X-205050Y-543950D03*
X809070Y-458580D03*
D11*
G36*
X-595435Y38029D02*
X-612402Y39513D01*
X-609959Y67437D01*
X-592992Y65953D01*
X-595435Y38029D01*
G37*
G36*
X-625321Y40643D02*
X-642288Y42127D01*
X-639845Y70051D01*
X-622878Y68567D01*
X-625321Y40643D01*
G37*
D12*
X520700Y-169300D03*
X520700Y-186300D03*
D13*
X558800Y-112522D03*
X558800Y-139700D03*
X558800Y-166878D03*
D11*
G36*
X-579783Y140846D02*
X-596234Y145254D01*
X-588979Y172330D01*
X-572528Y167922D01*
X-579783Y140846D01*
G37*
G36*
X-608761Y148610D02*
X-625212Y153018D01*
X-617957Y180094D01*
X-601506Y175686D01*
X-608761Y148610D01*
G37*
G36*
X-546521Y239380D02*
X-561956Y246578D01*
X-550109Y271982D01*
X-534674Y264784D01*
X-546521Y239380D01*
G37*
G36*
X-573711Y252058D02*
X-589146Y259256D01*
X-577299Y284660D01*
X-561864Y277462D01*
X-573711Y252058D01*
G37*
G36*
X-496646Y330651D02*
X-510598Y340420D01*
X-494520Y363381D01*
X-480568Y353612D01*
X-496646Y330651D01*
G37*
G36*
X-521220Y347859D02*
X-535172Y357628D01*
X-519094Y380589D01*
X-505142Y370820D01*
X-521220Y347859D01*
G37*
G36*
X-431692Y411871D02*
X-443735Y423914D01*
X-423914Y443735D01*
X-411871Y431692D01*
X-431692Y411871D01*
G37*
G36*
X-452906Y433085D02*
X-464949Y445128D01*
X-445128Y464949D01*
X-433085Y452906D01*
X-452906Y433085D01*
G37*
G36*
X-353612Y480568D02*
X-363381Y494520D01*
X-340420Y510598D01*
X-330651Y496646D01*
X-353612Y480568D01*
G37*
G36*
X-370820Y505142D02*
X-380589Y519094D01*
X-357628Y535172D01*
X-347859Y521220D01*
X-370820Y505142D01*
G37*
G36*
X-264784Y534674D02*
X-271982Y550109D01*
X-246578Y561956D01*
X-239380Y546521D01*
X-264784Y534674D01*
G37*
G36*
X-277462Y561864D02*
X-284660Y577299D01*
X-259256Y589146D01*
X-252058Y573711D01*
X-277462Y561864D01*
G37*
G36*
X-167922Y572528D02*
X-172330Y588979D01*
X-145254Y596234D01*
X-140846Y579783D01*
X-167922Y572528D01*
G37*
G36*
X-175686Y601506D02*
X-180094Y617957D01*
X-153018Y625212D01*
X-148610Y608761D01*
X-175686Y601506D01*
G37*
G36*
X-65953Y592992D02*
X-67437Y609959D01*
X-39513Y612402D01*
X-38029Y595435D01*
X-65953Y592992D01*
G37*
G36*
X-68567Y622878D02*
X-70051Y639845D01*
X-42127Y642288D01*
X-40643Y625321D01*
X-68567Y622878D01*
G37*
G36*
X38029Y595435D02*
X39513Y612402D01*
X67437Y609959D01*
X65953Y592992D01*
X38029Y595435D01*
G37*
G36*
X40643Y625321D02*
X42127Y642288D01*
X70051Y639845D01*
X68567Y622878D01*
X40643Y625321D01*
G37*
G36*
X140846Y579783D02*
X145254Y596234D01*
X172330Y588979D01*
X167922Y572528D01*
X140846Y579783D01*
G37*
G36*
X148610Y608761D02*
X153018Y625212D01*
X180094Y617957D01*
X175686Y601506D01*
X148610Y608761D01*
G37*
G36*
X239380Y546521D02*
X246578Y561956D01*
X271982Y550109D01*
X264784Y534674D01*
X239380Y546521D01*
G37*
G36*
X252058Y573711D02*
X259256Y589146D01*
X284660Y577299D01*
X277462Y561864D01*
X252058Y573711D01*
G37*
G36*
X330651Y496646D02*
X340420Y510598D01*
X363381Y494520D01*
X353612Y480568D01*
X330651Y496646D01*
G37*
G36*
X347859Y521220D02*
X357628Y535172D01*
X380589Y519094D01*
X370820Y505142D01*
X347859Y521220D01*
G37*
G36*
X411871Y431692D02*
X423914Y443735D01*
X443735Y423914D01*
X431692Y411871D01*
X411871Y431692D01*
G37*
G36*
X433085Y452906D02*
X445128Y464949D01*
X464949Y445128D01*
X452906Y433085D01*
X433085Y452906D01*
G37*
G36*
X480568Y353612D02*
X494520Y363381D01*
X510598Y340420D01*
X496646Y330651D01*
X480568Y353612D01*
G37*
G36*
X505142Y370820D02*
X519094Y380589D01*
X535172Y357628D01*
X521220Y347859D01*
X505142Y370820D01*
G37*
G36*
X534674Y264784D02*
X550109Y271982D01*
X561956Y246578D01*
X546521Y239380D01*
X534674Y264784D01*
G37*
G36*
X561864Y277462D02*
X577299Y284660D01*
X589146Y259256D01*
X573711Y252058D01*
X561864Y277462D01*
G37*
G36*
X572528Y167922D02*
X588979Y172330D01*
X596234Y145254D01*
X579783Y140846D01*
X572528Y167922D01*
G37*
G36*
X601506Y175686D02*
X617957Y180094D01*
X625212Y153018D01*
X608761Y148610D01*
X601506Y175686D01*
G37*
G36*
X592992Y65953D02*
X609959Y67437D01*
X612402Y39513D01*
X595435Y38029D01*
X592992Y65953D01*
G37*
G36*
X622878Y68567D02*
X639845Y70051D01*
X642288Y42127D01*
X625321Y40643D01*
X622878Y68567D01*
G37*
G36*
X595435Y-38029D02*
X612402Y-39513D01*
X609959Y-67437D01*
X592992Y-65953D01*
X595435Y-38029D01*
G37*
G36*
X625321Y-40643D02*
X642288Y-42127D01*
X639845Y-70051D01*
X622878Y-68567D01*
X625321Y-40643D01*
G37*
G36*
X579783Y-140846D02*
X596234Y-145254D01*
X588979Y-172330D01*
X572528Y-167922D01*
X579783Y-140846D01*
G37*
G36*
X608761Y-148610D02*
X625212Y-153018D01*
X617957Y-180094D01*
X601506Y-175686D01*
X608761Y-148610D01*
G37*
G36*
X546521Y-239380D02*
X561956Y-246578D01*
X550109Y-271982D01*
X534674Y-264784D01*
X546521Y-239380D01*
G37*
G36*
X573711Y-252058D02*
X589146Y-259256D01*
X577299Y-284660D01*
X561864Y-277462D01*
X573711Y-252058D01*
G37*
G36*
X496646Y-330651D02*
X510598Y-340420D01*
X494520Y-363381D01*
X480568Y-353612D01*
X496646Y-330651D01*
G37*
G36*
X521220Y-347859D02*
X535172Y-357628D01*
X519094Y-380589D01*
X505142Y-370820D01*
X521220Y-347859D01*
G37*
G36*
X431692Y-411871D02*
X443735Y-423914D01*
X423914Y-443735D01*
X411871Y-431692D01*
X431692Y-411871D01*
G37*
G36*
X452906Y-433085D02*
X464949Y-445128D01*
X445128Y-464949D01*
X433085Y-452906D01*
X452906Y-433085D01*
G37*
G36*
X353612Y-480568D02*
X363381Y-494520D01*
X340420Y-510598D01*
X330651Y-496646D01*
X353612Y-480568D01*
G37*
G36*
X370820Y-505142D02*
X380589Y-519094D01*
X357628Y-535172D01*
X347859Y-521220D01*
X370820Y-505142D01*
G37*
G36*
X264784Y-534674D02*
X271982Y-550109D01*
X246578Y-561956D01*
X239380Y-546521D01*
X264784Y-534674D01*
G37*
G36*
X277462Y-561864D02*
X284660Y-577299D01*
X259256Y-589146D01*
X252058Y-573711D01*
X277462Y-561864D01*
G37*
G36*
X167922Y-572528D02*
X172330Y-588979D01*
X145254Y-596234D01*
X140846Y-579783D01*
X167922Y-572528D01*
G37*
G36*
X175686Y-601506D02*
X180094Y-617957D01*
X153018Y-625212D01*
X148610Y-608761D01*
X175686Y-601506D01*
G37*
G36*
X65953Y-592992D02*
X67437Y-609959D01*
X39513Y-612402D01*
X38029Y-595435D01*
X65953Y-592992D01*
G37*
G36*
X68567Y-622878D02*
X70051Y-639845D01*
X42127Y-642288D01*
X40643Y-625321D01*
X68567Y-622878D01*
G37*
G36*
X-38029Y-595435D02*
X-39513Y-612402D01*
X-67437Y-609959D01*
X-65953Y-592992D01*
X-38029Y-595435D01*
G37*
G36*
X-40643Y-625321D02*
X-42127Y-642288D01*
X-70051Y-639845D01*
X-68567Y-622878D01*
X-40643Y-625321D01*
G37*
G36*
X-140846Y-579783D02*
X-145254Y-596234D01*
X-172330Y-588979D01*
X-167922Y-572528D01*
X-140846Y-579783D01*
G37*
G36*
X-148610Y-608761D02*
X-153018Y-625212D01*
X-180094Y-617957D01*
X-175686Y-601506D01*
X-148610Y-608761D01*
G37*
G36*
X-239380Y-546521D02*
X-246578Y-561956D01*
X-271982Y-550109D01*
X-264784Y-534674D01*
X-239380Y-546521D01*
G37*
G36*
X-252058Y-573711D02*
X-259256Y-589146D01*
X-284660Y-577299D01*
X-277462Y-561864D01*
X-252058Y-573711D01*
G37*
G36*
X-330651Y-496646D02*
X-340420Y-510598D01*
X-363381Y-494520D01*
X-353612Y-480568D01*
X-330651Y-496646D01*
G37*
G36*
X-347859Y-521220D02*
X-357628Y-535172D01*
X-380589Y-519094D01*
X-370820Y-505142D01*
X-347859Y-521220D01*
G37*
G36*
X-411871Y-431692D02*
X-423914Y-443735D01*
X-443735Y-423914D01*
X-431692Y-411871D01*
X-411871Y-431692D01*
G37*
G36*
X-433085Y-452906D02*
X-445128Y-464949D01*
X-464949Y-445128D01*
X-452906Y-433085D01*
X-433085Y-452906D01*
G37*
G36*
X-480568Y-353612D02*
X-494520Y-363381D01*
X-510598Y-340420D01*
X-496646Y-330651D01*
X-480568Y-353612D01*
G37*
G36*
X-505142Y-370820D02*
X-519094Y-380589D01*
X-535172Y-357628D01*
X-521220Y-347859D01*
X-505142Y-370820D01*
G37*
G36*
X-534674Y-264784D02*
X-550109Y-271982D01*
X-561956Y-246578D01*
X-546521Y-239380D01*
X-534674Y-264784D01*
G37*
G36*
X-561864Y-277462D02*
X-577299Y-284660D01*
X-589146Y-259256D01*
X-573711Y-252058D01*
X-561864Y-277462D01*
G37*
G36*
X-572528Y-167922D02*
X-588979Y-172330D01*
X-596234Y-145254D01*
X-579783Y-140846D01*
X-572528Y-167922D01*
G37*
G36*
X-601506Y-175686D02*
X-617957Y-180094D01*
X-625212Y-153018D01*
X-608761Y-148610D01*
X-601506Y-175686D01*
G37*
G36*
X-592992Y-65953D02*
X-609959Y-67437D01*
X-612402Y-39513D01*
X-595435Y-38029D01*
X-592992Y-65953D01*
G37*
G36*
X-622878Y-68567D02*
X-639845Y-70051D01*
X-642288Y-42127D01*
X-625321Y-40643D01*
X-622878Y-68567D01*
G37*
D14*
X454850Y128850D03*
X448350Y128850D03*
X441850Y128850D03*
X435350Y128850D03*
X428850Y128850D03*
X422350Y128850D03*
X415850Y128850D03*
X409350Y128850D03*
X402850Y128850D03*
X396350Y128850D03*
X389850Y128850D03*
X383350Y128850D03*
X396350Y201350D03*
X402850Y201350D03*
X409350Y201350D03*
X415850Y201350D03*
X422350Y201350D03*
X428850Y201350D03*
X435350Y201350D03*
X441850Y201350D03*
X448350Y201350D03*
X454850Y201350D03*
X389850Y201350D03*
X383350Y201350D03*
D15*
X-637500Y0D03*
X-622500Y0D03*
D16*
G36*
X-623748Y104892D02*
X-633626Y106634D01*
X-631884Y116512D01*
X-622006Y114770D01*
X-623748Y104892D01*
G37*
G36*
X-608976Y102288D02*
X-618854Y104030D01*
X-617112Y113908D01*
X-607234Y112166D01*
X-608976Y102288D01*
G37*
G36*
X-596061Y211606D02*
X-605487Y215038D01*
X-602055Y224464D01*
X-592629Y221032D01*
X-596061Y211606D01*
G37*
G36*
X-581965Y206476D02*
X-591391Y209908D01*
X-587959Y219334D01*
X-578533Y215902D01*
X-581965Y206476D01*
G37*
G36*
X-550260Y311899D02*
X-558946Y316915D01*
X-553930Y325601D01*
X-545244Y320585D01*
X-550260Y311899D01*
G37*
G36*
X-537270Y304399D02*
X-545956Y309415D01*
X-540940Y318101D01*
X-532254Y313085D01*
X-537270Y304399D01*
G37*
G36*
X-487737Y402715D02*
X-495421Y409163D01*
X-488973Y416847D01*
X-481289Y410399D01*
X-487737Y402715D01*
G37*
G36*
X-476247Y393073D02*
X-483931Y399521D01*
X-477483Y407205D01*
X-469799Y400757D01*
X-476247Y393073D01*
G37*
G36*
X-410399Y481289D02*
X-416847Y488973D01*
X-409163Y495421D01*
X-402715Y487737D01*
X-410399Y481289D01*
G37*
G36*
X-400757Y469799D02*
X-407205Y477483D01*
X-399521Y483931D01*
X-393073Y476247D01*
X-400757Y469799D01*
G37*
G36*
X-320585Y545244D02*
X-325601Y553930D01*
X-316915Y558946D01*
X-311899Y550260D01*
X-320585Y545244D01*
G37*
G36*
X-313085Y532254D02*
X-318101Y540940D01*
X-309415Y545956D01*
X-304399Y537270D01*
X-313085Y532254D01*
G37*
G36*
X-221032Y592629D02*
X-224464Y602055D01*
X-215038Y605487D01*
X-211606Y596061D01*
X-221032Y592629D01*
G37*
G36*
X-215902Y578533D02*
X-219334Y587959D01*
X-209908Y591391D01*
X-206476Y581965D01*
X-215902Y578533D01*
G37*
G36*
X-114770Y622006D02*
X-116512Y631884D01*
X-106634Y633626D01*
X-104892Y623748D01*
X-114770Y622006D01*
G37*
G36*
X-112166Y607234D02*
X-113908Y617112D01*
X-104030Y618854D01*
X-102288Y608976D01*
X-112166Y607234D01*
G37*
D15*
X0Y637500D03*
X0Y622500D03*
D16*
G36*
X104892Y623748D02*
X106634Y633626D01*
X116512Y631884D01*
X114770Y622006D01*
X104892Y623748D01*
G37*
G36*
X102288Y608976D02*
X104030Y618854D01*
X113908Y617112D01*
X112166Y607234D01*
X102288Y608976D01*
G37*
G36*
X211606Y596061D02*
X215038Y605487D01*
X224464Y602055D01*
X221032Y592629D01*
X211606Y596061D01*
G37*
G36*
X206476Y581965D02*
X209908Y591391D01*
X219334Y587959D01*
X215902Y578533D01*
X206476Y581965D01*
G37*
G36*
X311899Y550260D02*
X316915Y558946D01*
X325601Y553930D01*
X320585Y545244D01*
X311899Y550260D01*
G37*
G36*
X304399Y537270D02*
X309415Y545956D01*
X318101Y540940D01*
X313085Y532254D01*
X304399Y537270D01*
G37*
G36*
X402715Y487737D02*
X409163Y495421D01*
X416847Y488973D01*
X410399Y481289D01*
X402715Y487737D01*
G37*
G36*
X393073Y476247D02*
X399521Y483931D01*
X407205Y477483D01*
X400757Y469799D01*
X393073Y476247D01*
G37*
G36*
X481289Y410399D02*
X488973Y416847D01*
X495421Y409163D01*
X487737Y402715D01*
X481289Y410399D01*
G37*
G36*
X469799Y400757D02*
X477483Y407205D01*
X483931Y399521D01*
X476247Y393073D01*
X469799Y400757D01*
G37*
G36*
X545244Y320585D02*
X553930Y325601D01*
X558946Y316915D01*
X550260Y311899D01*
X545244Y320585D01*
G37*
G36*
X532254Y313085D02*
X540940Y318101D01*
X545956Y309415D01*
X537270Y304399D01*
X532254Y313085D01*
G37*
D12*
X476250Y199000D03*
X476250Y182000D03*
X361950Y156600D03*
X361950Y173600D03*
X495300Y148200D03*
X495300Y131200D03*
D14*
X-264350Y-351100D03*
X-257850Y-351100D03*
X-251350Y-351100D03*
X-244850Y-351100D03*
X-238350Y-351100D03*
X-231850Y-351100D03*
X-225350Y-351100D03*
X-218850Y-351100D03*
X-212350Y-351100D03*
X-205850Y-351100D03*
X-199350Y-351100D03*
X-192850Y-351100D03*
X-205850Y-423600D03*
X-212350Y-423600D03*
X-218850Y-423600D03*
X-225350Y-423600D03*
X-231850Y-423600D03*
X-238350Y-423600D03*
X-244850Y-423600D03*
X-251350Y-423600D03*
X-257850Y-423600D03*
X-264350Y-423600D03*
X-199350Y-423600D03*
X-192850Y-423600D03*
D16*
G36*
X592629Y221032D02*
X602055Y224464D01*
X605487Y215038D01*
X596061Y211606D01*
X592629Y221032D01*
G37*
G36*
X578533Y215902D02*
X587959Y219334D01*
X591391Y209908D01*
X581965Y206476D01*
X578533Y215902D01*
G37*
G36*
X622006Y114770D02*
X631884Y116512D01*
X633626Y106634D01*
X623748Y104892D01*
X622006Y114770D01*
G37*
G36*
X607234Y112166D02*
X617112Y113908D01*
X618854Y104030D01*
X608976Y102288D01*
X607234Y112166D01*
G37*
D15*
X637500Y0D03*
X622500Y0D03*
D16*
G36*
X623748Y-104892D02*
X633626Y-106634D01*
X631884Y-116512D01*
X622006Y-114770D01*
X623748Y-104892D01*
G37*
G36*
X608976Y-102288D02*
X618854Y-104030D01*
X617112Y-113908D01*
X607234Y-112166D01*
X608976Y-102288D01*
G37*
G36*
X596061Y-211606D02*
X605487Y-215038D01*
X602055Y-224464D01*
X592629Y-221032D01*
X596061Y-211606D01*
G37*
G36*
X581965Y-206476D02*
X591391Y-209908D01*
X587959Y-219334D01*
X578533Y-215902D01*
X581965Y-206476D01*
G37*
G36*
X550260Y-311899D02*
X558946Y-316915D01*
X553930Y-325601D01*
X545244Y-320585D01*
X550260Y-311899D01*
G37*
G36*
X537270Y-304399D02*
X545956Y-309415D01*
X540940Y-318101D01*
X532254Y-313085D01*
X537270Y-304399D01*
G37*
G36*
X487737Y-402715D02*
X495421Y-409163D01*
X488973Y-416847D01*
X481289Y-410399D01*
X487737Y-402715D01*
G37*
G36*
X476247Y-393073D02*
X483931Y-399521D01*
X477483Y-407205D01*
X469799Y-400757D01*
X476247Y-393073D01*
G37*
G36*
X410399Y-481289D02*
X416847Y-488973D01*
X409163Y-495421D01*
X402715Y-487737D01*
X410399Y-481289D01*
G37*
G36*
X400757Y-469799D02*
X407205Y-477483D01*
X399521Y-483931D01*
X393073Y-476247D01*
X400757Y-469799D01*
G37*
G36*
X320585Y-545244D02*
X325601Y-553930D01*
X316915Y-558946D01*
X311899Y-550260D01*
X320585Y-545244D01*
G37*
G36*
X313085Y-532254D02*
X318101Y-540940D01*
X309415Y-545956D01*
X304399Y-537270D01*
X313085Y-532254D01*
G37*
G36*
X221032Y-592629D02*
X224464Y-602055D01*
X215038Y-605487D01*
X211606Y-596061D01*
X221032Y-592629D01*
G37*
G36*
X215902Y-578533D02*
X219334Y-587959D01*
X209908Y-591391D01*
X206476Y-581965D01*
X215902Y-578533D01*
G37*
G36*
X114770Y-622006D02*
X116512Y-631884D01*
X106634Y-633626D01*
X104892Y-623748D01*
X114770Y-622006D01*
G37*
G36*
X112166Y-607234D02*
X113908Y-617112D01*
X104030Y-618854D01*
X102288Y-608976D01*
X112166Y-607234D01*
G37*
D15*
X0Y-637500D03*
X0Y-622500D03*
D16*
G36*
X-104892Y-623748D02*
X-106634Y-633626D01*
X-116512Y-631884D01*
X-114770Y-622006D01*
X-104892Y-623748D01*
G37*
G36*
X-102288Y-608976D02*
X-104030Y-618854D01*
X-113908Y-617112D01*
X-112166Y-607234D01*
X-102288Y-608976D01*
G37*
G36*
X-211606Y-596061D02*
X-215038Y-605487D01*
X-224464Y-602055D01*
X-221032Y-592629D01*
X-211606Y-596061D01*
G37*
G36*
X-206476Y-581965D02*
X-209908Y-591391D01*
X-219334Y-587959D01*
X-215902Y-578533D01*
X-206476Y-581965D01*
G37*
G36*
X-311899Y-550260D02*
X-316915Y-558946D01*
X-325601Y-553930D01*
X-320585Y-545244D01*
X-311899Y-550260D01*
G37*
G36*
X-304399Y-537270D02*
X-309415Y-545956D01*
X-318101Y-540940D01*
X-313085Y-532254D01*
X-304399Y-537270D01*
G37*
G36*
X-402715Y-487737D02*
X-409163Y-495421D01*
X-416847Y-488973D01*
X-410399Y-481289D01*
X-402715Y-487737D01*
G37*
G36*
X-393073Y-476247D02*
X-399521Y-483931D01*
X-407205Y-477483D01*
X-400757Y-469799D01*
X-393073Y-476247D01*
G37*
D12*
X-292100Y-408550D03*
X-292100Y-391550D03*
X-171450Y-372500D03*
X-171450Y-389500D03*
X-292100Y-370450D03*
X-292100Y-353450D03*
D16*
G36*
X-481289Y-410399D02*
X-488973Y-416847D01*
X-495421Y-409163D01*
X-487737Y-402715D01*
X-481289Y-410399D01*
G37*
G36*
X-469799Y-400757D02*
X-477483Y-407205D01*
X-483931Y-399521D01*
X-476247Y-393073D01*
X-469799Y-400757D01*
G37*
G36*
X-545244Y-320585D02*
X-553930Y-325601D01*
X-558946Y-316915D01*
X-550260Y-311899D01*
X-545244Y-320585D01*
G37*
G36*
X-532254Y-313085D02*
X-540940Y-318101D01*
X-545956Y-309415D01*
X-537270Y-304399D01*
X-532254Y-313085D01*
G37*
G36*
X-592629Y-221032D02*
X-602055Y-224464D01*
X-605487Y-215038D01*
X-596061Y-211606D01*
X-592629Y-221032D01*
G37*
G36*
X-578533Y-215902D02*
X-587959Y-219334D01*
X-591391Y-209908D01*
X-581965Y-206476D01*
X-578533Y-215902D01*
G37*
G36*
X-622006Y-114770D02*
X-631884Y-116512D01*
X-633626Y-106634D01*
X-623748Y-104892D01*
X-622006Y-114770D01*
G37*
G36*
X-607234Y-112166D02*
X-617112Y-113908D01*
X-618854Y-104030D01*
X-608976Y-102288D01*
X-607234Y-112166D01*
G37*
D17*
X505850Y-298450D03*
X522850Y-298450D03*
D18*
X-19178Y425578D03*
D19*
X-44322Y450722D03*
D20*
X285878Y158878D03*
D19*
X311022Y184022D03*
D18*
X311022Y-184022D03*
D19*
X285878Y-158878D03*
D20*
X-44322Y-450722D03*
D19*
X-19178Y-425578D03*
D12*
X476250Y131200D03*
X476250Y148200D03*
X-311150Y-353450D03*
X-311150Y-370450D03*
D17*
X522850Y-279400D03*
X505850Y-279400D03*
D21*
X-87550Y919860D03*
X-77550Y919860D03*
X-87550Y911860D03*
X-77550Y911860D03*
X-87550Y903860D03*
X-77550Y903860D03*
X-87550Y894460D03*
X-77550Y894460D03*
X-87550Y886460D03*
X-77550Y886460D03*
X-87550Y878460D03*
X-77550Y878460D03*
X-87550Y869060D03*
X-77550Y869060D03*
X-87550Y861060D03*
X-77550Y861060D03*
X-87550Y853060D03*
X-77550Y853060D03*
X-87550Y845440D03*
X-77550Y845440D03*
D13*
X-161020Y851374D03*
X-176902Y870848D03*
X-196376Y886730D03*
D17*
G36*
X-218751Y805757D02*
X-209537Y814971D01*
X-201029Y806463D01*
X-210243Y797249D01*
X-218751Y805757D01*
G37*
G36*
X-230771Y793737D02*
X-221557Y802951D01*
X-213049Y794443D01*
X-222263Y785229D01*
X-230771Y793737D01*
G37*
D21*
X-8000Y-271700D03*
X-8000Y-261700D03*
X0Y-271700D03*
X0Y-261700D03*
X8000Y-271700D03*
X8000Y-261700D03*
D10*
X-112928Y538378D03*
X-77572Y503022D03*
X398678Y252628D03*
X363322Y217272D03*
X363322Y-217272D03*
X398678Y-252628D03*
X-77572Y-503022D03*
X-112928Y-538378D03*
D13*
X163830Y-165100D03*
X166370Y-139700D03*
X163830Y-114300D03*
X166370Y-88900D03*
X163830Y-63500D03*
X166370Y-38100D03*
X163830Y-12700D03*
X166370Y12700D03*
X44450Y654050D03*
X-30550Y654050D03*
D15*
X7500Y914400D03*
X-7500Y914400D03*
X7500Y-914400D03*
X-7500Y-914400D03*
D11*
X-15000Y857250D03*
X15000Y857250D03*
X-15000Y-857250D03*
X15000Y-857250D03*
D13*
X-755420Y435610D03*
X-730020Y435610D03*
X755420Y-435750D03*
X730020Y-435750D03*
X19050Y412750D03*
X37011Y394789D03*
X234950Y146050D03*
X216989Y128089D03*
X234950Y-146050D03*
X216989Y-128089D03*
X19050Y-412750D03*
X37011Y-394789D03*
D22*
X-151913Y712892D02*
X-163408Y724387D01*
X-145447Y742347D02*
X-133953Y730853D01*
X-115992Y748813D02*
X-127487Y760308D01*
D23*
X69850Y742950D03*
X171450Y742950D03*
D24*
X119190Y781050D02*
X96711Y781050D01*
X-33211Y781050D02*
X-55690Y781050D01*
D10*
X-144678Y661772D03*
X-109322Y697128D03*
D17*
X-683650Y434340D03*
X-700650Y434340D03*
X683650Y-434200D03*
X700650Y-434200D03*
G36*
X38793Y416249D02*
X29579Y425463D01*
X38087Y433971D01*
X47301Y424757D01*
X38793Y416249D01*
G37*
G36*
X50813Y404229D02*
X41599Y413443D01*
X50107Y421951D01*
X59321Y412737D01*
X50813Y404229D01*
G37*
G36*
X238449Y126307D02*
X247663Y135521D01*
X256171Y127013D01*
X246957Y117799D01*
X238449Y126307D01*
G37*
G36*
X226429Y114287D02*
X235643Y123501D01*
X244151Y114993D01*
X234937Y105779D01*
X226429Y114287D01*
G37*
G36*
X246957Y-117799D02*
X256171Y-127013D01*
X247663Y-135521D01*
X238449Y-126307D01*
X246957Y-117799D01*
G37*
G36*
X234937Y-105779D02*
X244151Y-114993D01*
X235643Y-123501D01*
X226429Y-114287D01*
X234937Y-105779D01*
G37*
G36*
X47301Y-424757D02*
X38087Y-433971D01*
X29579Y-425463D01*
X38793Y-416249D01*
X47301Y-424757D01*
G37*
G36*
X59321Y-412737D02*
X50107Y-421951D01*
X41599Y-413443D01*
X50813Y-404229D01*
X59321Y-412737D01*
G37*
D13*
X558800Y166878D03*
X558800Y139700D03*
X558800Y112522D03*
X165100Y63500D03*
X165100Y88900D03*
X165100Y114300D03*
X165100Y139700D03*
D25*
X-38100Y-186690D03*
D13*
X-755420Y-435750D03*
X-730020Y-435750D03*
X755420Y435750D03*
X730020Y435750D03*
D26*
X260350Y831850D03*
X-209550Y-215900D03*
X88900Y-247650D03*
X82550Y330200D03*
D25*
X-133350Y57150D03*
X-133350Y19050D03*
X-133350Y-19050D03*
D17*
X448700Y-381000D03*
X465700Y-381000D03*
X465700Y-361950D03*
X448700Y-361950D03*
X366150Y-444500D03*
X383150Y-444500D03*
X383150Y-425450D03*
X366150Y-425450D03*
X283600Y-501650D03*
X300600Y-501650D03*
X300600Y-482600D03*
X283600Y-482600D03*
X-40250Y901700D03*
X-23250Y901700D03*
X-23250Y920750D03*
X-40250Y920750D03*
X-40250Y-927100D03*
X-23250Y-927100D03*
X-23250Y-908050D03*
X-40250Y-908050D03*
D25*
X514350Y-146050D03*
X43180Y-279400D03*
X539750Y-46990D03*
D26*
X-114300Y-730250D03*
D25*
X-114300Y-685800D03*
D26*
X57150Y-844550D03*
X101600Y-787400D03*
X146050Y-787400D03*
X190500Y-787400D03*
X139700Y-736600D03*
D25*
X127000Y-654050D03*
D26*
X101600Y-692150D03*
X146050Y-692150D03*
X-171450Y482600D03*
X-171450Y-482600D03*
X342900Y-311150D03*
X342900Y311150D03*
D27*
X-36000Y-692150D03*
X36000Y-692150D03*
D26*
X95250Y-736600D03*
D13*
X-171450Y-730250D03*
D26*
X57150Y-787400D03*
D25*
X514350Y-120650D03*
X98033Y-378020D03*
D26*
X88900Y825500D03*
X184150Y-736600D03*
M02*
