G04 EAGLE Gerber RS-274X export*
G75*
%MOMM*%
%FSLAX34Y34*%
%LPD*%
%INSoldermask Top*%
%IPPOS*%
%AMOC8*
5,1,8,0,0,1.08239X$1,22.5*%
G01*
%ADD10C,3.203200*%
%ADD11C,2.082800*%
%ADD12R,0.603200X1.453200*%
%ADD13R,1.203200X1.303200*%
%ADD14R,0.853200X1.603200*%
%ADD15R,6.433200X5.453200*%
%ADD16R,10.503200X5.453200*%
%ADD17R,1.803200X3.203200*%
%ADD18R,5.029200X5.918200*%
%ADD19P,1.951982X8X337.500000*%
%ADD20C,1.803400*%
%ADD21R,1.303200X1.203200*%
%ADD22C,0.505344*%
%ADD23P,1.951982X8X247.500000*%
%ADD24R,2.363200X1.273200*%
%ADD25R,1.473200X0.838200*%
%ADD26C,1.193800*%
%ADD27R,5.603200X3.103200*%
%ADD28R,1.603200X3.203200*%
%ADD29R,2.603200X2.603200*%
%ADD30R,2.703200X4.703200*%
%ADD31R,0.457200X2.235200*%
%ADD32R,2.235200X0.457200*%
%ADD33R,1.903200X2.603200*%
%ADD34R,1.753200X0.803200*%
%ADD35R,2.003200X1.403200*%
%ADD36R,1.803200X1.503200*%
%ADD37R,1.673200X1.473200*%
%ADD38R,2.403200X7.703200*%
%ADD39R,2.903200X2.753200*%
%ADD40R,1.473200X2.263200*%
%ADD41R,0.762000X2.184400*%
%ADD42R,2.692400X2.209800*%
%ADD43R,1.403200X0.753200*%
%ADD44R,1.003200X1.103200*%
%ADD45C,1.828800*%
%ADD46C,1.930400*%
%ADD47C,2.451100*%
%ADD48C,2.153200*%
%ADD49C,3.269200*%
%ADD50C,5.619200*%

G36*
X-100165Y828027D02*
X-100165Y828027D01*
X-100099Y828029D01*
X-100056Y828047D01*
X-100009Y828055D01*
X-99952Y828089D01*
X-99892Y828114D01*
X-99857Y828145D01*
X-99816Y828170D01*
X-99775Y828221D01*
X-99726Y828265D01*
X-99704Y828307D01*
X-99675Y828344D01*
X-99654Y828406D01*
X-99623Y828465D01*
X-99615Y828519D01*
X-99603Y828556D01*
X-99604Y828596D01*
X-99596Y828650D01*
X-99596Y840016D01*
X-49430Y840016D01*
X-49365Y840027D01*
X-49299Y840029D01*
X-49256Y840047D01*
X-49209Y840055D01*
X-49152Y840089D01*
X-49092Y840114D01*
X-49057Y840145D01*
X-49016Y840170D01*
X-48975Y840221D01*
X-48926Y840265D01*
X-48904Y840307D01*
X-48875Y840344D01*
X-48854Y840406D01*
X-48823Y840465D01*
X-48815Y840519D01*
X-48803Y840556D01*
X-48804Y840596D01*
X-48796Y840650D01*
X-48796Y925650D01*
X-48807Y925715D01*
X-48809Y925781D01*
X-48827Y925824D01*
X-48835Y925871D01*
X-48869Y925928D01*
X-48894Y925988D01*
X-48925Y926023D01*
X-48950Y926064D01*
X-49001Y926106D01*
X-49045Y926154D01*
X-49087Y926176D01*
X-49124Y926205D01*
X-49186Y926226D01*
X-49245Y926257D01*
X-49299Y926265D01*
X-49336Y926277D01*
X-49376Y926276D01*
X-49430Y926284D01*
X-99596Y926284D01*
X-99596Y936650D01*
X-99607Y936715D01*
X-99609Y936781D01*
X-99627Y936824D01*
X-99635Y936871D01*
X-99669Y936928D01*
X-99694Y936988D01*
X-99725Y937023D01*
X-99750Y937064D01*
X-99801Y937106D01*
X-99845Y937154D01*
X-99887Y937176D01*
X-99924Y937205D01*
X-99986Y937226D01*
X-100045Y937257D01*
X-100099Y937265D01*
X-100136Y937277D01*
X-100176Y937276D01*
X-100230Y937284D01*
X-119330Y937284D01*
X-119395Y937273D01*
X-119461Y937271D01*
X-119504Y937253D01*
X-119551Y937245D01*
X-119608Y937211D01*
X-119668Y937186D01*
X-119703Y937155D01*
X-119744Y937130D01*
X-119786Y937079D01*
X-119834Y937035D01*
X-119856Y936993D01*
X-119885Y936956D01*
X-119906Y936894D01*
X-119937Y936835D01*
X-119945Y936781D01*
X-119957Y936744D01*
X-119956Y936704D01*
X-119964Y936650D01*
X-119964Y828650D01*
X-119953Y828585D01*
X-119951Y828519D01*
X-119933Y828476D01*
X-119925Y828429D01*
X-119891Y828372D01*
X-119866Y828312D01*
X-119835Y828277D01*
X-119810Y828236D01*
X-119759Y828195D01*
X-119715Y828146D01*
X-119673Y828124D01*
X-119636Y828095D01*
X-119574Y828074D01*
X-119515Y828043D01*
X-119461Y828035D01*
X-119424Y828023D01*
X-119384Y828024D01*
X-119330Y828016D01*
X-100230Y828016D01*
X-100165Y828027D01*
G37*
D10*
X-809070Y458580D03*
X-809070Y-458580D03*
X-403040Y-345960D03*
X-471920Y-95000D03*
X-291920Y-95000D03*
X-291920Y95000D03*
X-471920Y95000D03*
X-79880Y145970D03*
X-79880Y-146130D03*
X97920Y145970D03*
X-403040Y345960D03*
X-205050Y543950D03*
X205050Y543950D03*
X403040Y345960D03*
X809070Y458580D03*
X272450Y889200D03*
X-272450Y889200D03*
X-272450Y-889200D03*
X272450Y-889200D03*
X205050Y-543950D03*
X403040Y-345960D03*
X-205050Y-543950D03*
X809070Y-458580D03*
D11*
X558800Y-112522D03*
X558800Y-139700D03*
X558800Y-166878D03*
D12*
X338900Y-144200D03*
X345400Y-144200D03*
X351900Y-144200D03*
X358400Y-144200D03*
X364900Y-144200D03*
X371400Y-144200D03*
X377900Y-144200D03*
X384400Y-144200D03*
X390900Y-144200D03*
X397400Y-144200D03*
X403900Y-144200D03*
X410400Y-144200D03*
X397400Y-71700D03*
X390900Y-71700D03*
X384400Y-71700D03*
X377900Y-71700D03*
X371400Y-71700D03*
X364900Y-71700D03*
X358400Y-71700D03*
X351900Y-71700D03*
X345400Y-71700D03*
X338900Y-71700D03*
X403900Y-71700D03*
X410400Y-71700D03*
D13*
X317500Y-74050D03*
X317500Y-91050D03*
X431800Y-160900D03*
X431800Y-143900D03*
D14*
G36*
X-345095Y344767D02*
X-351128Y350800D01*
X-339793Y362135D01*
X-333760Y356102D01*
X-345095Y344767D01*
G37*
G36*
X-338024Y337696D02*
X-344057Y343729D01*
X-332722Y355064D01*
X-326689Y349031D01*
X-338024Y337696D01*
G37*
G36*
X-330953Y330625D02*
X-336986Y336658D01*
X-325651Y347993D01*
X-319618Y341960D01*
X-330953Y330625D01*
G37*
G36*
X-323882Y323554D02*
X-329915Y329587D01*
X-318580Y340922D01*
X-312547Y334889D01*
X-323882Y323554D01*
G37*
G36*
X-316811Y316482D02*
X-322844Y322515D01*
X-311509Y333850D01*
X-305476Y327817D01*
X-316811Y316482D01*
G37*
G36*
X-309740Y309411D02*
X-315773Y315444D01*
X-304438Y326779D01*
X-298405Y320746D01*
X-309740Y309411D01*
G37*
G36*
X-302669Y302340D02*
X-308702Y308373D01*
X-297367Y319708D01*
X-291334Y313675D01*
X-302669Y302340D01*
G37*
G36*
X-295598Y295269D02*
X-301631Y301302D01*
X-290296Y312637D01*
X-284263Y306604D01*
X-295598Y295269D01*
G37*
G36*
X-288527Y288198D02*
X-294560Y294231D01*
X-283225Y305566D01*
X-277192Y299533D01*
X-288527Y288198D01*
G37*
G36*
X-281456Y281127D02*
X-287489Y287160D01*
X-276154Y298495D01*
X-270121Y292462D01*
X-281456Y281127D01*
G37*
G36*
X-274385Y274056D02*
X-280418Y280089D01*
X-269083Y291424D01*
X-263050Y285391D01*
X-274385Y274056D01*
G37*
G36*
X-267313Y266985D02*
X-273346Y273018D01*
X-262011Y284353D01*
X-255978Y278320D01*
X-267313Y266985D01*
G37*
G36*
X-260242Y259914D02*
X-266275Y265947D01*
X-254940Y277282D01*
X-248907Y271249D01*
X-260242Y259914D01*
G37*
G36*
X-253171Y252843D02*
X-259204Y258876D01*
X-247869Y270211D01*
X-241836Y264178D01*
X-253171Y252843D01*
G37*
G36*
X-246100Y245772D02*
X-252133Y251805D01*
X-240798Y263140D01*
X-234765Y257107D01*
X-246100Y245772D01*
G37*
G36*
X-117407Y374465D02*
X-123440Y380498D01*
X-112105Y391833D01*
X-106072Y385800D01*
X-117407Y374465D01*
G37*
G36*
X-124478Y381536D02*
X-130511Y387569D01*
X-119176Y398904D01*
X-113143Y392871D01*
X-124478Y381536D01*
G37*
G36*
X-131549Y388607D02*
X-137582Y394640D01*
X-126247Y405975D01*
X-120214Y399942D01*
X-131549Y388607D01*
G37*
G36*
X-138620Y395678D02*
X-144653Y401711D01*
X-133318Y413046D01*
X-127285Y407013D01*
X-138620Y395678D01*
G37*
G36*
X-145691Y402750D02*
X-151724Y408783D01*
X-140389Y420118D01*
X-134356Y414085D01*
X-145691Y402750D01*
G37*
G36*
X-152762Y409821D02*
X-158795Y415854D01*
X-147460Y427189D01*
X-141427Y421156D01*
X-152762Y409821D01*
G37*
G36*
X-159833Y416892D02*
X-165866Y422925D01*
X-154531Y434260D01*
X-148498Y428227D01*
X-159833Y416892D01*
G37*
G36*
X-166904Y423963D02*
X-172937Y429996D01*
X-161602Y441331D01*
X-155569Y435298D01*
X-166904Y423963D01*
G37*
G36*
X-173975Y431034D02*
X-180008Y437067D01*
X-168673Y448402D01*
X-162640Y442369D01*
X-173975Y431034D01*
G37*
G36*
X-181046Y438105D02*
X-187079Y444138D01*
X-175744Y455473D01*
X-169711Y449440D01*
X-181046Y438105D01*
G37*
G36*
X-188117Y445176D02*
X-194150Y451209D01*
X-182815Y462544D01*
X-176782Y456511D01*
X-188117Y445176D01*
G37*
G36*
X-195189Y452247D02*
X-201222Y458280D01*
X-189887Y469615D01*
X-183854Y463582D01*
X-195189Y452247D01*
G37*
G36*
X-202260Y459318D02*
X-208293Y465351D01*
X-196958Y476686D01*
X-190925Y470653D01*
X-202260Y459318D01*
G37*
G36*
X-209331Y466389D02*
X-215364Y472422D01*
X-204029Y483757D01*
X-197996Y477724D01*
X-209331Y466389D01*
G37*
G36*
X-216402Y473460D02*
X-222435Y479493D01*
X-211100Y490828D01*
X-205067Y484795D01*
X-216402Y473460D01*
G37*
D15*
G36*
X-233020Y377294D02*
X-278508Y422782D01*
X-239948Y461342D01*
X-194460Y415854D01*
X-233020Y377294D01*
G37*
G36*
X-174118Y318392D02*
X-219606Y363880D01*
X-181046Y402440D01*
X-135558Y356952D01*
X-174118Y318392D01*
G37*
D16*
G36*
X-232313Y290319D02*
X-306581Y364587D01*
X-268021Y403147D01*
X-193753Y328879D01*
X-232313Y290319D01*
G37*
D17*
G36*
X-191968Y246625D02*
X-204719Y259376D01*
X-182070Y282025D01*
X-169319Y269274D01*
X-191968Y246625D01*
G37*
G36*
X-159724Y214381D02*
X-172475Y227132D01*
X-149826Y249781D01*
X-137075Y237030D01*
X-159724Y214381D01*
G37*
D18*
G36*
X-125264Y258275D02*
X-160825Y293836D01*
X-118978Y335683D01*
X-83417Y300122D01*
X-125264Y258275D01*
G37*
D19*
X-19178Y425578D03*
D20*
X-44322Y450722D03*
D21*
G36*
X-365449Y318193D02*
X-374663Y308979D01*
X-383171Y317487D01*
X-373957Y326701D01*
X-365449Y318193D01*
G37*
G36*
X-353429Y330213D02*
X-362643Y320999D01*
X-371151Y329507D01*
X-361937Y338721D01*
X-353429Y330213D01*
G37*
G36*
X-282251Y240607D02*
X-273037Y249821D01*
X-264529Y241313D01*
X-273743Y232099D01*
X-282251Y240607D01*
G37*
G36*
X-294271Y228587D02*
X-285057Y237801D01*
X-276549Y229293D01*
X-285763Y220079D01*
X-294271Y228587D01*
G37*
G36*
X-294951Y253307D02*
X-285737Y262521D01*
X-277229Y254013D01*
X-286443Y244799D01*
X-294951Y253307D01*
G37*
G36*
X-306971Y241287D02*
X-297757Y250501D01*
X-289249Y241993D01*
X-298463Y232779D01*
X-306971Y241287D01*
G37*
G36*
X-358451Y316807D02*
X-349237Y326021D01*
X-340729Y317513D01*
X-349943Y308299D01*
X-358451Y316807D01*
G37*
G36*
X-370471Y304787D02*
X-361257Y314001D01*
X-352749Y305493D01*
X-361963Y296279D01*
X-370471Y304787D01*
G37*
G36*
X-333051Y291407D02*
X-323837Y300621D01*
X-315329Y292113D01*
X-324543Y282899D01*
X-333051Y291407D01*
G37*
G36*
X-345071Y279387D02*
X-335857Y288601D01*
X-327349Y280093D01*
X-336563Y270879D01*
X-345071Y279387D01*
G37*
G36*
X-314649Y267393D02*
X-323863Y258179D01*
X-332371Y266687D01*
X-323157Y275901D01*
X-314649Y267393D01*
G37*
G36*
X-302629Y279413D02*
X-311843Y270199D01*
X-320351Y278707D01*
X-311137Y287921D01*
X-302629Y279413D01*
G37*
G36*
X-301949Y254693D02*
X-311163Y245479D01*
X-319671Y253987D01*
X-310457Y263201D01*
X-301949Y254693D01*
G37*
G36*
X-289929Y266713D02*
X-299143Y257499D01*
X-307651Y266007D01*
X-298437Y275221D01*
X-289929Y266713D01*
G37*
G36*
X-340049Y241993D02*
X-349263Y232779D01*
X-357771Y241287D01*
X-348557Y250501D01*
X-340049Y241993D01*
G37*
G36*
X-328029Y254013D02*
X-337243Y244799D01*
X-345751Y253307D01*
X-336537Y262521D01*
X-328029Y254013D01*
G37*
G36*
X-345751Y304107D02*
X-336537Y313321D01*
X-328029Y304813D01*
X-337243Y295599D01*
X-345751Y304107D01*
G37*
G36*
X-357771Y292087D02*
X-348557Y301301D01*
X-340049Y292793D01*
X-349263Y283579D01*
X-357771Y292087D01*
G37*
G36*
X-352749Y254693D02*
X-361963Y245479D01*
X-370471Y253987D01*
X-361257Y263201D01*
X-352749Y254693D01*
G37*
G36*
X-340729Y266713D02*
X-349943Y257499D01*
X-358451Y266007D01*
X-349237Y275221D01*
X-340729Y266713D01*
G37*
D22*
X-373384Y527199D02*
X-368449Y532134D01*
X-363514Y527199D01*
X-368449Y522264D01*
X-373384Y527199D01*
X-373249Y527064D02*
X-363649Y527064D01*
X-368179Y531864D02*
X-368719Y531864D01*
X-380851Y544536D02*
X-385786Y539601D01*
X-380851Y544536D02*
X-375916Y539601D01*
X-380851Y534666D01*
X-385786Y539601D01*
X-385651Y539466D02*
X-376051Y539466D01*
X-380581Y544266D02*
X-381121Y544266D01*
X-394966Y520551D02*
X-399901Y515616D01*
X-404836Y520551D01*
X-399901Y525486D01*
X-394966Y520551D01*
X-395101Y520416D02*
X-404701Y520416D01*
X-400171Y525216D02*
X-399631Y525216D01*
X-382564Y508149D02*
X-387499Y503214D01*
X-392434Y508149D01*
X-387499Y513084D01*
X-382564Y508149D01*
X-382699Y508014D02*
X-392299Y508014D01*
X-387769Y512814D02*
X-387229Y512814D01*
D21*
G36*
X-359099Y495993D02*
X-368313Y486779D01*
X-376821Y495287D01*
X-367607Y504501D01*
X-359099Y495993D01*
G37*
G36*
X-347079Y508013D02*
X-356293Y498799D01*
X-364801Y507307D01*
X-355587Y516521D01*
X-347079Y508013D01*
G37*
D14*
G36*
X205067Y484795D02*
X211100Y490828D01*
X222435Y479493D01*
X216402Y473460D01*
X205067Y484795D01*
G37*
G36*
X197996Y477724D02*
X204029Y483757D01*
X215364Y472422D01*
X209331Y466389D01*
X197996Y477724D01*
G37*
G36*
X190925Y470653D02*
X196958Y476686D01*
X208293Y465351D01*
X202260Y459318D01*
X190925Y470653D01*
G37*
G36*
X183854Y463582D02*
X189887Y469615D01*
X201222Y458280D01*
X195189Y452247D01*
X183854Y463582D01*
G37*
G36*
X176782Y456511D02*
X182815Y462544D01*
X194150Y451209D01*
X188117Y445176D01*
X176782Y456511D01*
G37*
G36*
X169711Y449440D02*
X175744Y455473D01*
X187079Y444138D01*
X181046Y438105D01*
X169711Y449440D01*
G37*
G36*
X162640Y442369D02*
X168673Y448402D01*
X180008Y437067D01*
X173975Y431034D01*
X162640Y442369D01*
G37*
G36*
X155569Y435298D02*
X161602Y441331D01*
X172937Y429996D01*
X166904Y423963D01*
X155569Y435298D01*
G37*
G36*
X148498Y428227D02*
X154531Y434260D01*
X165866Y422925D01*
X159833Y416892D01*
X148498Y428227D01*
G37*
G36*
X141427Y421156D02*
X147460Y427189D01*
X158795Y415854D01*
X152762Y409821D01*
X141427Y421156D01*
G37*
G36*
X134356Y414085D02*
X140389Y420118D01*
X151724Y408783D01*
X145691Y402750D01*
X134356Y414085D01*
G37*
G36*
X127285Y407013D02*
X133318Y413046D01*
X144653Y401711D01*
X138620Y395678D01*
X127285Y407013D01*
G37*
G36*
X120214Y399942D02*
X126247Y405975D01*
X137582Y394640D01*
X131549Y388607D01*
X120214Y399942D01*
G37*
G36*
X113143Y392871D02*
X119176Y398904D01*
X130511Y387569D01*
X124478Y381536D01*
X113143Y392871D01*
G37*
G36*
X106072Y385800D02*
X112105Y391833D01*
X123440Y380498D01*
X117407Y374465D01*
X106072Y385800D01*
G37*
G36*
X234765Y257107D02*
X240798Y263140D01*
X252133Y251805D01*
X246100Y245772D01*
X234765Y257107D01*
G37*
G36*
X241836Y264178D02*
X247869Y270211D01*
X259204Y258876D01*
X253171Y252843D01*
X241836Y264178D01*
G37*
G36*
X248907Y271249D02*
X254940Y277282D01*
X266275Y265947D01*
X260242Y259914D01*
X248907Y271249D01*
G37*
G36*
X255978Y278320D02*
X262011Y284353D01*
X273346Y273018D01*
X267313Y266985D01*
X255978Y278320D01*
G37*
G36*
X263050Y285391D02*
X269083Y291424D01*
X280418Y280089D01*
X274385Y274056D01*
X263050Y285391D01*
G37*
G36*
X270121Y292462D02*
X276154Y298495D01*
X287489Y287160D01*
X281456Y281127D01*
X270121Y292462D01*
G37*
G36*
X277192Y299533D02*
X283225Y305566D01*
X294560Y294231D01*
X288527Y288198D01*
X277192Y299533D01*
G37*
G36*
X284263Y306604D02*
X290296Y312637D01*
X301631Y301302D01*
X295598Y295269D01*
X284263Y306604D01*
G37*
G36*
X291334Y313675D02*
X297367Y319708D01*
X308702Y308373D01*
X302669Y302340D01*
X291334Y313675D01*
G37*
G36*
X298405Y320746D02*
X304438Y326779D01*
X315773Y315444D01*
X309740Y309411D01*
X298405Y320746D01*
G37*
G36*
X305476Y327817D02*
X311509Y333850D01*
X322844Y322515D01*
X316811Y316482D01*
X305476Y327817D01*
G37*
G36*
X312547Y334889D02*
X318580Y340922D01*
X329915Y329587D01*
X323882Y323554D01*
X312547Y334889D01*
G37*
G36*
X319618Y341960D02*
X325651Y347993D01*
X336986Y336658D01*
X330953Y330625D01*
X319618Y341960D01*
G37*
G36*
X326689Y349031D02*
X332722Y355064D01*
X344057Y343729D01*
X338024Y337696D01*
X326689Y349031D01*
G37*
G36*
X333760Y356102D02*
X339793Y362135D01*
X351128Y350800D01*
X345095Y344767D01*
X333760Y356102D01*
G37*
D15*
G36*
X237594Y372720D02*
X283082Y418208D01*
X321642Y379648D01*
X276154Y334160D01*
X237594Y372720D01*
G37*
G36*
X178692Y313818D02*
X224180Y359306D01*
X262740Y320746D01*
X217252Y275258D01*
X178692Y313818D01*
G37*
D16*
G36*
X150619Y372013D02*
X224887Y446281D01*
X263447Y407721D01*
X189179Y333453D01*
X150619Y372013D01*
G37*
D17*
G36*
X113275Y325318D02*
X126026Y338069D01*
X148675Y315420D01*
X135924Y302669D01*
X113275Y325318D01*
G37*
G36*
X81031Y293074D02*
X93782Y305825D01*
X116431Y283176D01*
X103680Y270425D01*
X81031Y293074D01*
G37*
D18*
G36*
X124925Y258614D02*
X160486Y294175D01*
X202333Y252328D01*
X166772Y216767D01*
X124925Y258614D01*
G37*
D23*
X285878Y158878D03*
D20*
X311022Y184022D03*
D21*
G36*
X178493Y505149D02*
X169279Y514363D01*
X177787Y522871D01*
X187001Y513657D01*
X178493Y505149D01*
G37*
G36*
X190513Y493129D02*
X181299Y502343D01*
X189807Y510851D01*
X199021Y501637D01*
X190513Y493129D01*
G37*
G36*
X100907Y421951D02*
X110121Y412737D01*
X101613Y404229D01*
X92399Y413443D01*
X100907Y421951D01*
G37*
G36*
X88887Y433971D02*
X98101Y424757D01*
X89593Y416249D01*
X80379Y425463D01*
X88887Y433971D01*
G37*
G36*
X113607Y434651D02*
X122821Y425437D01*
X114313Y416929D01*
X105099Y426143D01*
X113607Y434651D01*
G37*
G36*
X101587Y446671D02*
X110801Y437457D01*
X102293Y428949D01*
X93079Y438163D01*
X101587Y446671D01*
G37*
G36*
X177107Y498151D02*
X186321Y488937D01*
X177813Y480429D01*
X168599Y489643D01*
X177107Y498151D01*
G37*
G36*
X165087Y510171D02*
X174301Y500957D01*
X165793Y492449D01*
X156579Y501663D01*
X165087Y510171D01*
G37*
G36*
X151707Y472751D02*
X160921Y463537D01*
X152413Y455029D01*
X143199Y464243D01*
X151707Y472751D01*
G37*
G36*
X139687Y484771D02*
X148901Y475557D01*
X140393Y467049D01*
X131179Y476263D01*
X139687Y484771D01*
G37*
G36*
X127693Y454349D02*
X118479Y463563D01*
X126987Y472071D01*
X136201Y462857D01*
X127693Y454349D01*
G37*
G36*
X139713Y442329D02*
X130499Y451543D01*
X139007Y460051D01*
X148221Y450837D01*
X139713Y442329D01*
G37*
G36*
X114993Y441649D02*
X105779Y450863D01*
X114287Y459371D01*
X123501Y450157D01*
X114993Y441649D01*
G37*
G36*
X127013Y429629D02*
X117799Y438843D01*
X126307Y447351D01*
X135521Y438137D01*
X127013Y429629D01*
G37*
G36*
X102293Y479749D02*
X93079Y488963D01*
X101587Y497471D01*
X110801Y488257D01*
X102293Y479749D01*
G37*
G36*
X114313Y467729D02*
X105099Y476943D01*
X113607Y485451D01*
X122821Y476237D01*
X114313Y467729D01*
G37*
G36*
X164407Y485451D02*
X173621Y476237D01*
X165113Y467729D01*
X155899Y476943D01*
X164407Y485451D01*
G37*
G36*
X152387Y497471D02*
X161601Y488257D01*
X153093Y479749D01*
X143879Y488963D01*
X152387Y497471D01*
G37*
G36*
X114993Y492449D02*
X105779Y501663D01*
X114287Y510171D01*
X123501Y500957D01*
X114993Y492449D01*
G37*
G36*
X127013Y480429D02*
X117799Y489643D01*
X126307Y498151D01*
X135521Y488937D01*
X127013Y480429D01*
G37*
D14*
G36*
X112105Y-391833D02*
X106072Y-385800D01*
X117407Y-374465D01*
X123440Y-380498D01*
X112105Y-391833D01*
G37*
G36*
X119176Y-398904D02*
X113143Y-392871D01*
X124478Y-381536D01*
X130511Y-387569D01*
X119176Y-398904D01*
G37*
G36*
X126247Y-405975D02*
X120214Y-399942D01*
X131549Y-388607D01*
X137582Y-394640D01*
X126247Y-405975D01*
G37*
G36*
X133318Y-413046D02*
X127285Y-407013D01*
X138620Y-395678D01*
X144653Y-401711D01*
X133318Y-413046D01*
G37*
G36*
X140389Y-420118D02*
X134356Y-414085D01*
X145691Y-402750D01*
X151724Y-408783D01*
X140389Y-420118D01*
G37*
G36*
X147460Y-427189D02*
X141427Y-421156D01*
X152762Y-409821D01*
X158795Y-415854D01*
X147460Y-427189D01*
G37*
G36*
X154531Y-434260D02*
X148498Y-428227D01*
X159833Y-416892D01*
X165866Y-422925D01*
X154531Y-434260D01*
G37*
G36*
X161602Y-441331D02*
X155569Y-435298D01*
X166904Y-423963D01*
X172937Y-429996D01*
X161602Y-441331D01*
G37*
G36*
X168673Y-448402D02*
X162640Y-442369D01*
X173975Y-431034D01*
X180008Y-437067D01*
X168673Y-448402D01*
G37*
G36*
X175744Y-455473D02*
X169711Y-449440D01*
X181046Y-438105D01*
X187079Y-444138D01*
X175744Y-455473D01*
G37*
G36*
X182815Y-462544D02*
X176782Y-456511D01*
X188117Y-445176D01*
X194150Y-451209D01*
X182815Y-462544D01*
G37*
G36*
X189887Y-469615D02*
X183854Y-463582D01*
X195189Y-452247D01*
X201222Y-458280D01*
X189887Y-469615D01*
G37*
G36*
X196958Y-476686D02*
X190925Y-470653D01*
X202260Y-459318D01*
X208293Y-465351D01*
X196958Y-476686D01*
G37*
G36*
X204029Y-483757D02*
X197996Y-477724D01*
X209331Y-466389D01*
X215364Y-472422D01*
X204029Y-483757D01*
G37*
G36*
X211100Y-490828D02*
X205067Y-484795D01*
X216402Y-473460D01*
X222435Y-479493D01*
X211100Y-490828D01*
G37*
G36*
X339793Y-362135D02*
X333760Y-356102D01*
X345095Y-344767D01*
X351128Y-350800D01*
X339793Y-362135D01*
G37*
G36*
X332722Y-355064D02*
X326689Y-349031D01*
X338024Y-337696D01*
X344057Y-343729D01*
X332722Y-355064D01*
G37*
G36*
X325651Y-347993D02*
X319618Y-341960D01*
X330953Y-330625D01*
X336986Y-336658D01*
X325651Y-347993D01*
G37*
G36*
X318580Y-340922D02*
X312547Y-334889D01*
X323882Y-323554D01*
X329915Y-329587D01*
X318580Y-340922D01*
G37*
G36*
X311509Y-333850D02*
X305476Y-327817D01*
X316811Y-316482D01*
X322844Y-322515D01*
X311509Y-333850D01*
G37*
G36*
X304438Y-326779D02*
X298405Y-320746D01*
X309740Y-309411D01*
X315773Y-315444D01*
X304438Y-326779D01*
G37*
G36*
X297367Y-319708D02*
X291334Y-313675D01*
X302669Y-302340D01*
X308702Y-308373D01*
X297367Y-319708D01*
G37*
G36*
X290296Y-312637D02*
X284263Y-306604D01*
X295598Y-295269D01*
X301631Y-301302D01*
X290296Y-312637D01*
G37*
G36*
X283225Y-305566D02*
X277192Y-299533D01*
X288527Y-288198D01*
X294560Y-294231D01*
X283225Y-305566D01*
G37*
G36*
X276154Y-298495D02*
X270121Y-292462D01*
X281456Y-281127D01*
X287489Y-287160D01*
X276154Y-298495D01*
G37*
G36*
X269083Y-291424D02*
X263050Y-285391D01*
X274385Y-274056D01*
X280418Y-280089D01*
X269083Y-291424D01*
G37*
G36*
X262011Y-284353D02*
X255978Y-278320D01*
X267313Y-266985D01*
X273346Y-273018D01*
X262011Y-284353D01*
G37*
G36*
X254940Y-277282D02*
X248907Y-271249D01*
X260242Y-259914D01*
X266275Y-265947D01*
X254940Y-277282D01*
G37*
G36*
X247869Y-270211D02*
X241836Y-264178D01*
X253171Y-252843D01*
X259204Y-258876D01*
X247869Y-270211D01*
G37*
G36*
X240798Y-263140D02*
X234765Y-257107D01*
X246100Y-245772D01*
X252133Y-251805D01*
X240798Y-263140D01*
G37*
D15*
G36*
X224180Y-359306D02*
X178692Y-313818D01*
X217252Y-275258D01*
X262740Y-320746D01*
X224180Y-359306D01*
G37*
G36*
X283082Y-418208D02*
X237594Y-372720D01*
X276154Y-334160D01*
X321642Y-379648D01*
X283082Y-418208D01*
G37*
D16*
G36*
X224887Y-446281D02*
X150619Y-372013D01*
X189179Y-333453D01*
X263447Y-407721D01*
X224887Y-446281D01*
G37*
D17*
G36*
X93782Y-305825D02*
X81031Y-293074D01*
X103680Y-270425D01*
X116431Y-283176D01*
X93782Y-305825D01*
G37*
G36*
X126026Y-338069D02*
X113275Y-325318D01*
X135924Y-302669D01*
X148675Y-315420D01*
X126026Y-338069D01*
G37*
D18*
G36*
X160486Y-294175D02*
X124925Y-258614D01*
X166772Y-216767D01*
X202333Y-252328D01*
X160486Y-294175D01*
G37*
D19*
X311022Y-184022D03*
D20*
X285878Y-158878D03*
D21*
G36*
X98101Y-424757D02*
X88887Y-433971D01*
X80379Y-425463D01*
X89593Y-416249D01*
X98101Y-424757D01*
G37*
G36*
X110121Y-412737D02*
X100907Y-421951D01*
X92399Y-413443D01*
X101613Y-404229D01*
X110121Y-412737D01*
G37*
G36*
X181299Y-502343D02*
X190513Y-493129D01*
X199021Y-501637D01*
X189807Y-510851D01*
X181299Y-502343D01*
G37*
G36*
X169279Y-514363D02*
X178493Y-505149D01*
X187001Y-513657D01*
X177787Y-522871D01*
X169279Y-514363D01*
G37*
G36*
X168599Y-489643D02*
X177813Y-480429D01*
X186321Y-488937D01*
X177107Y-498151D01*
X168599Y-489643D01*
G37*
G36*
X156579Y-501663D02*
X165793Y-492449D01*
X174301Y-500957D01*
X165087Y-510171D01*
X156579Y-501663D01*
G37*
G36*
X105099Y-426143D02*
X114313Y-416929D01*
X122821Y-425437D01*
X113607Y-434651D01*
X105099Y-426143D01*
G37*
G36*
X93079Y-438163D02*
X102293Y-428949D01*
X110801Y-437457D01*
X101587Y-446671D01*
X93079Y-438163D01*
G37*
G36*
X130499Y-451543D02*
X139713Y-442329D01*
X148221Y-450837D01*
X139007Y-460051D01*
X130499Y-451543D01*
G37*
G36*
X118479Y-463563D02*
X127693Y-454349D01*
X136201Y-462857D01*
X126987Y-472071D01*
X118479Y-463563D01*
G37*
G36*
X148901Y-475557D02*
X139687Y-484771D01*
X131179Y-476263D01*
X140393Y-467049D01*
X148901Y-475557D01*
G37*
G36*
X160921Y-463537D02*
X151707Y-472751D01*
X143199Y-464243D01*
X152413Y-455029D01*
X160921Y-463537D01*
G37*
G36*
X161601Y-488257D02*
X152387Y-497471D01*
X143879Y-488963D01*
X153093Y-479749D01*
X161601Y-488257D01*
G37*
G36*
X173621Y-476237D02*
X164407Y-485451D01*
X155899Y-476943D01*
X165113Y-467729D01*
X173621Y-476237D01*
G37*
G36*
X123501Y-500957D02*
X114287Y-510171D01*
X105779Y-501663D01*
X114993Y-492449D01*
X123501Y-500957D01*
G37*
G36*
X135521Y-488937D02*
X126307Y-498151D01*
X117799Y-489643D01*
X127013Y-480429D01*
X135521Y-488937D01*
G37*
G36*
X117799Y-438843D02*
X127013Y-429629D01*
X135521Y-438137D01*
X126307Y-447351D01*
X117799Y-438843D01*
G37*
G36*
X105779Y-450863D02*
X114993Y-441649D01*
X123501Y-450157D01*
X114287Y-459371D01*
X105779Y-450863D01*
G37*
G36*
X110801Y-488257D02*
X101587Y-497471D01*
X93079Y-488963D01*
X102293Y-479749D01*
X110801Y-488257D01*
G37*
G36*
X122821Y-476237D02*
X113607Y-485451D01*
X105099Y-476943D01*
X114313Y-467729D01*
X122821Y-476237D01*
G37*
D14*
G36*
X-252133Y-251805D02*
X-246100Y-245772D01*
X-234765Y-257107D01*
X-240798Y-263140D01*
X-252133Y-251805D01*
G37*
G36*
X-259204Y-258876D02*
X-253171Y-252843D01*
X-241836Y-264178D01*
X-247869Y-270211D01*
X-259204Y-258876D01*
G37*
G36*
X-266275Y-265947D02*
X-260242Y-259914D01*
X-248907Y-271249D01*
X-254940Y-277282D01*
X-266275Y-265947D01*
G37*
G36*
X-273346Y-273018D02*
X-267313Y-266985D01*
X-255978Y-278320D01*
X-262011Y-284353D01*
X-273346Y-273018D01*
G37*
G36*
X-280418Y-280089D02*
X-274385Y-274056D01*
X-263050Y-285391D01*
X-269083Y-291424D01*
X-280418Y-280089D01*
G37*
G36*
X-287489Y-287160D02*
X-281456Y-281127D01*
X-270121Y-292462D01*
X-276154Y-298495D01*
X-287489Y-287160D01*
G37*
G36*
X-294560Y-294231D02*
X-288527Y-288198D01*
X-277192Y-299533D01*
X-283225Y-305566D01*
X-294560Y-294231D01*
G37*
G36*
X-301631Y-301302D02*
X-295598Y-295269D01*
X-284263Y-306604D01*
X-290296Y-312637D01*
X-301631Y-301302D01*
G37*
G36*
X-308702Y-308373D02*
X-302669Y-302340D01*
X-291334Y-313675D01*
X-297367Y-319708D01*
X-308702Y-308373D01*
G37*
G36*
X-315773Y-315444D02*
X-309740Y-309411D01*
X-298405Y-320746D01*
X-304438Y-326779D01*
X-315773Y-315444D01*
G37*
G36*
X-322844Y-322515D02*
X-316811Y-316482D01*
X-305476Y-327817D01*
X-311509Y-333850D01*
X-322844Y-322515D01*
G37*
G36*
X-329915Y-329587D02*
X-323882Y-323554D01*
X-312547Y-334889D01*
X-318580Y-340922D01*
X-329915Y-329587D01*
G37*
G36*
X-336986Y-336658D02*
X-330953Y-330625D01*
X-319618Y-341960D01*
X-325651Y-347993D01*
X-336986Y-336658D01*
G37*
G36*
X-344057Y-343729D02*
X-338024Y-337696D01*
X-326689Y-349031D01*
X-332722Y-355064D01*
X-344057Y-343729D01*
G37*
G36*
X-351128Y-350800D02*
X-345095Y-344767D01*
X-333760Y-356102D01*
X-339793Y-362135D01*
X-351128Y-350800D01*
G37*
G36*
X-222435Y-479493D02*
X-216402Y-473460D01*
X-205067Y-484795D01*
X-211100Y-490828D01*
X-222435Y-479493D01*
G37*
G36*
X-215364Y-472422D02*
X-209331Y-466389D01*
X-197996Y-477724D01*
X-204029Y-483757D01*
X-215364Y-472422D01*
G37*
G36*
X-208293Y-465351D02*
X-202260Y-459318D01*
X-190925Y-470653D01*
X-196958Y-476686D01*
X-208293Y-465351D01*
G37*
G36*
X-201222Y-458280D02*
X-195189Y-452247D01*
X-183854Y-463582D01*
X-189887Y-469615D01*
X-201222Y-458280D01*
G37*
G36*
X-194150Y-451209D02*
X-188117Y-445176D01*
X-176782Y-456511D01*
X-182815Y-462544D01*
X-194150Y-451209D01*
G37*
G36*
X-187079Y-444138D02*
X-181046Y-438105D01*
X-169711Y-449440D01*
X-175744Y-455473D01*
X-187079Y-444138D01*
G37*
G36*
X-180008Y-437067D02*
X-173975Y-431034D01*
X-162640Y-442369D01*
X-168673Y-448402D01*
X-180008Y-437067D01*
G37*
G36*
X-172937Y-429996D02*
X-166904Y-423963D01*
X-155569Y-435298D01*
X-161602Y-441331D01*
X-172937Y-429996D01*
G37*
G36*
X-165866Y-422925D02*
X-159833Y-416892D01*
X-148498Y-428227D01*
X-154531Y-434260D01*
X-165866Y-422925D01*
G37*
G36*
X-158795Y-415854D02*
X-152762Y-409821D01*
X-141427Y-421156D01*
X-147460Y-427189D01*
X-158795Y-415854D01*
G37*
G36*
X-151724Y-408783D02*
X-145691Y-402750D01*
X-134356Y-414085D01*
X-140389Y-420118D01*
X-151724Y-408783D01*
G37*
G36*
X-144653Y-401711D02*
X-138620Y-395678D01*
X-127285Y-407013D01*
X-133318Y-413046D01*
X-144653Y-401711D01*
G37*
G36*
X-137582Y-394640D02*
X-131549Y-388607D01*
X-120214Y-399942D01*
X-126247Y-405975D01*
X-137582Y-394640D01*
G37*
G36*
X-130511Y-387569D02*
X-124478Y-381536D01*
X-113143Y-392871D01*
X-119176Y-398904D01*
X-130511Y-387569D01*
G37*
G36*
X-123440Y-380498D02*
X-117407Y-374465D01*
X-106072Y-385800D01*
X-112105Y-391833D01*
X-123440Y-380498D01*
G37*
D15*
G36*
X-219606Y-363880D02*
X-174118Y-318392D01*
X-135558Y-356952D01*
X-181046Y-402440D01*
X-219606Y-363880D01*
G37*
G36*
X-278508Y-422782D02*
X-233020Y-377294D01*
X-194460Y-415854D01*
X-239948Y-461342D01*
X-278508Y-422782D01*
G37*
D16*
G36*
X-306581Y-364587D02*
X-232313Y-290319D01*
X-193753Y-328879D01*
X-268021Y-403147D01*
X-306581Y-364587D01*
G37*
D17*
G36*
X-172475Y-227132D02*
X-159724Y-214381D01*
X-137075Y-237030D01*
X-149826Y-249781D01*
X-172475Y-227132D01*
G37*
G36*
X-204719Y-259376D02*
X-191968Y-246625D01*
X-169319Y-269274D01*
X-182070Y-282025D01*
X-204719Y-259376D01*
G37*
D18*
G36*
X-160825Y-293836D02*
X-125264Y-258275D01*
X-83417Y-300122D01*
X-118978Y-335683D01*
X-160825Y-293836D01*
G37*
D23*
X-44322Y-450722D03*
D20*
X-19178Y-425578D03*
D21*
G36*
X-285057Y-237801D02*
X-294271Y-228587D01*
X-285763Y-220079D01*
X-276549Y-229293D01*
X-285057Y-237801D01*
G37*
G36*
X-273037Y-249821D02*
X-282251Y-240607D01*
X-273743Y-232099D01*
X-264529Y-241313D01*
X-273037Y-249821D01*
G37*
G36*
X-362643Y-320999D02*
X-353429Y-330213D01*
X-361937Y-338721D01*
X-371151Y-329507D01*
X-362643Y-320999D01*
G37*
G36*
X-374663Y-308979D02*
X-365449Y-318193D01*
X-373957Y-326701D01*
X-383171Y-317487D01*
X-374663Y-308979D01*
G37*
G36*
X-349943Y-308299D02*
X-340729Y-317513D01*
X-349237Y-326021D01*
X-358451Y-316807D01*
X-349943Y-308299D01*
G37*
G36*
X-361963Y-296279D02*
X-352749Y-305493D01*
X-361257Y-314001D01*
X-370471Y-304787D01*
X-361963Y-296279D01*
G37*
G36*
X-286443Y-244799D02*
X-277229Y-254013D01*
X-285737Y-262521D01*
X-294951Y-253307D01*
X-286443Y-244799D01*
G37*
G36*
X-298463Y-232779D02*
X-289249Y-241993D01*
X-297757Y-250501D01*
X-306971Y-241287D01*
X-298463Y-232779D01*
G37*
G36*
X-311843Y-270199D02*
X-302629Y-279413D01*
X-311137Y-287921D01*
X-320351Y-278707D01*
X-311843Y-270199D01*
G37*
G36*
X-323863Y-258179D02*
X-314649Y-267393D01*
X-323157Y-275901D01*
X-332371Y-266687D01*
X-323863Y-258179D01*
G37*
G36*
X-335857Y-288601D02*
X-345071Y-279387D01*
X-336563Y-270879D01*
X-327349Y-280093D01*
X-335857Y-288601D01*
G37*
G36*
X-323837Y-300621D02*
X-333051Y-291407D01*
X-324543Y-282899D01*
X-315329Y-292113D01*
X-323837Y-300621D01*
G37*
G36*
X-348557Y-301301D02*
X-357771Y-292087D01*
X-349263Y-283579D01*
X-340049Y-292793D01*
X-348557Y-301301D01*
G37*
G36*
X-336537Y-313321D02*
X-345751Y-304107D01*
X-337243Y-295599D01*
X-328029Y-304813D01*
X-336537Y-313321D01*
G37*
G36*
X-361257Y-263201D02*
X-370471Y-253987D01*
X-361963Y-245479D01*
X-352749Y-254693D01*
X-361257Y-263201D01*
G37*
G36*
X-349237Y-275221D02*
X-358451Y-266007D01*
X-349943Y-257499D01*
X-340729Y-266713D01*
X-349237Y-275221D01*
G37*
G36*
X-299143Y-257499D02*
X-289929Y-266713D01*
X-298437Y-275221D01*
X-307651Y-266007D01*
X-299143Y-257499D01*
G37*
G36*
X-311163Y-245479D02*
X-301949Y-254693D01*
X-310457Y-263201D01*
X-319671Y-253987D01*
X-311163Y-245479D01*
G37*
G36*
X-348557Y-250501D02*
X-357771Y-241287D01*
X-349263Y-232779D01*
X-340049Y-241993D01*
X-348557Y-250501D01*
G37*
G36*
X-336537Y-262521D02*
X-345751Y-253307D01*
X-337243Y-244799D01*
X-328029Y-254013D01*
X-336537Y-262521D01*
G37*
G36*
X-145357Y441649D02*
X-154571Y450863D01*
X-146063Y459371D01*
X-136849Y450157D01*
X-145357Y441649D01*
G37*
G36*
X-133337Y429629D02*
X-142551Y438843D01*
X-134043Y447351D01*
X-124829Y438137D01*
X-133337Y429629D01*
G37*
G36*
X301949Y285057D02*
X311163Y294271D01*
X319671Y285763D01*
X310457Y276549D01*
X301949Y285057D01*
G37*
G36*
X289929Y273037D02*
X299143Y282251D01*
X307651Y273743D01*
X298437Y264529D01*
X289929Y273037D01*
G37*
G36*
X304107Y-276549D02*
X313321Y-285763D01*
X304813Y-294271D01*
X295599Y-285057D01*
X304107Y-276549D01*
G37*
G36*
X292087Y-264529D02*
X301301Y-273743D01*
X292793Y-282251D01*
X283579Y-273037D01*
X292087Y-264529D01*
G37*
G36*
X-136849Y-450157D02*
X-146063Y-459371D01*
X-154571Y-450863D01*
X-145357Y-441649D01*
X-136849Y-450157D01*
G37*
G36*
X-124829Y-438137D02*
X-134043Y-447351D01*
X-142551Y-438843D01*
X-133337Y-429629D01*
X-124829Y-438137D01*
G37*
D24*
X22370Y882650D03*
X22370Y899650D03*
X22370Y916650D03*
X22370Y865650D03*
X22370Y848650D03*
D25*
X-87630Y882650D03*
D26*
X-87550Y919860D03*
X-77550Y919860D03*
X-87550Y911860D03*
X-77550Y911860D03*
X-87550Y903860D03*
X-77550Y903860D03*
X-87550Y894460D03*
X-77550Y894460D03*
X-87550Y886460D03*
X-77550Y886460D03*
X-87550Y878460D03*
X-77550Y878460D03*
X-87550Y869060D03*
X-77550Y869060D03*
X-87550Y861060D03*
X-77550Y861060D03*
X-87550Y853060D03*
X-77550Y853060D03*
X-87550Y845440D03*
X-77550Y845440D03*
D21*
X61116Y839072D03*
X44116Y839072D03*
D27*
X171450Y906750D03*
X171450Y807750D03*
D28*
X73660Y865000D03*
X73660Y913000D03*
D21*
X-52950Y812800D03*
X-35950Y812800D03*
X-74050Y812800D03*
X-91050Y812800D03*
D29*
X209550Y733650D03*
X209550Y777650D03*
D11*
X-161020Y851374D03*
X-176902Y870848D03*
X-196376Y886730D03*
D30*
X165100Y699050D03*
X165100Y609050D03*
D13*
X571500Y48650D03*
X571500Y65650D03*
D21*
X433950Y-40640D03*
X416950Y-40640D03*
X520875Y45671D03*
X537875Y45671D03*
X436000Y-120650D03*
X453000Y-120650D03*
X491100Y-120650D03*
X474100Y-120650D03*
D31*
X455100Y-47580D03*
X460100Y-47580D03*
X465100Y-47580D03*
X470100Y-47580D03*
X475100Y-47580D03*
X480100Y-47580D03*
X485100Y-47580D03*
X490100Y-47580D03*
X495100Y-47580D03*
X500100Y-47580D03*
X505100Y-47580D03*
X510100Y-47580D03*
D32*
X530180Y-27500D03*
X530180Y-22500D03*
X530180Y-17500D03*
X530180Y-12500D03*
X530180Y-7500D03*
X530180Y-2500D03*
X530180Y2500D03*
X530180Y7500D03*
X530180Y12500D03*
X530180Y17500D03*
X530180Y22500D03*
X530180Y27500D03*
D31*
X510100Y47580D03*
X505100Y47580D03*
X500100Y47580D03*
X495100Y47580D03*
X490100Y47580D03*
X485100Y47580D03*
X480100Y47580D03*
X475100Y47580D03*
X470100Y47580D03*
X465100Y47580D03*
X460100Y47580D03*
X455100Y47580D03*
D32*
X435020Y27500D03*
X435020Y22500D03*
X435020Y17500D03*
X435020Y12500D03*
X435020Y7500D03*
X435020Y2500D03*
X435020Y-2500D03*
X435020Y-7500D03*
X435020Y-12500D03*
X435020Y-17500D03*
X435020Y-22500D03*
X435020Y-27500D03*
D13*
X571500Y-10550D03*
X571500Y-27550D03*
X571500Y27550D03*
X571500Y10550D03*
D33*
X476180Y-89802D03*
X439180Y-89802D03*
D34*
X590550Y229000D03*
X590550Y239000D03*
X590550Y249000D03*
X590550Y259000D03*
X590550Y269000D03*
X590550Y279000D03*
D35*
X565300Y216000D03*
X565300Y292000D03*
D36*
X596900Y22500D03*
X596900Y-22500D03*
D22*
X600390Y62430D02*
X593410Y62430D01*
X593410Y69410D01*
X600390Y69410D01*
X600390Y62430D01*
X600390Y67230D02*
X593410Y67230D01*
X593410Y44890D02*
X600390Y44890D01*
X593410Y44890D02*
X593410Y51870D01*
X600390Y51870D01*
X600390Y44890D01*
X600390Y49690D02*
X593410Y49690D01*
D13*
X441960Y48650D03*
X441960Y65650D03*
X400050Y-10550D03*
X400050Y-27550D03*
D21*
X493150Y-76200D03*
X510150Y-76200D03*
X493150Y-95250D03*
X510150Y-95250D03*
X531250Y-69850D03*
X548250Y-69850D03*
X-8500Y-184150D03*
X8500Y-184150D03*
X-48650Y-292100D03*
X-65650Y-292100D03*
D37*
X-50800Y-269150D03*
X-50800Y-226150D03*
D38*
X-61750Y-349250D03*
X-1750Y-349250D03*
D13*
X31750Y-353450D03*
X31750Y-370450D03*
D39*
X63500Y-374650D03*
X63500Y-311150D03*
D40*
X-17550Y-209550D03*
X17550Y-209550D03*
D41*
X-19050Y-291338D03*
X-6350Y-291338D03*
X6350Y-291338D03*
X19050Y-291338D03*
X19050Y-242062D03*
X6350Y-242062D03*
X-6350Y-242062D03*
X-19050Y-242062D03*
D42*
X0Y-266700D03*
D26*
X-8000Y-271700D03*
X-8000Y-261700D03*
X0Y-271700D03*
X0Y-261700D03*
X8000Y-271700D03*
X8000Y-261700D03*
D13*
X101600Y-357750D03*
X101600Y-340750D03*
X31750Y-315350D03*
X31750Y-332350D03*
D10*
X-112928Y538378D03*
X-77572Y503022D03*
D43*
X13000Y511200D03*
X13000Y520700D03*
X13000Y530200D03*
X-13000Y530200D03*
X-13000Y511200D03*
X-13000Y520700D03*
X-13000Y-511200D03*
X-13000Y-520700D03*
X-13000Y-530200D03*
X13000Y-530200D03*
X13000Y-511200D03*
X13000Y-520700D03*
D22*
X386084Y508149D02*
X381149Y513084D01*
X386084Y508149D02*
X381149Y503214D01*
X376214Y508149D01*
X381149Y513084D01*
X385949Y508014D02*
X376349Y508014D01*
X380879Y512814D02*
X381419Y512814D01*
X393551Y525486D02*
X398486Y520551D01*
X393551Y515616D01*
X388616Y520551D01*
X393551Y525486D01*
X398351Y520416D02*
X388751Y520416D01*
X393281Y525216D02*
X393821Y525216D01*
X380851Y528316D02*
X375916Y533251D01*
X380851Y538186D01*
X385786Y533251D01*
X380851Y528316D01*
X385651Y533116D02*
X376051Y533116D01*
X380581Y537916D02*
X381121Y537916D01*
X363514Y520849D02*
X368449Y515914D01*
X363514Y520849D02*
X368449Y525784D01*
X373384Y520849D01*
X368449Y515914D01*
X373249Y520714D02*
X363649Y520714D01*
X368179Y525514D02*
X368719Y525514D01*
D21*
G36*
X356293Y498799D02*
X347079Y508013D01*
X355587Y516521D01*
X364801Y507307D01*
X356293Y498799D01*
G37*
G36*
X368313Y486779D02*
X359099Y495993D01*
X367607Y504501D01*
X376821Y495287D01*
X368313Y486779D01*
G37*
D10*
X398678Y252628D03*
X363322Y217272D03*
D22*
X373384Y-520849D02*
X368449Y-525784D01*
X363514Y-520849D01*
X368449Y-515914D01*
X373384Y-520849D01*
X373249Y-520984D02*
X363649Y-520984D01*
X368179Y-516184D02*
X368719Y-516184D01*
X385786Y-533251D02*
X380851Y-538186D01*
X375916Y-533251D01*
X380851Y-528316D01*
X385786Y-533251D01*
X385651Y-533386D02*
X376051Y-533386D01*
X380581Y-528586D02*
X381121Y-528586D01*
X388616Y-520551D02*
X393551Y-515616D01*
X398486Y-520551D01*
X393551Y-525486D01*
X388616Y-520551D01*
X388751Y-520686D02*
X398351Y-520686D01*
X393821Y-515886D02*
X393281Y-515886D01*
X381149Y-503214D02*
X376214Y-508149D01*
X381149Y-503214D02*
X386084Y-508149D01*
X381149Y-513084D01*
X376214Y-508149D01*
X376349Y-508284D02*
X385949Y-508284D01*
X381419Y-503484D02*
X380879Y-503484D01*
D21*
G36*
X359099Y-495993D02*
X368313Y-486779D01*
X376821Y-495287D01*
X367607Y-504501D01*
X359099Y-495993D01*
G37*
G36*
X347079Y-508013D02*
X356293Y-498799D01*
X364801Y-507307D01*
X355587Y-516521D01*
X347079Y-508013D01*
G37*
D10*
X363322Y-217272D03*
X398678Y-252628D03*
D22*
X-381149Y-513084D02*
X-386084Y-508149D01*
X-381149Y-503214D01*
X-376214Y-508149D01*
X-381149Y-513084D01*
X-376349Y-508284D02*
X-385949Y-508284D01*
X-381419Y-503484D02*
X-380879Y-503484D01*
X-398486Y-520551D02*
X-393551Y-525486D01*
X-398486Y-520551D02*
X-393551Y-515616D01*
X-388616Y-520551D01*
X-393551Y-525486D01*
X-388751Y-520686D02*
X-398351Y-520686D01*
X-393821Y-515886D02*
X-393281Y-515886D01*
X-380851Y-528316D02*
X-375916Y-533251D01*
X-380851Y-538186D01*
X-385786Y-533251D01*
X-380851Y-528316D01*
X-376051Y-533386D02*
X-385651Y-533386D01*
X-381121Y-528586D02*
X-380581Y-528586D01*
X-368449Y-515914D02*
X-363514Y-520849D01*
X-368449Y-525784D01*
X-373384Y-520849D01*
X-368449Y-515914D01*
X-363649Y-520984D02*
X-373249Y-520984D01*
X-368719Y-516184D02*
X-368179Y-516184D01*
D21*
G36*
X-367607Y-504501D02*
X-376821Y-495287D01*
X-368313Y-486779D01*
X-359099Y-495993D01*
X-367607Y-504501D01*
G37*
G36*
X-355587Y-516521D02*
X-364801Y-507307D01*
X-356293Y-498799D01*
X-347079Y-508013D01*
X-355587Y-516521D01*
G37*
D10*
X-77572Y-503022D03*
X-112928Y-538378D03*
D11*
X163830Y-165100D03*
X166370Y-139700D03*
X163830Y-114300D03*
X166370Y-88900D03*
X163830Y-63500D03*
X166370Y-38100D03*
X163830Y-12700D03*
X166370Y12700D03*
X44450Y654050D03*
X-30550Y654050D03*
X-755420Y435610D03*
X-730020Y435610D03*
X755420Y-435750D03*
X730020Y-435750D03*
X19050Y412750D03*
X37011Y394789D03*
X234950Y146050D03*
X216989Y128089D03*
X234950Y-146050D03*
X216989Y-128089D03*
X19050Y-412750D03*
X37011Y-394789D03*
D44*
G36*
X-144608Y801551D02*
X-137514Y794457D01*
X-145314Y786657D01*
X-152408Y793751D01*
X-144608Y801551D01*
G37*
G36*
X-158043Y814986D02*
X-150949Y807892D01*
X-158749Y800092D01*
X-165843Y807186D01*
X-158043Y814986D01*
G37*
G36*
X-166175Y793419D02*
X-159081Y786325D01*
X-166881Y778525D01*
X-173975Y785619D01*
X-166175Y793419D01*
G37*
D45*
X-163408Y724387D02*
X-151913Y712892D01*
X-133953Y730853D02*
X-145447Y742347D01*
X-127487Y760308D02*
X-115992Y748813D01*
D21*
G36*
X-145357Y809949D02*
X-154571Y819163D01*
X-146063Y827671D01*
X-136849Y818457D01*
X-145357Y809949D01*
G37*
G36*
X-133337Y797929D02*
X-142551Y807143D01*
X-134043Y815651D01*
X-124829Y806437D01*
X-133337Y797929D01*
G37*
G36*
X-193351Y780357D02*
X-184137Y789571D01*
X-175629Y781063D01*
X-184843Y771849D01*
X-193351Y780357D01*
G37*
G36*
X-205371Y768337D02*
X-196157Y777551D01*
X-187649Y769043D01*
X-196863Y759829D01*
X-205371Y768337D01*
G37*
G36*
X-218751Y754957D02*
X-209537Y764171D01*
X-201029Y755663D01*
X-210243Y746449D01*
X-218751Y754957D01*
G37*
G36*
X-230771Y742937D02*
X-221557Y752151D01*
X-213049Y743643D01*
X-222263Y734429D01*
X-230771Y742937D01*
G37*
D46*
X69850Y742950D03*
X171450Y742950D03*
D47*
X119190Y781050D02*
X96711Y781050D01*
X-33211Y781050D02*
X-55690Y781050D01*
D21*
G36*
X-174949Y756343D02*
X-184163Y747129D01*
X-192671Y755637D01*
X-183457Y764851D01*
X-174949Y756343D01*
G37*
G36*
X-162929Y768363D02*
X-172143Y759149D01*
X-180651Y767657D01*
X-171437Y776871D01*
X-162929Y768363D01*
G37*
G36*
X-206051Y742257D02*
X-196837Y751471D01*
X-188329Y742963D01*
X-197543Y733749D01*
X-206051Y742257D01*
G37*
G36*
X-218071Y730237D02*
X-208857Y739451D01*
X-200349Y730943D01*
X-209563Y721729D01*
X-218071Y730237D01*
G37*
D10*
X-144678Y661772D03*
X-109322Y697128D03*
D21*
X-8500Y552450D03*
X8500Y552450D03*
X8500Y-552450D03*
X-8500Y-552450D03*
D11*
X558800Y166878D03*
X558800Y139700D03*
X558800Y112522D03*
D34*
X222250Y-45000D03*
X222250Y-35000D03*
X222250Y-25000D03*
X222250Y-15000D03*
X222250Y-5000D03*
X222250Y5000D03*
X222250Y15000D03*
X222250Y25000D03*
X222250Y35000D03*
X222250Y45000D03*
D35*
X197000Y-58000D03*
X197000Y58000D03*
D11*
X165100Y63500D03*
X165100Y88900D03*
X165100Y114300D03*
X165100Y139700D03*
D48*
X-38100Y-186690D03*
D11*
X-755420Y-435750D03*
X-730020Y-435750D03*
X755420Y435750D03*
X730020Y435750D03*
D49*
X260350Y831850D03*
X-209550Y-215900D03*
X88900Y-247650D03*
X82550Y330200D03*
D48*
X-133350Y57150D03*
X-133350Y19050D03*
X-133350Y-19050D03*
D13*
X-158750Y46600D03*
X-158750Y29600D03*
D48*
X514350Y-146050D03*
X43180Y-279400D03*
X539750Y-46990D03*
D49*
X-114300Y-730250D03*
D48*
X-114300Y-685800D03*
D49*
X57150Y-844550D03*
X101600Y-787400D03*
X146050Y-787400D03*
X190500Y-787400D03*
X139700Y-736600D03*
D48*
X127000Y-654050D03*
D49*
X101600Y-692150D03*
X146050Y-692150D03*
X-171450Y482600D03*
X-171450Y-482600D03*
X342900Y-311150D03*
X342900Y311150D03*
D50*
X-36000Y-692150D03*
X36000Y-692150D03*
D49*
X95250Y-736600D03*
D11*
X-171450Y-730250D03*
D49*
X57150Y-787400D03*
D13*
X209550Y-683650D03*
X209550Y-700650D03*
X184150Y-683650D03*
X184150Y-700650D03*
D48*
X514350Y-120650D03*
X98033Y-378020D03*
D49*
X88900Y825500D03*
X184150Y-736600D03*
M02*
