G04 EAGLE Gerber RS-274X export*
G75*
%MOMM*%
%FSLAX34Y34*%
%LPD*%
%INVias*%
%IPPOS*%
%AMOC8*
5,1,8,0,0,1.08239X$1,22.5*%
G01*
%ADD10C,0.858000*%


D10*
X-558800Y-292100D03*
X12700Y-660400D03*
X18945Y-630846D03*
X9488Y832565D03*
X21374Y628503D03*
X556548Y279317D03*
X-31750Y-323850D03*
X-155575Y-187325D03*
X76200Y-417518D03*
X88900Y-450850D03*
X476840Y87527D03*
X532158Y143764D03*
X-336550Y212034D03*
X-381000Y215900D03*
X-400050Y279400D03*
X-379418Y292100D03*
X68608Y482600D03*
X83792Y463550D03*
X82550Y406400D03*
X127230Y247880D03*
X-19948Y559905D03*
X-317500Y436908D03*
X-317500Y457200D03*
X118958Y-257077D03*
X-129540Y422910D03*
X281940Y266700D03*
X-127000Y-420370D03*
X278130Y-264160D03*
X278130Y-232410D03*
X-476250Y-368300D03*
X-406400Y-444500D03*
X-383189Y-488297D03*
X-323850Y-508000D03*
X-241300Y-527050D03*
X-190500Y-590550D03*
X-82550Y-603250D03*
X31750Y-615950D03*
X127000Y-596900D03*
X241300Y-571500D03*
X-361950Y-285750D03*
X298450Y-539750D03*
X323850Y-514350D03*
X382705Y-474816D03*
X408105Y-449416D03*
X465255Y-404966D03*
X484305Y-379566D03*
X528755Y-322416D03*
X541455Y-284316D03*
X420805Y-55716D03*
X584200Y38100D03*
X539750Y57150D03*
X-370306Y270173D03*
X-364788Y287909D03*
X143005Y504958D03*
X101900Y456255D03*
X158750Y558800D03*
X247650Y533400D03*
X88900Y520700D03*
X-254000Y527050D03*
X-247650Y488950D03*
X-26608Y598554D03*
X-1208Y592204D03*
X24192Y547754D03*
X62292Y547754D03*
X76946Y596831D03*
X-317500Y514350D03*
X-165054Y563897D03*
X-152354Y519447D03*
X-50800Y-552450D03*
X252730Y-10160D03*
X225456Y105219D03*
X-463550Y412750D03*
X-495300Y374650D03*
X565150Y190500D03*
X450850Y412750D03*
X488950Y374650D03*
X257625Y104086D03*
X283949Y113835D03*
X570575Y229681D03*
X323850Y520700D03*
X148391Y-535983D03*
X130961Y-510104D03*
X211136Y91472D03*
X-168745Y801062D03*
X3767Y886778D03*
X-123233Y816928D03*
X-110533Y816928D03*
X-104183Y804228D03*
X-116883Y804228D03*
X369572Y-10042D03*
X-224517Y-252742D03*
X-77266Y-217142D03*
X207693Y-184158D03*
X251686Y-57150D03*
X400050Y114300D03*
X366638Y-30381D03*
X378807Y-93057D03*
X-215805Y-260941D03*
X-95250Y-222250D03*
X247650Y-171450D03*
X279400Y-12700D03*
X379343Y-5368D03*
X389438Y114175D03*
X396308Y-57795D03*
X387591Y-84272D03*
X-84712Y-344267D03*
X-87834Y-229842D03*
X242571Y-181379D03*
X252758Y-82550D03*
X385742Y-42474D03*
X387263Y188394D03*
X-80066Y-355600D03*
X-80242Y-237434D03*
X239026Y-191462D03*
X245875Y-90675D03*
X359782Y-14956D03*
X404290Y-43584D03*
X375256Y188516D03*
X360863Y121737D03*
X381125Y95125D03*
X539750Y107950D03*
X-127000Y450850D03*
X315335Y70146D03*
X203815Y70465D03*
X149008Y179869D03*
X-330200Y241300D03*
X199418Y35588D03*
X137160Y36830D03*
X69850Y184150D03*
X-311150Y177800D03*
X207010Y44450D03*
X146050Y44450D03*
X-336550Y190500D03*
X-167468Y188016D03*
X-279400Y431800D03*
X-222250Y254000D03*
X-146050Y336550D03*
X317500Y273050D03*
X311150Y-273050D03*
X-133350Y-457200D03*
X31750Y530200D03*
X126117Y529317D03*
X-6350Y539750D03*
X86360Y440690D03*
X-6350Y335280D03*
X76200Y416560D03*
X339116Y63500D03*
X260350Y82550D03*
X217853Y151158D03*
X215900Y171450D03*
X57150Y501650D03*
X103875Y468295D03*
X298450Y419100D03*
X196850Y285750D03*
X120650Y368300D03*
X25400Y-501650D03*
X46643Y-503843D03*
X106680Y-467360D03*
X219412Y-217886D03*
X135890Y-497840D03*
X328007Y-173643D03*
X280291Y-426341D03*
X247650Y-292100D03*
X113058Y-368300D03*
X145098Y-394652D03*
X133350Y-381000D03*
X-95250Y-381000D03*
X-190500Y-285750D03*
X63500Y-406400D03*
X208120Y-217330D03*
X-285750Y-443258D03*
X-279400Y-458442D03*
X-165494Y-557506D03*
X-175494Y-576534D03*
X-97167Y-571453D03*
X19050Y-571453D03*
X-328930Y-245110D03*
X-323850Y-221008D03*
X-69850Y-209550D03*
X177966Y-189472D03*
X-358140Y-275590D03*
X-342900Y-221008D03*
X-82550Y-201958D03*
X341630Y-179070D03*
X-247554Y-283903D03*
X-171450Y-247650D03*
X-132889Y-362181D03*
X-201302Y-287911D03*
X-369872Y-369872D03*
X-54172Y-191346D03*
X416521Y-116103D03*
X514450Y-63600D03*
X368300Y-101600D03*
X-26125Y822570D03*
X21504Y825500D03*
X-6350Y831850D03*
X478999Y-30691D03*
X585645Y-10003D03*
X561689Y76D03*
X513698Y12700D03*
X492214Y83124D03*
X428841Y71767D03*
X237340Y35710D03*
X486410Y31098D03*
X238896Y47194D03*
X485346Y67748D03*
X408265Y-131101D03*
X330200Y-91050D03*
X565150Y-355600D03*
X508000Y-311150D03*
X304800Y-590550D03*
X285750Y-514350D03*
X489043Y-107857D03*
X-207855Y-252767D03*
X-98446Y-233717D03*
X246500Y-199194D03*
X233049Y-129874D03*
X-95250Y-393700D03*
X-88900Y-419100D03*
X307816Y104624D03*
X291384Y-59830D03*
X-558800Y368300D03*
X-463550Y393700D03*
X1212Y843338D03*
X43012Y440594D03*
X14958Y379961D03*
X273050Y129484D03*
X647700Y-95250D03*
X311937Y-127902D03*
X-603250Y-31750D03*
X-645950Y-25400D03*
X-336550Y-430558D03*
X-401231Y-502831D03*
X31750Y-438150D03*
X152400Y-552450D03*
X234950Y-609600D03*
X545025Y-83625D03*
X615861Y-88888D03*
X342900Y121892D03*
X321772Y104821D03*
X304800Y-50800D03*
X330200Y-71700D03*
X406400Y188778D03*
X10386Y476250D03*
X-31750Y520700D03*
X-12700Y641350D03*
X36098Y640382D03*
X82550Y635000D03*
X-13942Y890242D03*
X590786Y190264D03*
X607874Y208336D03*
X84553Y-404397D03*
X228536Y-223399D03*
X424178Y-123454D03*
X426470Y-178820D03*
X499110Y-5080D03*
X412888Y-8499D03*
X410933Y-19056D03*
X476819Y-6109D03*
X488373Y-5657D03*
X497840Y7620D03*
X-101600Y774700D03*
X17080Y742950D03*
X342900Y133350D03*
X392458Y88900D03*
X392458Y63500D03*
X495799Y69950D03*
X613757Y258157D03*
X609600Y279400D03*
X590550Y127000D03*
X558551Y-32382D03*
X454897Y-20947D03*
X475204Y64056D03*
X323932Y63543D03*
X214306Y73864D03*
X-6350Y901700D03*
X241300Y-676058D03*
X215900Y-901700D03*
X184150Y-901700D03*
X330728Y72180D03*
X224143Y78150D03*
X207241Y153307D03*
X203711Y178311D03*
X345912Y71712D03*
X247650Y88841D03*
X337616Y-98642D03*
X53086Y-336550D03*
X90142Y-330200D03*
X267942Y-158865D03*
X306408Y63976D03*
X191742Y71092D03*
X157164Y172065D03*
X-425450Y203200D03*
X520700Y-247650D03*
X406400Y-171450D03*
X406275Y-182062D03*
X469900Y-349250D03*
X464792Y-251316D03*
X411538Y-198062D03*
X393700Y-412750D03*
X368300Y-463550D03*
X-342900Y-184150D03*
X-615950Y-19050D03*
X-342398Y-171852D03*
X-603250Y95250D03*
X-325004Y-178954D03*
X-571500Y222250D03*
X-320528Y-165664D03*
X-527050Y317500D03*
X-482600Y387350D03*
X-317500Y-152400D03*
X-495300Y-285750D03*
X-571500Y-228600D03*
X-358414Y-181336D03*
X-603250Y-127000D03*
X449608Y229666D03*
X441347Y385598D03*
X457200Y222250D03*
X457200Y381000D03*
X463550Y119155D03*
X469900Y381000D03*
X469185Y392765D03*
X455698Y109377D03*
X530651Y302710D03*
X445289Y105729D03*
X585071Y199557D03*
X551914Y182223D03*
X532158Y165100D03*
X434677Y106047D03*
X632807Y21243D03*
X602262Y109801D03*
X604882Y99189D03*
X603250Y-96480D03*
X571500Y-209550D03*
X611793Y91093D03*
X-241826Y242542D03*
X-180340Y228600D03*
X109192Y356126D03*
X-258675Y-295052D03*
X187651Y-476250D03*
M02*
