M48
;GenerationSoftware,Autodesk,EAGLE,9.5.2*%
;CreationDate,2020-02-12T08:58:48Z*%
FMAT,2
ICI,OFF
METRIC,TZ,000.000
T11C0.350
T10C0.381
T9C0.813
T8C1.016
T7C1.118
T6C1.300
T5C1.499
T4C2.000
T3C2.050
T2C3.000
T1C4.400
%
G90
M71
T1
X3600Y-69215
X-3600Y-69215
T2
X-80907Y45858
X-80907Y-45858
X-40304Y-34596
X-47192Y-9500
X-29192Y-9500
X-29192Y9500
X-47192Y9500
X-7988Y14597
X-7988Y-14613
X9792Y14597
X-40304Y34596
X-20505Y54395
X20505Y54395
X40304Y34596
X80907Y45858
X27245Y88920
X-27245Y88920
X-27245Y-88920
X27245Y-88920
X20505Y-54395
X40304Y-34596
X-20505Y-54395
X80907Y-45858
T3
X18415Y-73660
X-17145Y-48260
X10160Y-78740
X14605Y-78740
X8255Y33020
X8890Y-24765
X-20955Y-21590
X26035Y83185
X8890Y82550
X19050Y-78740
X13970Y-73660
X5715Y-78740
X-11430Y-73025
X9525Y-73660
X34290Y31115
X34290Y-31115
X5715Y-84455
X-17145Y48260
X14605Y-69215
X10160Y-69215
T4
X-10932Y69713
X-14468Y66177
X39868Y25263
X-7757Y50302
X-11293Y53838
X36332Y21727
X36332Y-21727
X39868Y-25263
X-7757Y-50302
X-11293Y-53838
T5
X-4445Y78105
X10795Y78105
T6
X-11430Y-68580
X12700Y-65405
X53975Y-4699
X4318Y-27940
X-13335Y-1905
X-3810Y-18669
X51435Y-12065
X9803Y-37802
X-13335Y5715
X-13335Y1905
X51435Y-14605
T7
X6985Y74295
X17145Y74295
T8
X16637Y-3810
X16383Y-6350
X16637Y-8890
X16383Y-1270
X16637Y-13970
X16383Y-16510
X16637Y1270
X4445Y65405
X-3055Y65405
X-75542Y43561
X-73002Y43561
X75542Y-43575
X73002Y-43575
X1905Y41275
X73002Y43575
X75542Y43575
X16383Y-11430
X-73002Y-43575
X-75542Y-43575
X-17145Y-73025
X-19638Y88673
X-17690Y87085
X-16102Y85137
X16510Y13970
X16510Y11430
X16510Y8890
X16510Y6350
X55880Y11252
X55880Y13970
X55880Y16688
X-12174Y75456
X-13970Y73660
X-15766Y71864
X3701Y-39479
X1905Y-41275
X21699Y-12809
X23495Y-14605
X21699Y12809
X23495Y14605
X3701Y39479
X55880Y-11252
X55880Y-13970
X55880Y-16688
T9
X-1918Y-42558
X-4432Y-45072
X28588Y-15888
X31102Y-18402
X31102Y18402
X28588Y15888
X-4432Y45072
X-1918Y42558
T10
X-8755Y91986
X-7755Y91986
X-8755Y91186
X-7755Y91186
X-8755Y90386
X-7755Y90386
X-8755Y89446
X-7755Y89446
X-8755Y88646
X-7755Y88646
X-8755Y87846
X-7755Y87846
X-8755Y86906
X-7755Y86906
X-8755Y86106
X-7755Y86106
X-8755Y85306
X-7755Y85306
X-8755Y84544
X-7755Y84544
X-800Y-27170
X-800Y-26170
X0Y-27170
X800Y-27170
X800Y-26170
X0Y-26170
T11
X26035Y8255
X21785Y15116
X21590Y17145
X5715Y50165
X10388Y46830
X29845Y41910
X19685Y28575
X12065Y36830
X2540Y-50165
X4664Y-50384
X10668Y-46736
X21941Y-21789
X13589Y-49784
X32801Y-17364
X28029Y-42634
X24765Y-29210
X11306Y-36830
X14510Y-39465
X13335Y-38100
X-9525Y-38100
X-19050Y-28575
X6350Y-40640
X20812Y-21733
X-28575Y-44326
X-27940Y-45844
X-16549Y-55751
X-17549Y-57653
X-9717Y-57145
X1905Y-57145
X-32893Y-24511
X-32385Y-22101
X-6985Y-20955
X17797Y-18947
X-35814Y-27559
X-34290Y-22101
X-8255Y-20196
X34163Y-17907
X-24755Y-28390
X-17145Y-24765
X-13289Y-36218
X-20130Y-28791
X-36987Y-36987
X-5417Y-19135
X41652Y-11610
X51445Y-6360
X36830Y-10160
X-2613Y82257
X2150Y82550
X-635Y83185
X47900Y-3069
X58565Y-1000
X56169Y8
X51370Y1270
X49221Y8312
X42884Y7177
X23734Y3571
X48641Y3110
X23890Y4719
X48535Y6775
X40826Y-13110
X33020Y-9105
X56515Y-35560
X50800Y-31115
X30480Y-59055
X28575Y-51435
X48904Y-10786
X-20786Y-25277
X-9845Y-23372
X24650Y-19919
X23305Y-12987
X-9525Y-39370
X-8890Y-41910
X30782Y10462
X29138Y-5983
X-55880Y36830
X-46355Y39370
X121Y84334
X4301Y44059
X1496Y37996
X27305Y12948
X64770Y-9525
X31194Y-12790
X-60325Y-3175
X-64595Y-2540
X-33655Y-43056
X-40123Y-50283
X3175Y-43815
X15240Y-55245
X23495Y-60960
X54502Y-8363
X61586Y-8889
X34290Y12189
X32177Y10482
X30480Y-5080
X33020Y-7170
X40640Y18878
X-55880Y-29210
X-3175Y52070
X-1270Y64135
X3610Y64038
X8255Y63500
X-1394Y89024
X59079Y19026
X60787Y20834
X8455Y-40440
X22854Y-22340
X42418Y-12345
X42647Y-17882
X49911Y-508
X41289Y-850
X41093Y-1906
X47682Y-611
X48837Y-566
X49784Y762
X-10160Y77470
X1708Y74295
X34290Y13335
X39246Y8890
X39246Y6350
X49580Y6995
X61376Y25816
X60960Y27940
X59055Y12700
X55855Y-3238
X45490Y-2095
X47520Y6406
X32393Y6354
X21431Y7386
X-635Y90170
X24130Y-67606
X21590Y-90170
X18415Y-90170
X33073Y7218
X22414Y7815
X20724Y15331
X20371Y17831
X34591Y7171
X24765Y8884
X33762Y-9864
X5309Y-33655
X9014Y-33020
X26794Y-15887
X30641Y6398
X19174Y7109
X15716Y17206
X-42545Y20320
X52070Y-24765
X40640Y-17145
X40628Y-18206
X46990Y-34925
X46479Y-25132
X41154Y-19806
X39370Y-41275
X36830Y-46355
X-34290Y-18415
X-61595Y-1905
X-34240Y-17185
X-60325Y9525
X-32500Y-17895
X-57150Y22225
X-32053Y-16566
X-52705Y31750
X-48260Y38735
X-31750Y-15240
X-49530Y-28575
X-57150Y-22860
X-35841Y-18134
X-60325Y-12700
X44961Y22967
X44135Y38560
X45720Y22225
X45720Y38100
X46355Y11915
X46990Y38100
X46919Y39277
X45570Y10938
X53065Y30271
X44529Y10573
X58507Y19956
X55191Y18222
X53216Y16510
X43468Y10605
X63281Y2124
X60226Y10980
X60488Y9919
X60325Y-9648
X57150Y-20955
X61179Y9109
X-24183Y24254
X-18034Y22860
X10919Y35613
X-25868Y-29505
X18765Y-47625
X33912Y6350
X7620Y41656
X-635Y33528
X8636Y44069
X-635Y53975
X12612Y52932
X3175Y53020
X-13335Y-45720
X31115Y-27305
X31750Y27305
X-14605Y33655
X-22225Y25400
X-27940Y43180
X-16747Y18802
X-33655Y19050
X14605Y4445
X20701Y4445
X-31115Y17780
X6985Y18415
X13716Y3683
X19942Y3559
X-33020Y24130
X14901Y17987
X20381Y7046
X31534Y7015
X-12700Y45085
X53975Y10795
X38112Y9513
X36086Y12174
X37526Y18852
X40429Y-4358
X35978Y-1496
X24588Y-9067
X23903Y-19146
X-8024Y-23743
X-8007Y-35560
X38726Y18839
X38574Y-4247
X25276Y-8255
X24257Y-18138
X-8783Y-22984
X-8471Y-34427
X38759Y-8427
X39631Y-5779
X38944Y11418
X37934Y-537
X27940Y-1270
X24765Y-17145
X-9525Y-22225
X-21580Y-26094
X37881Y-9306
X36664Y-3038
X40005Y11430
X25169Y-5715
X20769Y-18416
X-7727Y-21714
X-22452Y-25274
X36957Y-1004
X-11688Y80423
X-10418Y80423
X-11053Y81693
X-12323Y81693
X377Y88678
X-16874Y80106
X21114Y9147
X13096Y-51010
X14839Y-53598
X32385Y52070
X57057Y22968
X28395Y11384
X25763Y10409
X48895Y37465
X45085Y41275
X56515Y19050
X-49530Y37465
X-46355Y41275
X22546Y10522
X25273Y-1016
X-5080Y-55245
X-15235Y51945
X-16505Y56390
X-31750Y51435
X7695Y59683
X6229Y54775
X2419Y54775
X-121Y59220
X-2661Y59855
X-24765Y48895
X-25400Y52705
X8890Y52070
X24765Y53340
X15875Y55880
X10190Y45625
X14301Y50496
X-36479Y28791
X-37031Y27017
X53975Y5715
X58420Y3810
X42081Y-5572
X54145Y-28432
X52875Y-32242
X48430Y-37957
X46525Y-40497
X40811Y-44942
X38271Y-47482
X32385Y-51435
X29845Y-53975
X-36195Y-28575
X24130Y-57150
X12700Y-59690
X3175Y-61595
X-8255Y-60325
X-19050Y-59055
X-24130Y-52705
X-32385Y-50800
X-38319Y-48830
X-40640Y-44450
X-47625Y-36830
X27813Y-23241
X27813Y-26416
X-12700Y-42037
X28194Y26670
X-12954Y42291
X11896Y-25708
X-31750Y45720
X-31750Y43691
X-1995Y55990
X12723Y24788
X8255Y40640
X8379Y46355
X6861Y48260
X-37942Y29210
X-40005Y27940
X-38100Y21590
X-33655Y21203
X53216Y14376
X47684Y8753
X8890Y-45085
X7620Y-41752
X-15557Y-18733
X-3175Y-32385
X55655Y27932
X2137Y62850
X949Y83256
X1895Y-63085
X1270Y-66040
X1039Y47625
M30